%TF.GenerationSoftware,KiCad,Pcbnew,(6.0.7)*%
%TF.CreationDate,2023-07-14T15:56:38+03:30*%
%TF.ProjectId,Linak-controller,4c696e61-6b2d-4636-9f6e-74726f6c6c65,rev?*%
%TF.SameCoordinates,Original*%
%TF.FileFunction,Paste,Top*%
%TF.FilePolarity,Positive*%
%FSLAX46Y46*%
G04 Gerber Fmt 4.6, Leading zero omitted, Abs format (unit mm)*
G04 Created by KiCad (PCBNEW (6.0.7)) date 2023-07-14 15:56:38*
%MOMM*%
%LPD*%
G01*
G04 APERTURE LIST*
G04 Aperture macros list*
%AMRoundRect*
0 Rectangle with rounded corners*
0 $1 Rounding radius*
0 $2 $3 $4 $5 $6 $7 $8 $9 X,Y pos of 4 corners*
0 Add a 4 corners polygon primitive as box body*
4,1,4,$2,$3,$4,$5,$6,$7,$8,$9,$2,$3,0*
0 Add four circle primitives for the rounded corners*
1,1,$1+$1,$2,$3*
1,1,$1+$1,$4,$5*
1,1,$1+$1,$6,$7*
1,1,$1+$1,$8,$9*
0 Add four rect primitives between the rounded corners*
20,1,$1+$1,$2,$3,$4,$5,0*
20,1,$1+$1,$4,$5,$6,$7,0*
20,1,$1+$1,$6,$7,$8,$9,0*
20,1,$1+$1,$8,$9,$2,$3,0*%
G04 Aperture macros list end*
%ADD10R,0.600000X0.700000*%
%ADD11R,2.750000X3.050000*%
%ADD12R,1.200000X2.200000*%
%ADD13RoundRect,0.249999X-0.450001X-1.075001X0.450001X-1.075001X0.450001X1.075001X-0.450001X1.075001X0*%
%ADD14RoundRect,0.249999X0.450001X1.075001X-0.450001X1.075001X-0.450001X-1.075001X0.450001X-1.075001X0*%
%ADD15RoundRect,0.250000X1.100000X-0.412500X1.100000X0.412500X-1.100000X0.412500X-1.100000X-0.412500X0*%
%ADD16RoundRect,0.150000X0.587500X0.150000X-0.587500X0.150000X-0.587500X-0.150000X0.587500X-0.150000X0*%
%ADD17RoundRect,0.150000X-0.587500X-0.150000X0.587500X-0.150000X0.587500X0.150000X-0.587500X0.150000X0*%
%ADD18RoundRect,0.250000X1.950000X0.700000X-1.950000X0.700000X-1.950000X-0.700000X1.950000X-0.700000X0*%
%ADD19RoundRect,0.250000X-1.950000X-0.700000X1.950000X-0.700000X1.950000X0.700000X-1.950000X0.700000X0*%
G04 APERTURE END LIST*
D10*
%TO.C,D3*%
X106922000Y-50146000D03*
X108322000Y-50146000D03*
%TD*%
D11*
%TO.C,U1*%
X73914000Y-72850000D03*
X70864000Y-72850000D03*
X73914000Y-76200000D03*
X70864000Y-76200000D03*
D12*
X70109000Y-80825000D03*
X74669000Y-80825000D03*
%TD*%
D13*
%TO.C,R7*%
X58761000Y-92528000D03*
X53961000Y-92528000D03*
%TD*%
D14*
%TO.C,R3*%
X105022000Y-54646000D03*
X109822000Y-54646000D03*
%TD*%
D15*
%TO.C,C3*%
X79789000Y-81187500D03*
X79789000Y-78062500D03*
%TD*%
D16*
%TO.C,Q3*%
X100784500Y-50946000D03*
X102659500Y-49996000D03*
X102659500Y-51896000D03*
%TD*%
D17*
%TO.C,Q7*%
X63198500Y-96528000D03*
X61323500Y-97478000D03*
X61323500Y-95578000D03*
%TD*%
D16*
%TO.C,Q1*%
X29304500Y-50746000D03*
X31179500Y-49796000D03*
X31179500Y-51696000D03*
%TD*%
D18*
%TO.C,C4*%
X87154000Y-69040000D03*
X78454000Y-69040000D03*
%TD*%
D13*
%TO.C,R5*%
X124366000Y-93963000D03*
X119566000Y-93963000D03*
%TD*%
D16*
%TO.C,Q4*%
X121559500Y-50946000D03*
X123434500Y-49996000D03*
X123434500Y-51896000D03*
%TD*%
D10*
%TO.C,D5*%
X122366000Y-98163000D03*
X120966000Y-98163000D03*
%TD*%
%TO.C,D2*%
X55742000Y-50146000D03*
X57142000Y-50146000D03*
%TD*%
D16*
%TO.C,Q2*%
X49804500Y-50846000D03*
X51679500Y-49896000D03*
X51679500Y-51796000D03*
%TD*%
D10*
%TO.C,D1*%
X35142000Y-49946000D03*
X36542000Y-49946000D03*
%TD*%
D17*
%TO.C,Q5*%
X128603500Y-97663000D03*
X126728500Y-98613000D03*
X126728500Y-96713000D03*
%TD*%
%TO.C,Q6*%
X110803500Y-97363000D03*
X108928500Y-98313000D03*
X108928500Y-96413000D03*
%TD*%
D13*
%TO.C,R4*%
X130497000Y-54646000D03*
X125697000Y-54646000D03*
%TD*%
%TO.C,R8*%
X38861000Y-92828000D03*
X34061000Y-92828000D03*
%TD*%
D10*
%TO.C,D8*%
X36561000Y-97028000D03*
X35161000Y-97028000D03*
%TD*%
%TO.C,D4*%
X127897000Y-50046000D03*
X129297000Y-50046000D03*
%TD*%
D14*
%TO.C,R1*%
X33342000Y-54346000D03*
X38142000Y-54346000D03*
%TD*%
%TO.C,R2*%
X53942000Y-54446000D03*
X58742000Y-54446000D03*
%TD*%
D15*
%TO.C,C2*%
X65089000Y-81187500D03*
X65089000Y-78062500D03*
%TD*%
D19*
%TO.C,C1*%
X57626000Y-69548000D03*
X66326000Y-69548000D03*
%TD*%
D13*
%TO.C,R6*%
X106566000Y-93763000D03*
X101766000Y-93763000D03*
%TD*%
D17*
%TO.C,Q8*%
X43098500Y-96528000D03*
X41223500Y-97478000D03*
X41223500Y-95578000D03*
%TD*%
D10*
%TO.C,D7*%
X56761000Y-96828000D03*
X55361000Y-96828000D03*
%TD*%
%TO.C,D6*%
X104666000Y-98063000D03*
X103266000Y-98063000D03*
%TD*%
M02*
