%TF.GenerationSoftware,KiCad,Pcbnew,(6.0.7)*%
%TF.CreationDate,2023-07-14T15:56:39+03:30*%
%TF.ProjectId,Linak-controller,4c696e61-6b2d-4636-9f6e-74726f6c6c65,rev?*%
%TF.SameCoordinates,Original*%
%TF.FileFunction,Soldermask,Bot*%
%TF.FilePolarity,Negative*%
%FSLAX46Y46*%
G04 Gerber Fmt 4.6, Leading zero omitted, Abs format (unit mm)*
G04 Created by KiCad (PCBNEW (6.0.7)) date 2023-07-14 15:56:39*
%MOMM*%
%LPD*%
G01*
G04 APERTURE LIST*
%ADD10C,2.600000*%
%ADD11R,2.600000X2.600000*%
%ADD12C,3.000000*%
%ADD13C,3.200000*%
%ADD14R,1.930000X1.930000*%
%ADD15C,1.930000*%
%ADD16R,1.350000X1.350000*%
%ADD17O,1.350000X1.350000*%
G04 APERTURE END LIST*
D10*
%TO.C,J1*%
X70572000Y-31826000D03*
D11*
X75572000Y-31826000D03*
%TD*%
%TO.C,J7*%
X32207000Y-66842000D03*
D10*
X32207000Y-71842000D03*
%TD*%
D12*
%TO.C,K6*%
X103966000Y-102363000D03*
X109966000Y-116563000D03*
X97966000Y-116563000D03*
X97966000Y-104363000D03*
X109966000Y-104363000D03*
%TD*%
D13*
%TO.C,A1*%
X99314000Y-85344000D03*
X142494000Y-65024000D03*
X99314000Y-65024000D03*
X142494000Y-85344000D03*
D14*
X103124000Y-86614000D03*
D15*
X105664000Y-86614000D03*
X108204000Y-86614000D03*
X110744000Y-86614000D03*
X113284000Y-86614000D03*
X115824000Y-86614000D03*
X118364000Y-86614000D03*
X120904000Y-86614000D03*
X123444000Y-86614000D03*
X125984000Y-86614000D03*
X128524000Y-86614000D03*
X131064000Y-86614000D03*
X133604000Y-86614000D03*
X136144000Y-86614000D03*
X138684000Y-86614000D03*
D14*
X103124000Y-63754000D03*
D15*
X105664000Y-63754000D03*
X108204000Y-63754000D03*
X110744000Y-63754000D03*
X113284000Y-63754000D03*
X115824000Y-63754000D03*
X118364000Y-63754000D03*
X120904000Y-63754000D03*
X123444000Y-63754000D03*
X125984000Y-63754000D03*
X128524000Y-63754000D03*
X131064000Y-63754000D03*
X133604000Y-63754000D03*
X136144000Y-63754000D03*
X138684000Y-63754000D03*
%TD*%
D10*
%TO.C,J2*%
X88612000Y-31826000D03*
D11*
X93612000Y-31826000D03*
%TD*%
D12*
%TO.C,K3*%
X101622000Y-43896000D03*
X113622000Y-43896000D03*
X113622000Y-31696000D03*
X101622000Y-31696000D03*
X107622000Y-45896000D03*
%TD*%
D16*
%TO.C,J4*%
X137954000Y-108696000D03*
D17*
X137954000Y-106696000D03*
X139954000Y-108696000D03*
X139954000Y-106696000D03*
X141954000Y-108696000D03*
X141954000Y-106696000D03*
%TD*%
D10*
%TO.C,J6*%
X74128000Y-118415000D03*
D11*
X69128000Y-118415000D03*
%TD*%
D12*
%TO.C,K1*%
X30242000Y-43896000D03*
X42242000Y-43896000D03*
X42242000Y-31696000D03*
X30242000Y-31696000D03*
X36242000Y-45896000D03*
%TD*%
%TO.C,K4*%
X122397000Y-43896000D03*
X134397000Y-43896000D03*
X134397000Y-31696000D03*
X122397000Y-31696000D03*
X128397000Y-45896000D03*
%TD*%
%TO.C,K8*%
X42261000Y-103678000D03*
X30261000Y-103678000D03*
X30261000Y-115878000D03*
X42261000Y-115878000D03*
X36261000Y-101678000D03*
%TD*%
%TO.C,K2*%
X50642000Y-43896000D03*
X62642000Y-43896000D03*
X62642000Y-31696000D03*
X50642000Y-31696000D03*
X56642000Y-45896000D03*
%TD*%
D10*
%TO.C,J5*%
X90776000Y-118623000D03*
D11*
X85776000Y-118623000D03*
%TD*%
D12*
%TO.C,K7*%
X62261000Y-103878000D03*
X50261000Y-103878000D03*
X50261000Y-116078000D03*
X62261000Y-116078000D03*
X56261000Y-101878000D03*
%TD*%
%TO.C,K5*%
X127666000Y-104513000D03*
X115666000Y-104513000D03*
X115666000Y-116713000D03*
X127666000Y-116713000D03*
X121666000Y-102513000D03*
%TD*%
M02*
