%TF.GenerationSoftware,KiCad,Pcbnew,(6.0.7)*%
%TF.CreationDate,2023-07-14T15:56:38+03:30*%
%TF.ProjectId,Linak-controller,4c696e61-6b2d-4636-9f6e-74726f6c6c65,rev?*%
%TF.SameCoordinates,Original*%
%TF.FileFunction,Soldermask,Top*%
%TF.FilePolarity,Negative*%
%FSLAX46Y46*%
G04 Gerber Fmt 4.6, Leading zero omitted, Abs format (unit mm)*
G04 Created by KiCad (PCBNEW (6.0.7)) date 2023-07-14 15:56:38*
%MOMM*%
%LPD*%
G01*
G04 APERTURE LIST*
G04 Aperture macros list*
%AMRoundRect*
0 Rectangle with rounded corners*
0 $1 Rounding radius*
0 $2 $3 $4 $5 $6 $7 $8 $9 X,Y pos of 4 corners*
0 Add a 4 corners polygon primitive as box body*
4,1,4,$2,$3,$4,$5,$6,$7,$8,$9,$2,$3,0*
0 Add four circle primitives for the rounded corners*
1,1,$1+$1,$2,$3*
1,1,$1+$1,$4,$5*
1,1,$1+$1,$6,$7*
1,1,$1+$1,$8,$9*
0 Add four rect primitives between the rounded corners*
20,1,$1+$1,$2,$3,$4,$5,0*
20,1,$1+$1,$4,$5,$6,$7,0*
20,1,$1+$1,$6,$7,$8,$9,0*
20,1,$1+$1,$8,$9,$2,$3,0*%
G04 Aperture macros list end*
%ADD10R,0.600000X0.700000*%
%ADD11R,1.200000X2.200000*%
%ADD12R,5.800000X6.400000*%
%ADD13RoundRect,0.249999X-0.450001X-1.075001X0.450001X-1.075001X0.450001X1.075001X-0.450001X1.075001X0*%
%ADD14C,2.600000*%
%ADD15R,2.600000X2.600000*%
%ADD16RoundRect,0.249999X0.450001X1.075001X-0.450001X1.075001X-0.450001X-1.075001X0.450001X-1.075001X0*%
%ADD17RoundRect,0.250000X1.100000X-0.412500X1.100000X0.412500X-1.100000X0.412500X-1.100000X-0.412500X0*%
%ADD18RoundRect,0.150000X0.587500X0.150000X-0.587500X0.150000X-0.587500X-0.150000X0.587500X-0.150000X0*%
%ADD19RoundRect,0.150000X-0.587500X-0.150000X0.587500X-0.150000X0.587500X0.150000X-0.587500X0.150000X0*%
%ADD20RoundRect,0.250000X1.950000X0.700000X-1.950000X0.700000X-1.950000X-0.700000X1.950000X-0.700000X0*%
%ADD21C,3.000000*%
%ADD22C,3.200000*%
%ADD23R,1.930000X1.930000*%
%ADD24C,1.930000*%
%ADD25R,1.350000X1.350000*%
%ADD26O,1.350000X1.350000*%
%ADD27RoundRect,0.250000X-1.950000X-0.700000X1.950000X-0.700000X1.950000X0.700000X-1.950000X0.700000X0*%
G04 APERTURE END LIST*
D10*
%TO.C,D3*%
X106922000Y-50146000D03*
X108322000Y-50146000D03*
%TD*%
D11*
%TO.C,U1*%
X70109000Y-80825000D03*
D12*
X72389000Y-74525000D03*
D11*
X74669000Y-80825000D03*
%TD*%
D13*
%TO.C,R7*%
X58761000Y-92528000D03*
X53961000Y-92528000D03*
%TD*%
D14*
%TO.C,J1*%
X70572000Y-31826000D03*
D15*
X75572000Y-31826000D03*
%TD*%
D16*
%TO.C,R3*%
X105022000Y-54646000D03*
X109822000Y-54646000D03*
%TD*%
D17*
%TO.C,C3*%
X79789000Y-81187500D03*
X79789000Y-78062500D03*
%TD*%
D15*
%TO.C,J7*%
X32207000Y-66842000D03*
D14*
X32207000Y-71842000D03*
%TD*%
D18*
%TO.C,Q3*%
X100784500Y-50946000D03*
X102659500Y-49996000D03*
X102659500Y-51896000D03*
%TD*%
D19*
%TO.C,Q7*%
X63198500Y-96528000D03*
X61323500Y-97478000D03*
X61323500Y-95578000D03*
%TD*%
D18*
%TO.C,Q1*%
X29304500Y-50746000D03*
X31179500Y-49796000D03*
X31179500Y-51696000D03*
%TD*%
D20*
%TO.C,C4*%
X87154000Y-69040000D03*
X78454000Y-69040000D03*
%TD*%
D13*
%TO.C,R5*%
X124366000Y-93963000D03*
X119566000Y-93963000D03*
%TD*%
D21*
%TO.C,K6*%
X103966000Y-102363000D03*
X109966000Y-116563000D03*
X97966000Y-116563000D03*
X97966000Y-104363000D03*
X109966000Y-104363000D03*
%TD*%
D18*
%TO.C,Q4*%
X121559500Y-50946000D03*
X123434500Y-49996000D03*
X123434500Y-51896000D03*
%TD*%
D10*
%TO.C,D5*%
X122366000Y-98163000D03*
X120966000Y-98163000D03*
%TD*%
%TO.C,D2*%
X55742000Y-50146000D03*
X57142000Y-50146000D03*
%TD*%
D18*
%TO.C,Q2*%
X49804500Y-50846000D03*
X51679500Y-49896000D03*
X51679500Y-51796000D03*
%TD*%
D22*
%TO.C,A1*%
X99314000Y-85344000D03*
X142494000Y-65024000D03*
X99314000Y-65024000D03*
X142494000Y-85344000D03*
D23*
X103124000Y-86614000D03*
D24*
X105664000Y-86614000D03*
X108204000Y-86614000D03*
X110744000Y-86614000D03*
X113284000Y-86614000D03*
X115824000Y-86614000D03*
X118364000Y-86614000D03*
X120904000Y-86614000D03*
X123444000Y-86614000D03*
X125984000Y-86614000D03*
X128524000Y-86614000D03*
X131064000Y-86614000D03*
X133604000Y-86614000D03*
X136144000Y-86614000D03*
X138684000Y-86614000D03*
D23*
X103124000Y-63754000D03*
D24*
X105664000Y-63754000D03*
X108204000Y-63754000D03*
X110744000Y-63754000D03*
X113284000Y-63754000D03*
X115824000Y-63754000D03*
X118364000Y-63754000D03*
X120904000Y-63754000D03*
X123444000Y-63754000D03*
X125984000Y-63754000D03*
X128524000Y-63754000D03*
X131064000Y-63754000D03*
X133604000Y-63754000D03*
X136144000Y-63754000D03*
X138684000Y-63754000D03*
%TD*%
D10*
%TO.C,D1*%
X35142000Y-49946000D03*
X36542000Y-49946000D03*
%TD*%
D14*
%TO.C,J2*%
X88612000Y-31826000D03*
D15*
X93612000Y-31826000D03*
%TD*%
D19*
%TO.C,Q5*%
X128603500Y-97663000D03*
X126728500Y-98613000D03*
X126728500Y-96713000D03*
%TD*%
%TO.C,Q6*%
X110803500Y-97363000D03*
X108928500Y-98313000D03*
X108928500Y-96413000D03*
%TD*%
D21*
%TO.C,K3*%
X101622000Y-43896000D03*
X113622000Y-43896000D03*
X113622000Y-31696000D03*
X101622000Y-31696000D03*
X107622000Y-45896000D03*
%TD*%
D25*
%TO.C,J4*%
X137954000Y-108696000D03*
D26*
X137954000Y-106696000D03*
X139954000Y-108696000D03*
X139954000Y-106696000D03*
X141954000Y-108696000D03*
X141954000Y-106696000D03*
%TD*%
D13*
%TO.C,R4*%
X130497000Y-54646000D03*
X125697000Y-54646000D03*
%TD*%
%TO.C,R8*%
X38861000Y-92828000D03*
X34061000Y-92828000D03*
%TD*%
D14*
%TO.C,J6*%
X74128000Y-118415000D03*
D15*
X69128000Y-118415000D03*
%TD*%
D21*
%TO.C,K1*%
X30242000Y-43896000D03*
X42242000Y-43896000D03*
X42242000Y-31696000D03*
X30242000Y-31696000D03*
X36242000Y-45896000D03*
%TD*%
D10*
%TO.C,D8*%
X36561000Y-97028000D03*
X35161000Y-97028000D03*
%TD*%
D21*
%TO.C,K4*%
X122397000Y-43896000D03*
X134397000Y-43896000D03*
X134397000Y-31696000D03*
X122397000Y-31696000D03*
X128397000Y-45896000D03*
%TD*%
%TO.C,K8*%
X42261000Y-103678000D03*
X30261000Y-103678000D03*
X30261000Y-115878000D03*
X42261000Y-115878000D03*
X36261000Y-101678000D03*
%TD*%
D10*
%TO.C,D4*%
X127897000Y-50046000D03*
X129297000Y-50046000D03*
%TD*%
D16*
%TO.C,R1*%
X33342000Y-54346000D03*
X38142000Y-54346000D03*
%TD*%
%TO.C,R2*%
X53942000Y-54446000D03*
X58742000Y-54446000D03*
%TD*%
D17*
%TO.C,C2*%
X65089000Y-81187500D03*
X65089000Y-78062500D03*
%TD*%
D27*
%TO.C,C1*%
X57626000Y-69548000D03*
X66326000Y-69548000D03*
%TD*%
D21*
%TO.C,K2*%
X50642000Y-43896000D03*
X62642000Y-43896000D03*
X62642000Y-31696000D03*
X50642000Y-31696000D03*
X56642000Y-45896000D03*
%TD*%
D13*
%TO.C,R6*%
X106566000Y-93763000D03*
X101766000Y-93763000D03*
%TD*%
D14*
%TO.C,J5*%
X90776000Y-118623000D03*
D15*
X85776000Y-118623000D03*
%TD*%
D19*
%TO.C,Q8*%
X43098500Y-96528000D03*
X41223500Y-97478000D03*
X41223500Y-95578000D03*
%TD*%
D10*
%TO.C,D7*%
X56761000Y-96828000D03*
X55361000Y-96828000D03*
%TD*%
D21*
%TO.C,K7*%
X62261000Y-103878000D03*
X50261000Y-103878000D03*
X50261000Y-116078000D03*
X62261000Y-116078000D03*
X56261000Y-101878000D03*
%TD*%
D10*
%TO.C,D6*%
X104666000Y-98063000D03*
X103266000Y-98063000D03*
%TD*%
D21*
%TO.C,K5*%
X127666000Y-104513000D03*
X115666000Y-104513000D03*
X115666000Y-116713000D03*
X127666000Y-116713000D03*
X121666000Y-102513000D03*
%TD*%
M02*
