M48
; DRILL file {KiCad (6.0.7)} date Fri Jul 14 15:56:45 2023
; FORMAT={-:-/ absolute / inch / decimal}
; #@! TF.CreationDate,2023-07-14T15:56:45+03:30
; #@! TF.GenerationSoftware,Kicad,Pcbnew,(6.0.7)
; #@! TF.FileFunction,Plated,1,4,PTH
FMAT,2
INCH
; #@! TA.AperFunction,Plated,PTH,ViaDrill
T1C0.0157
; #@! TA.AperFunction,Plated,PTH,ComponentDrill
T2C0.0315
; #@! TA.AperFunction,Plated,PTH,ComponentDrill
T3C0.0350
; #@! TA.AperFunction,Plated,PTH,ComponentDrill
T4C0.0512
%
G90
G05
T1
X1.14Y-2.11
X1.82Y-3.8
X1.85Y-2.0
X2.45Y-2.63
X2.55Y-2.91
X2.55Y-2.97
X2.61Y-3.8
X2.78Y-2.7
X2.84Y-2.7
X2.91Y-2.7
X3.12Y-2.89
X3.13Y-2.97
X3.18Y-2.64
X3.86Y-1.98
X3.98Y-3.59
X4.47Y-3.83
X4.59Y-3.7
X4.67Y-2.02
X4.7Y-2.64
X5.0Y-3.3
X5.2Y-3.85
X5.3Y-4.32
X5.34Y-3.29
X5.38Y-2.63
T2
X5.4313Y-4.2006
X5.4313Y-4.2794
X5.51Y-4.2006
X5.51Y-4.2794
X5.5887Y-4.2006
X5.5887Y-4.2794
T3
X4.06Y-2.51
X4.06Y-3.41
X4.16Y-2.51
X4.16Y-3.41
X4.26Y-2.51
X4.26Y-3.41
X4.36Y-2.51
X4.36Y-3.41
X4.46Y-2.51
X4.46Y-3.41
X4.56Y-2.51
X4.56Y-3.41
X4.66Y-2.51
X4.66Y-3.41
X4.76Y-2.51
X4.76Y-3.41
X4.86Y-2.51
X4.86Y-3.41
X4.96Y-2.51
X4.96Y-3.41
X5.06Y-2.51
X5.06Y-3.41
X5.16Y-2.51
X5.16Y-3.41
X5.26Y-2.51
X5.26Y-3.41
X5.36Y-2.51
X5.36Y-3.41
X5.46Y-2.51
X5.46Y-3.41
T4
X1.1906Y-1.2479
X1.1906Y-1.7282
X1.1914Y-4.0818
X1.1914Y-4.5621
X1.268Y-2.6316
X1.268Y-2.8284
X1.4269Y-1.8069
X1.4276Y-4.0031
X1.6631Y-1.2479
X1.6631Y-1.7282
X1.6638Y-4.0818
X1.6638Y-4.5621
X1.9788Y-4.0897
X1.9788Y-4.57
X1.9938Y-1.2479
X1.9938Y-1.7282
X2.215Y-4.0109
X2.23Y-1.8069
X2.4512Y-4.0897
X2.4512Y-4.57
X2.4662Y-1.2479
X2.4662Y-1.7282
X2.7216Y-4.662
X2.7784Y-1.253
X2.9184Y-4.662
X2.9753Y-1.253
X3.377Y-4.6702
X3.4887Y-1.253
X3.5739Y-4.6702
X3.6855Y-1.253
X3.8569Y-4.1088
X3.8569Y-4.5891
X4.0009Y-1.2479
X4.0009Y-1.7282
X4.0931Y-4.03
X4.2371Y-1.8069
X4.3294Y-4.1088
X4.3294Y-4.5891
X4.4733Y-1.2479
X4.4733Y-1.7282
X4.5538Y-4.1147
X4.5538Y-4.595
X4.79Y-4.0359
X4.8188Y-1.2479
X4.8188Y-1.7282
X5.0262Y-4.1147
X5.0262Y-4.595
X5.055Y-1.8069
X5.2912Y-1.2479
X5.2912Y-1.7282
T0
M30
