%TF.GenerationSoftware,KiCad,Pcbnew,(6.0.7)*%
%TF.CreationDate,2023-07-14T15:56:38+03:30*%
%TF.ProjectId,Linak-controller,4c696e61-6b2d-4636-9f6e-74726f6c6c65,rev?*%
%TF.SameCoordinates,Original*%
%TF.FileFunction,Legend,Top*%
%TF.FilePolarity,Positive*%
%FSLAX46Y46*%
G04 Gerber Fmt 4.6, Leading zero omitted, Abs format (unit mm)*
G04 Created by KiCad (PCBNEW (6.0.7)) date 2023-07-14 15:56:38*
%MOMM*%
%LPD*%
G01*
G04 APERTURE LIST*
%ADD10C,0.150000*%
%ADD11C,0.120000*%
%ADD12C,0.127000*%
%ADD13C,0.200000*%
G04 APERTURE END LIST*
D10*
X90297000Y-44831000D02*
X91567000Y-41021000D01*
X73787000Y-44831000D02*
X90297000Y-44831000D01*
X136144000Y-101854000D02*
X136144000Y-112776000D01*
X143764000Y-101854000D02*
X136144000Y-101854000D01*
X136144000Y-112776000D02*
X143764000Y-112776000D01*
X143764000Y-112776000D02*
X143764000Y-112268000D01*
X88646000Y-106753000D02*
X72136000Y-106753000D01*
X89916000Y-110563000D02*
X88646000Y-106753000D01*
X143764000Y-112268000D02*
X143764000Y-101854000D01*
X72517000Y-41021000D02*
X73787000Y-44831000D01*
X143359142Y-60539238D02*
X143216285Y-60491619D01*
X142978190Y-60491619D01*
X142882952Y-60539238D01*
X142835333Y-60586857D01*
X142787714Y-60682095D01*
X142787714Y-60777333D01*
X142835333Y-60872571D01*
X142882952Y-60920190D01*
X142978190Y-60967809D01*
X143168666Y-61015428D01*
X143263904Y-61063047D01*
X143311523Y-61110666D01*
X143359142Y-61205904D01*
X143359142Y-61301142D01*
X143311523Y-61396380D01*
X143263904Y-61444000D01*
X143168666Y-61491619D01*
X142930571Y-61491619D01*
X142787714Y-61444000D01*
X142359142Y-60491619D02*
X142359142Y-61491619D01*
X141978190Y-61491619D01*
X141882952Y-61444000D01*
X141835333Y-61396380D01*
X141787714Y-61301142D01*
X141787714Y-61158285D01*
X141835333Y-61063047D01*
X141882952Y-61015428D01*
X141978190Y-60967809D01*
X142359142Y-60967809D01*
X141359142Y-60491619D02*
X141359142Y-61491619D01*
X139930571Y-61491619D02*
X139835333Y-61491619D01*
X139740095Y-61444000D01*
X139692476Y-61396380D01*
X139644857Y-61301142D01*
X139597238Y-61110666D01*
X139597238Y-60872571D01*
X139644857Y-60682095D01*
X139692476Y-60586857D01*
X139740095Y-60539238D01*
X139835333Y-60491619D01*
X139930571Y-60491619D01*
X140025809Y-60539238D01*
X140073428Y-60586857D01*
X140121047Y-60682095D01*
X140168666Y-60872571D01*
X140168666Y-61110666D01*
X140121047Y-61301142D01*
X140073428Y-61396380D01*
X140025809Y-61444000D01*
X139930571Y-61491619D01*
X138644857Y-60491619D02*
X139216285Y-60491619D01*
X138930571Y-60491619D02*
X138930571Y-61491619D01*
X139025809Y-61348761D01*
X139121047Y-61253523D01*
X139216285Y-61205904D01*
X43024619Y-62397714D02*
X43691285Y-62397714D01*
X43596047Y-62397714D02*
X43643666Y-62445333D01*
X43691285Y-62540571D01*
X43691285Y-62683428D01*
X43643666Y-62778666D01*
X43548428Y-62826285D01*
X43024619Y-62826285D01*
X43548428Y-62826285D02*
X43643666Y-62873904D01*
X43691285Y-62969142D01*
X43691285Y-63112000D01*
X43643666Y-63207238D01*
X43548428Y-63254857D01*
X43024619Y-63254857D01*
X43024619Y-63731047D02*
X43691285Y-63731047D01*
X44024619Y-63731047D02*
X43977000Y-63683428D01*
X43929380Y-63731047D01*
X43977000Y-63778666D01*
X44024619Y-63731047D01*
X43929380Y-63731047D01*
X43691285Y-64207238D02*
X43024619Y-64207238D01*
X43596047Y-64207238D02*
X43643666Y-64254857D01*
X43691285Y-64350095D01*
X43691285Y-64492952D01*
X43643666Y-64588190D01*
X43548428Y-64635809D01*
X43024619Y-64635809D01*
X43024619Y-65112000D02*
X43691285Y-65112000D01*
X44024619Y-65112000D02*
X43977000Y-65064380D01*
X43929380Y-65112000D01*
X43977000Y-65159619D01*
X44024619Y-65112000D01*
X43929380Y-65112000D01*
X43024619Y-65588190D02*
X43691285Y-65588190D01*
X43596047Y-65588190D02*
X43643666Y-65635809D01*
X43691285Y-65731047D01*
X43691285Y-65873904D01*
X43643666Y-65969142D01*
X43548428Y-66016761D01*
X43024619Y-66016761D01*
X43548428Y-66016761D02*
X43643666Y-66064380D01*
X43691285Y-66159619D01*
X43691285Y-66302476D01*
X43643666Y-66397714D01*
X43548428Y-66445333D01*
X43024619Y-66445333D01*
X43691285Y-67350095D02*
X43024619Y-67350095D01*
X43691285Y-66921523D02*
X43167476Y-66921523D01*
X43072238Y-66969142D01*
X43024619Y-67064380D01*
X43024619Y-67207238D01*
X43072238Y-67302476D01*
X43119857Y-67350095D01*
X43024619Y-67826285D02*
X43691285Y-67826285D01*
X43596047Y-67826285D02*
X43643666Y-67873904D01*
X43691285Y-67969142D01*
X43691285Y-68112000D01*
X43643666Y-68207238D01*
X43548428Y-68254857D01*
X43024619Y-68254857D01*
X43548428Y-68254857D02*
X43643666Y-68302476D01*
X43691285Y-68397714D01*
X43691285Y-68540571D01*
X43643666Y-68635809D01*
X43548428Y-68683428D01*
X43024619Y-68683428D01*
X43024619Y-69921523D02*
X43691285Y-69921523D01*
X43500809Y-69921523D02*
X43596047Y-69969142D01*
X43643666Y-70016761D01*
X43691285Y-70112000D01*
X43691285Y-70207238D01*
X43072238Y-70921523D02*
X43024619Y-70826285D01*
X43024619Y-70635809D01*
X43072238Y-70540571D01*
X43167476Y-70492952D01*
X43548428Y-70492952D01*
X43643666Y-70540571D01*
X43691285Y-70635809D01*
X43691285Y-70826285D01*
X43643666Y-70921523D01*
X43548428Y-70969142D01*
X43453190Y-70969142D01*
X43357952Y-70492952D01*
X43691285Y-71826285D02*
X42691285Y-71826285D01*
X43072238Y-71826285D02*
X43024619Y-71731047D01*
X43024619Y-71540571D01*
X43072238Y-71445333D01*
X43119857Y-71397714D01*
X43215095Y-71350095D01*
X43500809Y-71350095D01*
X43596047Y-71397714D01*
X43643666Y-71445333D01*
X43691285Y-71540571D01*
X43691285Y-71731047D01*
X43643666Y-71826285D01*
X43691285Y-72731047D02*
X43024619Y-72731047D01*
X43691285Y-72302476D02*
X43167476Y-72302476D01*
X43072238Y-72350095D01*
X43024619Y-72445333D01*
X43024619Y-72588190D01*
X43072238Y-72683428D01*
X43119857Y-72731047D01*
X43024619Y-73207238D02*
X43691285Y-73207238D01*
X44024619Y-73207238D02*
X43977000Y-73159619D01*
X43929380Y-73207238D01*
X43977000Y-73254857D01*
X44024619Y-73207238D01*
X43929380Y-73207238D01*
X43024619Y-73683428D02*
X43691285Y-73683428D01*
X43500809Y-73683428D02*
X43596047Y-73731047D01*
X43643666Y-73778666D01*
X43691285Y-73873904D01*
X43691285Y-73969142D01*
X43072238Y-74683428D02*
X43024619Y-74588190D01*
X43024619Y-74397714D01*
X43072238Y-74302476D01*
X43167476Y-74254857D01*
X43548428Y-74254857D01*
X43643666Y-74302476D01*
X43691285Y-74397714D01*
X43691285Y-74588190D01*
X43643666Y-74683428D01*
X43548428Y-74731047D01*
X43453190Y-74731047D01*
X43357952Y-74254857D01*
X43024619Y-75159619D02*
X43691285Y-75159619D01*
X43596047Y-75159619D02*
X43643666Y-75207238D01*
X43691285Y-75302476D01*
X43691285Y-75445333D01*
X43643666Y-75540571D01*
X43548428Y-75588190D01*
X43024619Y-75588190D01*
X43548428Y-75588190D02*
X43643666Y-75635809D01*
X43691285Y-75731047D01*
X43691285Y-75873904D01*
X43643666Y-75969142D01*
X43548428Y-76016761D01*
X43024619Y-76016761D01*
X43072238Y-76873904D02*
X43024619Y-76778666D01*
X43024619Y-76588190D01*
X43072238Y-76492952D01*
X43167476Y-76445333D01*
X43548428Y-76445333D01*
X43643666Y-76492952D01*
X43691285Y-76588190D01*
X43691285Y-76778666D01*
X43643666Y-76873904D01*
X43548428Y-76921523D01*
X43453190Y-76921523D01*
X43357952Y-76445333D01*
X43691285Y-77350095D02*
X43024619Y-77350095D01*
X43596047Y-77350095D02*
X43643666Y-77397714D01*
X43691285Y-77492952D01*
X43691285Y-77635809D01*
X43643666Y-77731047D01*
X43548428Y-77778666D01*
X43024619Y-77778666D01*
X43691285Y-78112000D02*
X43691285Y-78492952D01*
X44024619Y-78254857D02*
X43167476Y-78254857D01*
X43072238Y-78302476D01*
X43024619Y-78397714D01*
X43024619Y-78492952D01*
X43119857Y-78826285D02*
X43072238Y-78873904D01*
X43024619Y-78826285D01*
X43072238Y-78778666D01*
X43119857Y-78826285D01*
X43024619Y-78826285D01*
X43643666Y-78826285D02*
X43596047Y-78873904D01*
X43548428Y-78826285D01*
X43596047Y-78778666D01*
X43643666Y-78826285D01*
X43548428Y-78826285D01*
X42081285Y-63564380D02*
X41414619Y-63564380D01*
X42462238Y-63326285D02*
X41747952Y-63088190D01*
X41747952Y-63707238D01*
X41986047Y-64231047D02*
X42033666Y-64135809D01*
X42081285Y-64088190D01*
X42176523Y-64040571D01*
X42224142Y-64040571D01*
X42319380Y-64088190D01*
X42367000Y-64135809D01*
X42414619Y-64231047D01*
X42414619Y-64421523D01*
X42367000Y-64516761D01*
X42319380Y-64564380D01*
X42224142Y-64612000D01*
X42176523Y-64612000D01*
X42081285Y-64564380D01*
X42033666Y-64516761D01*
X41986047Y-64421523D01*
X41986047Y-64231047D01*
X41938428Y-64135809D01*
X41890809Y-64088190D01*
X41795571Y-64040571D01*
X41605095Y-64040571D01*
X41509857Y-64088190D01*
X41462238Y-64135809D01*
X41414619Y-64231047D01*
X41414619Y-64421523D01*
X41462238Y-64516761D01*
X41509857Y-64564380D01*
X41605095Y-64612000D01*
X41795571Y-64612000D01*
X41890809Y-64564380D01*
X41938428Y-64516761D01*
X41986047Y-64421523D01*
X42414619Y-65231047D02*
X42414619Y-65326285D01*
X42367000Y-65421523D01*
X42319380Y-65469142D01*
X42224142Y-65516761D01*
X42033666Y-65564380D01*
X41795571Y-65564380D01*
X41605095Y-65516761D01*
X41509857Y-65469142D01*
X41462238Y-65421523D01*
X41414619Y-65326285D01*
X41414619Y-65231047D01*
X41462238Y-65135809D01*
X41509857Y-65088190D01*
X41605095Y-65040571D01*
X41795571Y-64992952D01*
X42033666Y-64992952D01*
X42224142Y-65040571D01*
X42319380Y-65088190D01*
X42367000Y-65135809D01*
X42414619Y-65231047D01*
X42414619Y-65897714D02*
X41414619Y-66135809D01*
X42128904Y-66326285D01*
X41414619Y-66516761D01*
X42414619Y-66754857D01*
X41033666Y-68183428D02*
X41081285Y-68135809D01*
X41224142Y-68040571D01*
X41319380Y-67992952D01*
X41462238Y-67945333D01*
X41700333Y-67897714D01*
X41890809Y-67897714D01*
X42128904Y-67945333D01*
X42271761Y-67992952D01*
X42367000Y-68040571D01*
X42509857Y-68135809D01*
X42557476Y-68183428D01*
X42319380Y-68516761D02*
X42367000Y-68564380D01*
X42414619Y-68659619D01*
X42414619Y-68897714D01*
X42367000Y-68992952D01*
X42319380Y-69040571D01*
X42224142Y-69088190D01*
X42128904Y-69088190D01*
X41986047Y-69040571D01*
X41414619Y-68469142D01*
X41414619Y-69088190D01*
X42081285Y-69945333D02*
X41414619Y-69945333D01*
X42462238Y-69707238D02*
X41747952Y-69469142D01*
X41747952Y-70088190D01*
X42414619Y-70326285D02*
X41414619Y-70659619D01*
X42414619Y-70992952D01*
X42462238Y-72040571D02*
X41176523Y-71183428D01*
X42319380Y-72326285D02*
X42367000Y-72373904D01*
X42414619Y-72469142D01*
X42414619Y-72707238D01*
X42367000Y-72802476D01*
X42319380Y-72850095D01*
X42224142Y-72897714D01*
X42128904Y-72897714D01*
X41986047Y-72850095D01*
X41414619Y-72278666D01*
X41414619Y-72897714D01*
X42414619Y-73516761D02*
X42414619Y-73612000D01*
X42367000Y-73707238D01*
X42319380Y-73754857D01*
X42224142Y-73802476D01*
X42033666Y-73850095D01*
X41795571Y-73850095D01*
X41605095Y-73802476D01*
X41509857Y-73754857D01*
X41462238Y-73707238D01*
X41414619Y-73612000D01*
X41414619Y-73516761D01*
X41462238Y-73421523D01*
X41509857Y-73373904D01*
X41605095Y-73326285D01*
X41795571Y-73278666D01*
X42033666Y-73278666D01*
X42224142Y-73326285D01*
X42319380Y-73373904D01*
X42367000Y-73421523D01*
X42414619Y-73516761D01*
X41700333Y-74231047D02*
X41700333Y-74707238D01*
X41414619Y-74135809D02*
X42414619Y-74469142D01*
X41414619Y-74802476D01*
X41033666Y-75040571D02*
X41081285Y-75088190D01*
X41224142Y-75183428D01*
X41319380Y-75231047D01*
X41462238Y-75278666D01*
X41700333Y-75326285D01*
X41890809Y-75326285D01*
X42128904Y-75278666D01*
X42271761Y-75231047D01*
X42367000Y-75183428D01*
X42509857Y-75088190D01*
X42557476Y-75040571D01*
X41414619Y-76564380D02*
X42414619Y-76564380D01*
X42414619Y-76802476D01*
X42367000Y-76945333D01*
X42271761Y-77040571D01*
X42176523Y-77088190D01*
X41986047Y-77135809D01*
X41843190Y-77135809D01*
X41652714Y-77088190D01*
X41557476Y-77040571D01*
X41462238Y-76945333D01*
X41414619Y-76802476D01*
X41414619Y-76564380D01*
X41509857Y-78135809D02*
X41462238Y-78088190D01*
X41414619Y-77945333D01*
X41414619Y-77850095D01*
X41462238Y-77707238D01*
X41557476Y-77612000D01*
X41652714Y-77564380D01*
X41843190Y-77516761D01*
X41986047Y-77516761D01*
X42176523Y-77564380D01*
X42271761Y-77612000D01*
X42367000Y-77707238D01*
X42414619Y-77850095D01*
X42414619Y-77945333D01*
X42367000Y-78088190D01*
X42319380Y-78135809D01*
X142347761Y-112315523D02*
X142395380Y-112172666D01*
X142395380Y-111934571D01*
X142347761Y-111839333D01*
X142300142Y-111791714D01*
X142204904Y-111744095D01*
X142109666Y-111744095D01*
X142014428Y-111791714D01*
X141966809Y-111839333D01*
X141919190Y-111934571D01*
X141871571Y-112125047D01*
X141823952Y-112220285D01*
X141776333Y-112267904D01*
X141681095Y-112315523D01*
X141585857Y-112315523D01*
X141490619Y-112267904D01*
X141443000Y-112220285D01*
X141395380Y-112125047D01*
X141395380Y-111886952D01*
X141443000Y-111744095D01*
X141395380Y-111125047D02*
X141395380Y-110934571D01*
X141443000Y-110839333D01*
X141538238Y-110744095D01*
X141728714Y-110696476D01*
X142062047Y-110696476D01*
X142252523Y-110744095D01*
X142347761Y-110839333D01*
X142395380Y-110934571D01*
X142395380Y-111125047D01*
X142347761Y-111220285D01*
X142252523Y-111315523D01*
X142062047Y-111363142D01*
X141728714Y-111363142D01*
X141538238Y-111315523D01*
X141443000Y-111220285D01*
X141395380Y-111125047D01*
X87391000Y-104395619D02*
X87391000Y-105395619D01*
X87057666Y-104681333D01*
X86724333Y-105395619D01*
X86724333Y-104395619D01*
X86105285Y-104395619D02*
X86200523Y-104443238D01*
X86248142Y-104490857D01*
X86295761Y-104586095D01*
X86295761Y-104871809D01*
X86248142Y-104967047D01*
X86200523Y-105014666D01*
X86105285Y-105062285D01*
X85962428Y-105062285D01*
X85867190Y-105014666D01*
X85819571Y-104967047D01*
X85771952Y-104871809D01*
X85771952Y-104586095D01*
X85819571Y-104490857D01*
X85867190Y-104443238D01*
X85962428Y-104395619D01*
X86105285Y-104395619D01*
X85486238Y-105062285D02*
X85105285Y-105062285D01*
X85343380Y-105395619D02*
X85343380Y-104538476D01*
X85295761Y-104443238D01*
X85200523Y-104395619D01*
X85105285Y-104395619D01*
X84629095Y-104395619D02*
X84724333Y-104443238D01*
X84771952Y-104490857D01*
X84819571Y-104586095D01*
X84819571Y-104871809D01*
X84771952Y-104967047D01*
X84724333Y-105014666D01*
X84629095Y-105062285D01*
X84486238Y-105062285D01*
X84391000Y-105014666D01*
X84343380Y-104967047D01*
X84295761Y-104871809D01*
X84295761Y-104586095D01*
X84343380Y-104490857D01*
X84391000Y-104443238D01*
X84486238Y-104395619D01*
X84629095Y-104395619D01*
X83867190Y-104395619D02*
X83867190Y-105062285D01*
X83867190Y-104871809D02*
X83819571Y-104967047D01*
X83771952Y-105014666D01*
X83676714Y-105062285D01*
X83581476Y-105062285D01*
X82581476Y-105395619D02*
X81962428Y-105395619D01*
X82295761Y-105014666D01*
X82152904Y-105014666D01*
X82057666Y-104967047D01*
X82010047Y-104919428D01*
X81962428Y-104824190D01*
X81962428Y-104586095D01*
X82010047Y-104490857D01*
X82057666Y-104443238D01*
X82152904Y-104395619D01*
X82438619Y-104395619D01*
X82533857Y-104443238D01*
X82581476Y-104490857D01*
X80771952Y-104776571D02*
X80010047Y-104776571D01*
X80391000Y-104395619D02*
X80391000Y-105157523D01*
X78771952Y-104395619D02*
X78771952Y-105395619D01*
X78438619Y-104681333D01*
X78105285Y-105395619D01*
X78105285Y-104395619D01*
X77486238Y-104395619D02*
X77581476Y-104443238D01*
X77629095Y-104490857D01*
X77676714Y-104586095D01*
X77676714Y-104871809D01*
X77629095Y-104967047D01*
X77581476Y-105014666D01*
X77486238Y-105062285D01*
X77343380Y-105062285D01*
X77248142Y-105014666D01*
X77200523Y-104967047D01*
X77152904Y-104871809D01*
X77152904Y-104586095D01*
X77200523Y-104490857D01*
X77248142Y-104443238D01*
X77343380Y-104395619D01*
X77486238Y-104395619D01*
X76867190Y-105062285D02*
X76486238Y-105062285D01*
X76724333Y-105395619D02*
X76724333Y-104538476D01*
X76676714Y-104443238D01*
X76581476Y-104395619D01*
X76486238Y-104395619D01*
X76010047Y-104395619D02*
X76105285Y-104443238D01*
X76152904Y-104490857D01*
X76200523Y-104586095D01*
X76200523Y-104871809D01*
X76152904Y-104967047D01*
X76105285Y-105014666D01*
X76010047Y-105062285D01*
X75867190Y-105062285D01*
X75771952Y-105014666D01*
X75724333Y-104967047D01*
X75676714Y-104871809D01*
X75676714Y-104586095D01*
X75724333Y-104490857D01*
X75771952Y-104443238D01*
X75867190Y-104395619D01*
X76010047Y-104395619D01*
X75248142Y-104395619D02*
X75248142Y-105062285D01*
X75248142Y-104871809D02*
X75200523Y-104967047D01*
X75152904Y-105014666D01*
X75057666Y-105062285D01*
X74962428Y-105062285D01*
X73438619Y-105062285D02*
X73438619Y-104395619D01*
X73676714Y-105443238D02*
X73914809Y-104728952D01*
X73295761Y-104728952D01*
X140358761Y-104409809D02*
X140406380Y-104266952D01*
X140406380Y-104028857D01*
X140358761Y-103933619D01*
X140311142Y-103886000D01*
X140215904Y-103838380D01*
X140120666Y-103838380D01*
X140025428Y-103886000D01*
X139977809Y-103933619D01*
X139930190Y-104028857D01*
X139882571Y-104219333D01*
X139834952Y-104314571D01*
X139787333Y-104362190D01*
X139692095Y-104409809D01*
X139596857Y-104409809D01*
X139501619Y-104362190D01*
X139454000Y-104314571D01*
X139406380Y-104219333D01*
X139406380Y-103981238D01*
X139454000Y-103838380D01*
X140406380Y-103409809D02*
X139406380Y-103409809D01*
X137422000Y-104139904D02*
X137374380Y-104235142D01*
X137374380Y-104378000D01*
X137422000Y-104520857D01*
X137517238Y-104616095D01*
X137612476Y-104663714D01*
X137802952Y-104711333D01*
X137945809Y-104711333D01*
X138136285Y-104663714D01*
X138231523Y-104616095D01*
X138326761Y-104520857D01*
X138374380Y-104378000D01*
X138374380Y-104282761D01*
X138326761Y-104139904D01*
X138279142Y-104092285D01*
X137945809Y-104092285D01*
X137945809Y-104282761D01*
X138374380Y-103663714D02*
X137374380Y-103663714D01*
X138374380Y-103092285D01*
X137374380Y-103092285D01*
X138374380Y-102616095D02*
X137374380Y-102616095D01*
X137374380Y-102378000D01*
X137422000Y-102235142D01*
X137517238Y-102139904D01*
X137612476Y-102092285D01*
X137802952Y-102044666D01*
X137945809Y-102044666D01*
X138136285Y-102092285D01*
X138231523Y-102139904D01*
X138326761Y-102235142D01*
X138374380Y-102378000D01*
X138374380Y-102616095D01*
X75042000Y-47188380D02*
X75042000Y-46188380D01*
X75375333Y-46902666D01*
X75708666Y-46188380D01*
X75708666Y-47188380D01*
X76327714Y-47188380D02*
X76232476Y-47140761D01*
X76184857Y-47093142D01*
X76137238Y-46997904D01*
X76137238Y-46712190D01*
X76184857Y-46616952D01*
X76232476Y-46569333D01*
X76327714Y-46521714D01*
X76470571Y-46521714D01*
X76565809Y-46569333D01*
X76613428Y-46616952D01*
X76661047Y-46712190D01*
X76661047Y-46997904D01*
X76613428Y-47093142D01*
X76565809Y-47140761D01*
X76470571Y-47188380D01*
X76327714Y-47188380D01*
X76946761Y-46521714D02*
X77327714Y-46521714D01*
X77089619Y-46188380D02*
X77089619Y-47045523D01*
X77137238Y-47140761D01*
X77232476Y-47188380D01*
X77327714Y-47188380D01*
X77803904Y-47188380D02*
X77708666Y-47140761D01*
X77661047Y-47093142D01*
X77613428Y-46997904D01*
X77613428Y-46712190D01*
X77661047Y-46616952D01*
X77708666Y-46569333D01*
X77803904Y-46521714D01*
X77946761Y-46521714D01*
X78042000Y-46569333D01*
X78089619Y-46616952D01*
X78137238Y-46712190D01*
X78137238Y-46997904D01*
X78089619Y-47093142D01*
X78042000Y-47140761D01*
X77946761Y-47188380D01*
X77803904Y-47188380D01*
X78565809Y-47188380D02*
X78565809Y-46521714D01*
X78565809Y-46712190D02*
X78613428Y-46616952D01*
X78661047Y-46569333D01*
X78756285Y-46521714D01*
X78851523Y-46521714D01*
X80470571Y-47188380D02*
X79899142Y-47188380D01*
X80184857Y-47188380D02*
X80184857Y-46188380D01*
X80089619Y-46331238D01*
X79994380Y-46426476D01*
X79899142Y-46474095D01*
X81661047Y-46807428D02*
X82422952Y-46807428D01*
X82042000Y-47188380D02*
X82042000Y-46426476D01*
X83661047Y-47188380D02*
X83661047Y-46188380D01*
X83994380Y-46902666D01*
X84327714Y-46188380D01*
X84327714Y-47188380D01*
X84946761Y-47188380D02*
X84851523Y-47140761D01*
X84803904Y-47093142D01*
X84756285Y-46997904D01*
X84756285Y-46712190D01*
X84803904Y-46616952D01*
X84851523Y-46569333D01*
X84946761Y-46521714D01*
X85089619Y-46521714D01*
X85184857Y-46569333D01*
X85232476Y-46616952D01*
X85280095Y-46712190D01*
X85280095Y-46997904D01*
X85232476Y-47093142D01*
X85184857Y-47140761D01*
X85089619Y-47188380D01*
X84946761Y-47188380D01*
X85565809Y-46521714D02*
X85946761Y-46521714D01*
X85708666Y-46188380D02*
X85708666Y-47045523D01*
X85756285Y-47140761D01*
X85851523Y-47188380D01*
X85946761Y-47188380D01*
X86422952Y-47188380D02*
X86327714Y-47140761D01*
X86280095Y-47093142D01*
X86232476Y-46997904D01*
X86232476Y-46712190D01*
X86280095Y-46616952D01*
X86327714Y-46569333D01*
X86422952Y-46521714D01*
X86565809Y-46521714D01*
X86661047Y-46569333D01*
X86708666Y-46616952D01*
X86756285Y-46712190D01*
X86756285Y-46997904D01*
X86708666Y-47093142D01*
X86661047Y-47140761D01*
X86565809Y-47188380D01*
X86422952Y-47188380D01*
X87184857Y-47188380D02*
X87184857Y-46521714D01*
X87184857Y-46712190D02*
X87232476Y-46616952D01*
X87280095Y-46569333D01*
X87375333Y-46521714D01*
X87470571Y-46521714D01*
X88518190Y-46283619D02*
X88565809Y-46236000D01*
X88661047Y-46188380D01*
X88899142Y-46188380D01*
X88994380Y-46236000D01*
X89042000Y-46283619D01*
X89089619Y-46378857D01*
X89089619Y-46474095D01*
X89042000Y-46616952D01*
X88470571Y-47188380D01*
X89089619Y-47188380D01*
X142597142Y-104227238D02*
X142644761Y-104274857D01*
X142692380Y-104417714D01*
X142692380Y-104512952D01*
X142644761Y-104655809D01*
X142549523Y-104751047D01*
X142454285Y-104798666D01*
X142263809Y-104846285D01*
X142120952Y-104846285D01*
X141930476Y-104798666D01*
X141835238Y-104751047D01*
X141740000Y-104655809D01*
X141692380Y-104512952D01*
X141692380Y-104417714D01*
X141740000Y-104274857D01*
X141787619Y-104227238D01*
X142692380Y-103322476D02*
X142692380Y-103798666D01*
X141692380Y-103798666D01*
X142692380Y-102989142D02*
X141692380Y-102989142D01*
X142692380Y-102417714D02*
X142120952Y-102846285D01*
X141692380Y-102417714D02*
X142263809Y-102989142D01*
X137374380Y-111696476D02*
X137374380Y-112172666D01*
X137850571Y-112220285D01*
X137802952Y-112172666D01*
X137755333Y-112077428D01*
X137755333Y-111839333D01*
X137802952Y-111744095D01*
X137850571Y-111696476D01*
X137945809Y-111648857D01*
X138183904Y-111648857D01*
X138279142Y-111696476D01*
X138326761Y-111744095D01*
X138374380Y-111839333D01*
X138374380Y-112077428D01*
X138326761Y-112172666D01*
X138279142Y-112220285D01*
X137374380Y-111363142D02*
X138374380Y-111029809D01*
X137374380Y-110696476D01*
X45577238Y-60437333D02*
X47577238Y-60437333D01*
X47577238Y-61199238D01*
X47482000Y-61389714D01*
X47386761Y-61484952D01*
X47196285Y-61580190D01*
X46910571Y-61580190D01*
X46720095Y-61484952D01*
X46624857Y-61389714D01*
X46529619Y-61199238D01*
X46529619Y-60437333D01*
X45577238Y-62723047D02*
X45672476Y-62532571D01*
X45767714Y-62437333D01*
X45958190Y-62342095D01*
X46529619Y-62342095D01*
X46720095Y-62437333D01*
X46815333Y-62532571D01*
X46910571Y-62723047D01*
X46910571Y-63008761D01*
X46815333Y-63199238D01*
X46720095Y-63294476D01*
X46529619Y-63389714D01*
X45958190Y-63389714D01*
X45767714Y-63294476D01*
X45672476Y-63199238D01*
X45577238Y-63008761D01*
X45577238Y-62723047D01*
X46910571Y-64056380D02*
X45577238Y-64437333D01*
X46529619Y-64818285D01*
X45577238Y-65199238D01*
X46910571Y-65580190D01*
X45672476Y-67104000D02*
X45577238Y-66913523D01*
X45577238Y-66532571D01*
X45672476Y-66342095D01*
X45862952Y-66246857D01*
X46624857Y-66246857D01*
X46815333Y-66342095D01*
X46910571Y-66532571D01*
X46910571Y-66913523D01*
X46815333Y-67104000D01*
X46624857Y-67199238D01*
X46434380Y-67199238D01*
X46243904Y-66246857D01*
X45577238Y-68056380D02*
X46910571Y-68056380D01*
X46529619Y-68056380D02*
X46720095Y-68151619D01*
X46815333Y-68246857D01*
X46910571Y-68437333D01*
X46910571Y-68627809D01*
X45672476Y-70723047D02*
X45577238Y-71008761D01*
X45577238Y-71484952D01*
X45672476Y-71675428D01*
X45767714Y-71770666D01*
X45958190Y-71865904D01*
X46148666Y-71865904D01*
X46339142Y-71770666D01*
X46434380Y-71675428D01*
X46529619Y-71484952D01*
X46624857Y-71104000D01*
X46720095Y-70913523D01*
X46815333Y-70818285D01*
X47005809Y-70723047D01*
X47196285Y-70723047D01*
X47386761Y-70818285D01*
X47482000Y-70913523D01*
X47577238Y-71104000D01*
X47577238Y-71580190D01*
X47482000Y-71865904D01*
X46910571Y-73580190D02*
X45577238Y-73580190D01*
X46910571Y-72723047D02*
X45862952Y-72723047D01*
X45672476Y-72818285D01*
X45577238Y-73008761D01*
X45577238Y-73294476D01*
X45672476Y-73484952D01*
X45767714Y-73580190D01*
X46910571Y-74532571D02*
X44910571Y-74532571D01*
X46815333Y-74532571D02*
X46910571Y-74723047D01*
X46910571Y-75104000D01*
X46815333Y-75294476D01*
X46720095Y-75389714D01*
X46529619Y-75484952D01*
X45958190Y-75484952D01*
X45767714Y-75389714D01*
X45672476Y-75294476D01*
X45577238Y-75104000D01*
X45577238Y-74723047D01*
X45672476Y-74532571D01*
X46910571Y-76342095D02*
X44910571Y-76342095D01*
X46815333Y-76342095D02*
X46910571Y-76532571D01*
X46910571Y-76913523D01*
X46815333Y-77104000D01*
X46720095Y-77199238D01*
X46529619Y-77294476D01*
X45958190Y-77294476D01*
X45767714Y-77199238D01*
X45672476Y-77104000D01*
X45577238Y-76913523D01*
X45577238Y-76532571D01*
X45672476Y-76342095D01*
X45577238Y-78437333D02*
X45672476Y-78246857D01*
X45862952Y-78151619D01*
X47577238Y-78151619D01*
X46910571Y-79008761D02*
X45577238Y-79484952D01*
X46910571Y-79961142D02*
X45577238Y-79484952D01*
X45101047Y-79294476D01*
X45005809Y-79199238D01*
X44910571Y-79008761D01*
X140311142Y-111672666D02*
X140358761Y-111720285D01*
X140406380Y-111863142D01*
X140406380Y-111958380D01*
X140358761Y-112101238D01*
X140263523Y-112196476D01*
X140168285Y-112244095D01*
X139977809Y-112291714D01*
X139834952Y-112291714D01*
X139644476Y-112244095D01*
X139549238Y-112196476D01*
X139454000Y-112101238D01*
X139406380Y-111958380D01*
X139406380Y-111863142D01*
X139454000Y-111720285D01*
X139501619Y-111672666D01*
X140358761Y-111291714D02*
X140406380Y-111148857D01*
X140406380Y-110910761D01*
X140358761Y-110815523D01*
X140311142Y-110767904D01*
X140215904Y-110720285D01*
X140120666Y-110720285D01*
X140025428Y-110767904D01*
X139977809Y-110815523D01*
X139930190Y-110910761D01*
X139882571Y-111101238D01*
X139834952Y-111196476D01*
X139787333Y-111244095D01*
X139692095Y-111291714D01*
X139596857Y-111291714D01*
X139501619Y-111244095D01*
X139454000Y-111196476D01*
X139406380Y-111101238D01*
X139406380Y-110863142D01*
X139454000Y-110720285D01*
%TO.C,D3*%
X106883904Y-52649380D02*
X106883904Y-51649380D01*
X107122000Y-51649380D01*
X107264857Y-51697000D01*
X107360095Y-51792238D01*
X107407714Y-51887476D01*
X107455333Y-52077952D01*
X107455333Y-52220809D01*
X107407714Y-52411285D01*
X107360095Y-52506523D01*
X107264857Y-52601761D01*
X107122000Y-52649380D01*
X106883904Y-52649380D01*
X107788666Y-51649380D02*
X108407714Y-51649380D01*
X108074380Y-52030333D01*
X108217238Y-52030333D01*
X108312476Y-52077952D01*
X108360095Y-52125571D01*
X108407714Y-52220809D01*
X108407714Y-52458904D01*
X108360095Y-52554142D01*
X108312476Y-52601761D01*
X108217238Y-52649380D01*
X107931523Y-52649380D01*
X107836285Y-52601761D01*
X107788666Y-52554142D01*
%TO.C,U1*%
X67341380Y-77386904D02*
X68150904Y-77386904D01*
X68246142Y-77339285D01*
X68293761Y-77291666D01*
X68341380Y-77196428D01*
X68341380Y-77005952D01*
X68293761Y-76910714D01*
X68246142Y-76863095D01*
X68150904Y-76815476D01*
X67341380Y-76815476D01*
X68341380Y-75815476D02*
X68341380Y-76386904D01*
X68341380Y-76101190D02*
X67341380Y-76101190D01*
X67484238Y-76196428D01*
X67579476Y-76291666D01*
X67627095Y-76386904D01*
%TO.C,R7*%
X56194333Y-90700380D02*
X55861000Y-90224190D01*
X55622904Y-90700380D02*
X55622904Y-89700380D01*
X56003857Y-89700380D01*
X56099095Y-89748000D01*
X56146714Y-89795619D01*
X56194333Y-89890857D01*
X56194333Y-90033714D01*
X56146714Y-90128952D01*
X56099095Y-90176571D01*
X56003857Y-90224190D01*
X55622904Y-90224190D01*
X56527666Y-89700380D02*
X57194333Y-89700380D01*
X56765761Y-90700380D01*
%TO.C,J1*%
X72738666Y-37538380D02*
X72738666Y-38252666D01*
X72691047Y-38395523D01*
X72595809Y-38490761D01*
X72452952Y-38538380D01*
X72357714Y-38538380D01*
X73738666Y-38538380D02*
X73167238Y-38538380D01*
X73452952Y-38538380D02*
X73452952Y-37538380D01*
X73357714Y-37681238D01*
X73262476Y-37776476D01*
X73167238Y-37824095D01*
%TO.C,R3*%
X107255333Y-57729380D02*
X106922000Y-57253190D01*
X106683904Y-57729380D02*
X106683904Y-56729380D01*
X107064857Y-56729380D01*
X107160095Y-56777000D01*
X107207714Y-56824619D01*
X107255333Y-56919857D01*
X107255333Y-57062714D01*
X107207714Y-57157952D01*
X107160095Y-57205571D01*
X107064857Y-57253190D01*
X106683904Y-57253190D01*
X107588666Y-56729380D02*
X108207714Y-56729380D01*
X107874380Y-57110333D01*
X108017238Y-57110333D01*
X108112476Y-57157952D01*
X108160095Y-57205571D01*
X108207714Y-57300809D01*
X108207714Y-57538904D01*
X108160095Y-57634142D01*
X108112476Y-57681761D01*
X108017238Y-57729380D01*
X107731523Y-57729380D01*
X107636285Y-57681761D01*
X107588666Y-57634142D01*
%TO.C,C3*%
X77846142Y-79791666D02*
X77893761Y-79839285D01*
X77941380Y-79982142D01*
X77941380Y-80077380D01*
X77893761Y-80220238D01*
X77798523Y-80315476D01*
X77703285Y-80363095D01*
X77512809Y-80410714D01*
X77369952Y-80410714D01*
X77179476Y-80363095D01*
X77084238Y-80315476D01*
X76989000Y-80220238D01*
X76941380Y-80077380D01*
X76941380Y-79982142D01*
X76989000Y-79839285D01*
X77036619Y-79791666D01*
X76941380Y-79458333D02*
X76941380Y-78839285D01*
X77322333Y-79172619D01*
X77322333Y-79029761D01*
X77369952Y-78934523D01*
X77417571Y-78886904D01*
X77512809Y-78839285D01*
X77750904Y-78839285D01*
X77846142Y-78886904D01*
X77893761Y-78934523D01*
X77941380Y-79029761D01*
X77941380Y-79315476D01*
X77893761Y-79410714D01*
X77846142Y-79458333D01*
%TO.C,J7*%
X37919380Y-69675333D02*
X38633666Y-69675333D01*
X38776523Y-69722952D01*
X38871761Y-69818190D01*
X38919380Y-69961047D01*
X38919380Y-70056285D01*
X37919380Y-69294380D02*
X37919380Y-68627714D01*
X38919380Y-69056285D01*
%TO.C,Q3*%
X101626761Y-53893619D02*
X101531523Y-53846000D01*
X101436285Y-53750761D01*
X101293428Y-53607904D01*
X101198190Y-53560285D01*
X101102952Y-53560285D01*
X101150571Y-53798380D02*
X101055333Y-53750761D01*
X100960095Y-53655523D01*
X100912476Y-53465047D01*
X100912476Y-53131714D01*
X100960095Y-52941238D01*
X101055333Y-52846000D01*
X101150571Y-52798380D01*
X101341047Y-52798380D01*
X101436285Y-52846000D01*
X101531523Y-52941238D01*
X101579142Y-53131714D01*
X101579142Y-53465047D01*
X101531523Y-53655523D01*
X101436285Y-53750761D01*
X101341047Y-53798380D01*
X101150571Y-53798380D01*
X101912476Y-52798380D02*
X102531523Y-52798380D01*
X102198190Y-53179333D01*
X102341047Y-53179333D01*
X102436285Y-53226952D01*
X102483904Y-53274571D01*
X102531523Y-53369809D01*
X102531523Y-53607904D01*
X102483904Y-53703142D01*
X102436285Y-53750761D01*
X102341047Y-53798380D01*
X102055333Y-53798380D01*
X101960095Y-53750761D01*
X101912476Y-53703142D01*
%TO.C,Q7*%
X62165761Y-94675619D02*
X62070523Y-94628000D01*
X61975285Y-94532761D01*
X61832428Y-94389904D01*
X61737190Y-94342285D01*
X61641952Y-94342285D01*
X61689571Y-94580380D02*
X61594333Y-94532761D01*
X61499095Y-94437523D01*
X61451476Y-94247047D01*
X61451476Y-93913714D01*
X61499095Y-93723238D01*
X61594333Y-93628000D01*
X61689571Y-93580380D01*
X61880047Y-93580380D01*
X61975285Y-93628000D01*
X62070523Y-93723238D01*
X62118142Y-93913714D01*
X62118142Y-94247047D01*
X62070523Y-94437523D01*
X61975285Y-94532761D01*
X61880047Y-94580380D01*
X61689571Y-94580380D01*
X62451476Y-93580380D02*
X63118142Y-93580380D01*
X62689571Y-94580380D01*
%TO.C,Q1*%
X30146761Y-53693619D02*
X30051523Y-53646000D01*
X29956285Y-53550761D01*
X29813428Y-53407904D01*
X29718190Y-53360285D01*
X29622952Y-53360285D01*
X29670571Y-53598380D02*
X29575333Y-53550761D01*
X29480095Y-53455523D01*
X29432476Y-53265047D01*
X29432476Y-52931714D01*
X29480095Y-52741238D01*
X29575333Y-52646000D01*
X29670571Y-52598380D01*
X29861047Y-52598380D01*
X29956285Y-52646000D01*
X30051523Y-52741238D01*
X30099142Y-52931714D01*
X30099142Y-53265047D01*
X30051523Y-53455523D01*
X29956285Y-53550761D01*
X29861047Y-53598380D01*
X29670571Y-53598380D01*
X31051523Y-53598380D02*
X30480095Y-53598380D01*
X30765809Y-53598380D02*
X30765809Y-52598380D01*
X30670571Y-52741238D01*
X30575333Y-52836476D01*
X30480095Y-52884095D01*
%TO.C,C4*%
X82637333Y-75597142D02*
X82589714Y-75644761D01*
X82446857Y-75692380D01*
X82351619Y-75692380D01*
X82208761Y-75644761D01*
X82113523Y-75549523D01*
X82065904Y-75454285D01*
X82018285Y-75263809D01*
X82018285Y-75120952D01*
X82065904Y-74930476D01*
X82113523Y-74835238D01*
X82208761Y-74740000D01*
X82351619Y-74692380D01*
X82446857Y-74692380D01*
X82589714Y-74740000D01*
X82637333Y-74787619D01*
X83494476Y-75025714D02*
X83494476Y-75692380D01*
X83256380Y-74644761D02*
X83018285Y-75359047D01*
X83637333Y-75359047D01*
%TO.C,R5*%
X121799333Y-92135380D02*
X121466000Y-91659190D01*
X121227904Y-92135380D02*
X121227904Y-91135380D01*
X121608857Y-91135380D01*
X121704095Y-91183000D01*
X121751714Y-91230619D01*
X121799333Y-91325857D01*
X121799333Y-91468714D01*
X121751714Y-91563952D01*
X121704095Y-91611571D01*
X121608857Y-91659190D01*
X121227904Y-91659190D01*
X122704095Y-91135380D02*
X122227904Y-91135380D01*
X122180285Y-91611571D01*
X122227904Y-91563952D01*
X122323142Y-91516333D01*
X122561238Y-91516333D01*
X122656476Y-91563952D01*
X122704095Y-91611571D01*
X122751714Y-91706809D01*
X122751714Y-91944904D01*
X122704095Y-92040142D01*
X122656476Y-92087761D01*
X122561238Y-92135380D01*
X122323142Y-92135380D01*
X122227904Y-92087761D01*
X122180285Y-92040142D01*
%TO.C,K6*%
X95078380Y-111436095D02*
X94078380Y-111436095D01*
X95078380Y-110864666D02*
X94506952Y-111293238D01*
X94078380Y-110864666D02*
X94649809Y-111436095D01*
X94078380Y-110007523D02*
X94078380Y-110198000D01*
X94126000Y-110293238D01*
X94173619Y-110340857D01*
X94316476Y-110436095D01*
X94506952Y-110483714D01*
X94887904Y-110483714D01*
X94983142Y-110436095D01*
X95030761Y-110388476D01*
X95078380Y-110293238D01*
X95078380Y-110102761D01*
X95030761Y-110007523D01*
X94983142Y-109959904D01*
X94887904Y-109912285D01*
X94649809Y-109912285D01*
X94554571Y-109959904D01*
X94506952Y-110007523D01*
X94459333Y-110102761D01*
X94459333Y-110293238D01*
X94506952Y-110388476D01*
X94554571Y-110436095D01*
X94649809Y-110483714D01*
%TO.C,Q4*%
X122401761Y-54268619D02*
X122306523Y-54221000D01*
X122211285Y-54125761D01*
X122068428Y-53982904D01*
X121973190Y-53935285D01*
X121877952Y-53935285D01*
X121925571Y-54173380D02*
X121830333Y-54125761D01*
X121735095Y-54030523D01*
X121687476Y-53840047D01*
X121687476Y-53506714D01*
X121735095Y-53316238D01*
X121830333Y-53221000D01*
X121925571Y-53173380D01*
X122116047Y-53173380D01*
X122211285Y-53221000D01*
X122306523Y-53316238D01*
X122354142Y-53506714D01*
X122354142Y-53840047D01*
X122306523Y-54030523D01*
X122211285Y-54125761D01*
X122116047Y-54173380D01*
X121925571Y-54173380D01*
X123211285Y-53506714D02*
X123211285Y-54173380D01*
X122973190Y-53125761D02*
X122735095Y-53840047D01*
X123354142Y-53840047D01*
%TO.C,D5*%
X120927904Y-97315380D02*
X120927904Y-96315380D01*
X121166000Y-96315380D01*
X121308857Y-96363000D01*
X121404095Y-96458238D01*
X121451714Y-96553476D01*
X121499333Y-96743952D01*
X121499333Y-96886809D01*
X121451714Y-97077285D01*
X121404095Y-97172523D01*
X121308857Y-97267761D01*
X121166000Y-97315380D01*
X120927904Y-97315380D01*
X122404095Y-96315380D02*
X121927904Y-96315380D01*
X121880285Y-96791571D01*
X121927904Y-96743952D01*
X122023142Y-96696333D01*
X122261238Y-96696333D01*
X122356476Y-96743952D01*
X122404095Y-96791571D01*
X122451714Y-96886809D01*
X122451714Y-97124904D01*
X122404095Y-97220142D01*
X122356476Y-97267761D01*
X122261238Y-97315380D01*
X122023142Y-97315380D01*
X121927904Y-97267761D01*
X121880285Y-97220142D01*
%TO.C,D2*%
X55703904Y-52395380D02*
X55703904Y-51395380D01*
X55942000Y-51395380D01*
X56084857Y-51443000D01*
X56180095Y-51538238D01*
X56227714Y-51633476D01*
X56275333Y-51823952D01*
X56275333Y-51966809D01*
X56227714Y-52157285D01*
X56180095Y-52252523D01*
X56084857Y-52347761D01*
X55942000Y-52395380D01*
X55703904Y-52395380D01*
X56656285Y-51490619D02*
X56703904Y-51443000D01*
X56799142Y-51395380D01*
X57037238Y-51395380D01*
X57132476Y-51443000D01*
X57180095Y-51490619D01*
X57227714Y-51585857D01*
X57227714Y-51681095D01*
X57180095Y-51823952D01*
X56608666Y-52395380D01*
X57227714Y-52395380D01*
%TO.C,Q2*%
X50646761Y-53793619D02*
X50551523Y-53746000D01*
X50456285Y-53650761D01*
X50313428Y-53507904D01*
X50218190Y-53460285D01*
X50122952Y-53460285D01*
X50170571Y-53698380D02*
X50075333Y-53650761D01*
X49980095Y-53555523D01*
X49932476Y-53365047D01*
X49932476Y-53031714D01*
X49980095Y-52841238D01*
X50075333Y-52746000D01*
X50170571Y-52698380D01*
X50361047Y-52698380D01*
X50456285Y-52746000D01*
X50551523Y-52841238D01*
X50599142Y-53031714D01*
X50599142Y-53365047D01*
X50551523Y-53555523D01*
X50456285Y-53650761D01*
X50361047Y-53698380D01*
X50170571Y-53698380D01*
X50980095Y-52793619D02*
X51027714Y-52746000D01*
X51122952Y-52698380D01*
X51361047Y-52698380D01*
X51456285Y-52746000D01*
X51503904Y-52793619D01*
X51551523Y-52888857D01*
X51551523Y-52984095D01*
X51503904Y-53126952D01*
X50932476Y-53698380D01*
X51551523Y-53698380D01*
%TO.C,A1*%
X94848333Y-84439000D02*
X94848333Y-83772333D01*
X95248333Y-84572333D02*
X93848333Y-84105666D01*
X95248333Y-83639000D01*
X95248333Y-82439000D02*
X95248333Y-83239000D01*
X95248333Y-82839000D02*
X93848333Y-82839000D01*
X94048333Y-82972333D01*
X94181666Y-83105666D01*
X94248333Y-83239000D01*
%TO.C,D1*%
X35103904Y-52395380D02*
X35103904Y-51395380D01*
X35342000Y-51395380D01*
X35484857Y-51443000D01*
X35580095Y-51538238D01*
X35627714Y-51633476D01*
X35675333Y-51823952D01*
X35675333Y-51966809D01*
X35627714Y-52157285D01*
X35580095Y-52252523D01*
X35484857Y-52347761D01*
X35342000Y-52395380D01*
X35103904Y-52395380D01*
X36627714Y-52395380D02*
X36056285Y-52395380D01*
X36342000Y-52395380D02*
X36342000Y-51395380D01*
X36246761Y-51538238D01*
X36151523Y-51633476D01*
X36056285Y-51681095D01*
%TO.C,J2*%
X90778666Y-37538380D02*
X90778666Y-38252666D01*
X90731047Y-38395523D01*
X90635809Y-38490761D01*
X90492952Y-38538380D01*
X90397714Y-38538380D01*
X91207238Y-37633619D02*
X91254857Y-37586000D01*
X91350095Y-37538380D01*
X91588190Y-37538380D01*
X91683428Y-37586000D01*
X91731047Y-37633619D01*
X91778666Y-37728857D01*
X91778666Y-37824095D01*
X91731047Y-37966952D01*
X91159619Y-38538380D01*
X91778666Y-38538380D01*
%TO.C,Q5*%
X127570761Y-95810619D02*
X127475523Y-95763000D01*
X127380285Y-95667761D01*
X127237428Y-95524904D01*
X127142190Y-95477285D01*
X127046952Y-95477285D01*
X127094571Y-95715380D02*
X126999333Y-95667761D01*
X126904095Y-95572523D01*
X126856476Y-95382047D01*
X126856476Y-95048714D01*
X126904095Y-94858238D01*
X126999333Y-94763000D01*
X127094571Y-94715380D01*
X127285047Y-94715380D01*
X127380285Y-94763000D01*
X127475523Y-94858238D01*
X127523142Y-95048714D01*
X127523142Y-95382047D01*
X127475523Y-95572523D01*
X127380285Y-95667761D01*
X127285047Y-95715380D01*
X127094571Y-95715380D01*
X128427904Y-94715380D02*
X127951714Y-94715380D01*
X127904095Y-95191571D01*
X127951714Y-95143952D01*
X128046952Y-95096333D01*
X128285047Y-95096333D01*
X128380285Y-95143952D01*
X128427904Y-95191571D01*
X128475523Y-95286809D01*
X128475523Y-95524904D01*
X128427904Y-95620142D01*
X128380285Y-95667761D01*
X128285047Y-95715380D01*
X128046952Y-95715380D01*
X127951714Y-95667761D01*
X127904095Y-95620142D01*
%TO.C,Q6*%
X109770761Y-95510619D02*
X109675523Y-95463000D01*
X109580285Y-95367761D01*
X109437428Y-95224904D01*
X109342190Y-95177285D01*
X109246952Y-95177285D01*
X109294571Y-95415380D02*
X109199333Y-95367761D01*
X109104095Y-95272523D01*
X109056476Y-95082047D01*
X109056476Y-94748714D01*
X109104095Y-94558238D01*
X109199333Y-94463000D01*
X109294571Y-94415380D01*
X109485047Y-94415380D01*
X109580285Y-94463000D01*
X109675523Y-94558238D01*
X109723142Y-94748714D01*
X109723142Y-95082047D01*
X109675523Y-95272523D01*
X109580285Y-95367761D01*
X109485047Y-95415380D01*
X109294571Y-95415380D01*
X110580285Y-94415380D02*
X110389809Y-94415380D01*
X110294571Y-94463000D01*
X110246952Y-94510619D01*
X110151714Y-94653476D01*
X110104095Y-94843952D01*
X110104095Y-95224904D01*
X110151714Y-95320142D01*
X110199333Y-95367761D01*
X110294571Y-95415380D01*
X110485047Y-95415380D01*
X110580285Y-95367761D01*
X110627904Y-95320142D01*
X110675523Y-95224904D01*
X110675523Y-94986809D01*
X110627904Y-94891571D01*
X110580285Y-94843952D01*
X110485047Y-94796333D01*
X110294571Y-94796333D01*
X110199333Y-94843952D01*
X110151714Y-94891571D01*
X110104095Y-94986809D01*
%TO.C,K3*%
X120449380Y-38434095D02*
X119449380Y-38434095D01*
X120449380Y-37862666D02*
X119877952Y-38291238D01*
X119449380Y-37862666D02*
X120020809Y-38434095D01*
X119449380Y-37529333D02*
X119449380Y-36910285D01*
X119830333Y-37243619D01*
X119830333Y-37100761D01*
X119877952Y-37005523D01*
X119925571Y-36957904D01*
X120020809Y-36910285D01*
X120258904Y-36910285D01*
X120354142Y-36957904D01*
X120401761Y-37005523D01*
X120449380Y-37100761D01*
X120449380Y-37386476D01*
X120401761Y-37481714D01*
X120354142Y-37529333D01*
%TO.C,J4*%
X134072380Y-112363333D02*
X134786666Y-112363333D01*
X134929523Y-112410952D01*
X135024761Y-112506190D01*
X135072380Y-112649047D01*
X135072380Y-112744285D01*
X134405714Y-111458571D02*
X135072380Y-111458571D01*
X134024761Y-111696666D02*
X134739047Y-111934761D01*
X134739047Y-111315714D01*
%TO.C,R4*%
X125436333Y-57475380D02*
X125103000Y-56999190D01*
X124864904Y-57475380D02*
X124864904Y-56475380D01*
X125245857Y-56475380D01*
X125341095Y-56523000D01*
X125388714Y-56570619D01*
X125436333Y-56665857D01*
X125436333Y-56808714D01*
X125388714Y-56903952D01*
X125341095Y-56951571D01*
X125245857Y-56999190D01*
X124864904Y-56999190D01*
X126293476Y-56808714D02*
X126293476Y-57475380D01*
X126055380Y-56427761D02*
X125817285Y-57142047D01*
X126436333Y-57142047D01*
%TO.C,R8*%
X36294333Y-91000380D02*
X35961000Y-90524190D01*
X35722904Y-91000380D02*
X35722904Y-90000380D01*
X36103857Y-90000380D01*
X36199095Y-90048000D01*
X36246714Y-90095619D01*
X36294333Y-90190857D01*
X36294333Y-90333714D01*
X36246714Y-90428952D01*
X36199095Y-90476571D01*
X36103857Y-90524190D01*
X35722904Y-90524190D01*
X36865761Y-90428952D02*
X36770523Y-90381333D01*
X36722904Y-90333714D01*
X36675285Y-90238476D01*
X36675285Y-90190857D01*
X36722904Y-90095619D01*
X36770523Y-90048000D01*
X36865761Y-90000380D01*
X37056238Y-90000380D01*
X37151476Y-90048000D01*
X37199095Y-90095619D01*
X37246714Y-90190857D01*
X37246714Y-90238476D01*
X37199095Y-90333714D01*
X37151476Y-90381333D01*
X37056238Y-90428952D01*
X36865761Y-90428952D01*
X36770523Y-90476571D01*
X36722904Y-90524190D01*
X36675285Y-90619428D01*
X36675285Y-90809904D01*
X36722904Y-90905142D01*
X36770523Y-90952761D01*
X36865761Y-91000380D01*
X37056238Y-91000380D01*
X37151476Y-90952761D01*
X37199095Y-90905142D01*
X37246714Y-90809904D01*
X37246714Y-90619428D01*
X37199095Y-90524190D01*
X37151476Y-90476571D01*
X37056238Y-90428952D01*
%TO.C,J6*%
X67677666Y-111607380D02*
X67677666Y-112321666D01*
X67630047Y-112464523D01*
X67534809Y-112559761D01*
X67391952Y-112607380D01*
X67296714Y-112607380D01*
X68582428Y-111607380D02*
X68391952Y-111607380D01*
X68296714Y-111655000D01*
X68249095Y-111702619D01*
X68153857Y-111845476D01*
X68106238Y-112035952D01*
X68106238Y-112416904D01*
X68153857Y-112512142D01*
X68201476Y-112559761D01*
X68296714Y-112607380D01*
X68487190Y-112607380D01*
X68582428Y-112559761D01*
X68630047Y-112512142D01*
X68677666Y-112416904D01*
X68677666Y-112178809D01*
X68630047Y-112083571D01*
X68582428Y-112035952D01*
X68487190Y-111988333D01*
X68296714Y-111988333D01*
X68201476Y-112035952D01*
X68153857Y-112083571D01*
X68106238Y-112178809D01*
%TO.C,K1*%
X45894380Y-38534095D02*
X44894380Y-38534095D01*
X45894380Y-37962666D02*
X45322952Y-38391238D01*
X44894380Y-37962666D02*
X45465809Y-38534095D01*
X45894380Y-37010285D02*
X45894380Y-37581714D01*
X45894380Y-37296000D02*
X44894380Y-37296000D01*
X45037238Y-37391238D01*
X45132476Y-37486476D01*
X45180095Y-37581714D01*
%TO.C,D8*%
X35122904Y-96180380D02*
X35122904Y-95180380D01*
X35361000Y-95180380D01*
X35503857Y-95228000D01*
X35599095Y-95323238D01*
X35646714Y-95418476D01*
X35694333Y-95608952D01*
X35694333Y-95751809D01*
X35646714Y-95942285D01*
X35599095Y-96037523D01*
X35503857Y-96132761D01*
X35361000Y-96180380D01*
X35122904Y-96180380D01*
X36265761Y-95608952D02*
X36170523Y-95561333D01*
X36122904Y-95513714D01*
X36075285Y-95418476D01*
X36075285Y-95370857D01*
X36122904Y-95275619D01*
X36170523Y-95228000D01*
X36265761Y-95180380D01*
X36456238Y-95180380D01*
X36551476Y-95228000D01*
X36599095Y-95275619D01*
X36646714Y-95370857D01*
X36646714Y-95418476D01*
X36599095Y-95513714D01*
X36551476Y-95561333D01*
X36456238Y-95608952D01*
X36265761Y-95608952D01*
X36170523Y-95656571D01*
X36122904Y-95704190D01*
X36075285Y-95799428D01*
X36075285Y-95989904D01*
X36122904Y-96085142D01*
X36170523Y-96132761D01*
X36265761Y-96180380D01*
X36456238Y-96180380D01*
X36551476Y-96132761D01*
X36599095Y-96085142D01*
X36646714Y-95989904D01*
X36646714Y-95799428D01*
X36599095Y-95704190D01*
X36551476Y-95656571D01*
X36456238Y-95608952D01*
%TO.C,K4*%
X138049380Y-38534095D02*
X137049380Y-38534095D01*
X138049380Y-37962666D02*
X137477952Y-38391238D01*
X137049380Y-37962666D02*
X137620809Y-38534095D01*
X137382714Y-37105523D02*
X138049380Y-37105523D01*
X137001761Y-37343619D02*
X137716047Y-37581714D01*
X137716047Y-36962666D01*
%TO.C,K8*%
X26868380Y-103681095D02*
X25868380Y-103681095D01*
X26868380Y-103109666D02*
X26296952Y-103538238D01*
X25868380Y-103109666D02*
X26439809Y-103681095D01*
X26296952Y-102538238D02*
X26249333Y-102633476D01*
X26201714Y-102681095D01*
X26106476Y-102728714D01*
X26058857Y-102728714D01*
X25963619Y-102681095D01*
X25916000Y-102633476D01*
X25868380Y-102538238D01*
X25868380Y-102347761D01*
X25916000Y-102252523D01*
X25963619Y-102204904D01*
X26058857Y-102157285D01*
X26106476Y-102157285D01*
X26201714Y-102204904D01*
X26249333Y-102252523D01*
X26296952Y-102347761D01*
X26296952Y-102538238D01*
X26344571Y-102633476D01*
X26392190Y-102681095D01*
X26487428Y-102728714D01*
X26677904Y-102728714D01*
X26773142Y-102681095D01*
X26820761Y-102633476D01*
X26868380Y-102538238D01*
X26868380Y-102347761D01*
X26820761Y-102252523D01*
X26773142Y-102204904D01*
X26677904Y-102157285D01*
X26487428Y-102157285D01*
X26392190Y-102204904D01*
X26344571Y-102252523D01*
X26296952Y-102347761D01*
%TO.C,D4*%
X127658904Y-52649380D02*
X127658904Y-51649380D01*
X127897000Y-51649380D01*
X128039857Y-51697000D01*
X128135095Y-51792238D01*
X128182714Y-51887476D01*
X128230333Y-52077952D01*
X128230333Y-52220809D01*
X128182714Y-52411285D01*
X128135095Y-52506523D01*
X128039857Y-52601761D01*
X127897000Y-52649380D01*
X127658904Y-52649380D01*
X129087476Y-51982714D02*
X129087476Y-52649380D01*
X128849380Y-51601761D02*
X128611285Y-52316047D01*
X129230333Y-52316047D01*
%TO.C,R1*%
X35575333Y-57078380D02*
X35242000Y-56602190D01*
X35003904Y-57078380D02*
X35003904Y-56078380D01*
X35384857Y-56078380D01*
X35480095Y-56126000D01*
X35527714Y-56173619D01*
X35575333Y-56268857D01*
X35575333Y-56411714D01*
X35527714Y-56506952D01*
X35480095Y-56554571D01*
X35384857Y-56602190D01*
X35003904Y-56602190D01*
X36527714Y-57078380D02*
X35956285Y-57078380D01*
X36242000Y-57078380D02*
X36242000Y-56078380D01*
X36146761Y-56221238D01*
X36051523Y-56316476D01*
X35956285Y-56364095D01*
%TO.C,R2*%
X56175333Y-57178380D02*
X55842000Y-56702190D01*
X55603904Y-57178380D02*
X55603904Y-56178380D01*
X55984857Y-56178380D01*
X56080095Y-56226000D01*
X56127714Y-56273619D01*
X56175333Y-56368857D01*
X56175333Y-56511714D01*
X56127714Y-56606952D01*
X56080095Y-56654571D01*
X55984857Y-56702190D01*
X55603904Y-56702190D01*
X56556285Y-56273619D02*
X56603904Y-56226000D01*
X56699142Y-56178380D01*
X56937238Y-56178380D01*
X57032476Y-56226000D01*
X57080095Y-56273619D01*
X57127714Y-56368857D01*
X57127714Y-56464095D01*
X57080095Y-56606952D01*
X56508666Y-57178380D01*
X57127714Y-57178380D01*
%TO.C,C2*%
X63146142Y-79791666D02*
X63193761Y-79839285D01*
X63241380Y-79982142D01*
X63241380Y-80077380D01*
X63193761Y-80220238D01*
X63098523Y-80315476D01*
X63003285Y-80363095D01*
X62812809Y-80410714D01*
X62669952Y-80410714D01*
X62479476Y-80363095D01*
X62384238Y-80315476D01*
X62289000Y-80220238D01*
X62241380Y-80077380D01*
X62241380Y-79982142D01*
X62289000Y-79839285D01*
X62336619Y-79791666D01*
X62336619Y-79410714D02*
X62289000Y-79363095D01*
X62241380Y-79267857D01*
X62241380Y-79029761D01*
X62289000Y-78934523D01*
X62336619Y-78886904D01*
X62431857Y-78839285D01*
X62527095Y-78839285D01*
X62669952Y-78886904D01*
X63241380Y-79458333D01*
X63241380Y-78839285D01*
%TO.C,C1*%
X61809333Y-63705142D02*
X61761714Y-63752761D01*
X61618857Y-63800380D01*
X61523619Y-63800380D01*
X61380761Y-63752761D01*
X61285523Y-63657523D01*
X61237904Y-63562285D01*
X61190285Y-63371809D01*
X61190285Y-63228952D01*
X61237904Y-63038476D01*
X61285523Y-62943238D01*
X61380761Y-62848000D01*
X61523619Y-62800380D01*
X61618857Y-62800380D01*
X61761714Y-62848000D01*
X61809333Y-62895619D01*
X62761714Y-63800380D02*
X62190285Y-63800380D01*
X62476000Y-63800380D02*
X62476000Y-62800380D01*
X62380761Y-62943238D01*
X62285523Y-63038476D01*
X62190285Y-63086095D01*
%TO.C,K2*%
X66294380Y-38534095D02*
X65294380Y-38534095D01*
X66294380Y-37962666D02*
X65722952Y-38391238D01*
X65294380Y-37962666D02*
X65865809Y-38534095D01*
X65389619Y-37581714D02*
X65342000Y-37534095D01*
X65294380Y-37438857D01*
X65294380Y-37200761D01*
X65342000Y-37105523D01*
X65389619Y-37057904D01*
X65484857Y-37010285D01*
X65580095Y-37010285D01*
X65722952Y-37057904D01*
X66294380Y-37629333D01*
X66294380Y-37010285D01*
%TO.C,R6*%
X103999333Y-91935380D02*
X103666000Y-91459190D01*
X103427904Y-91935380D02*
X103427904Y-90935380D01*
X103808857Y-90935380D01*
X103904095Y-90983000D01*
X103951714Y-91030619D01*
X103999333Y-91125857D01*
X103999333Y-91268714D01*
X103951714Y-91363952D01*
X103904095Y-91411571D01*
X103808857Y-91459190D01*
X103427904Y-91459190D01*
X104856476Y-90935380D02*
X104666000Y-90935380D01*
X104570761Y-90983000D01*
X104523142Y-91030619D01*
X104427904Y-91173476D01*
X104380285Y-91363952D01*
X104380285Y-91744904D01*
X104427904Y-91840142D01*
X104475523Y-91887761D01*
X104570761Y-91935380D01*
X104761238Y-91935380D01*
X104856476Y-91887761D01*
X104904095Y-91840142D01*
X104951714Y-91744904D01*
X104951714Y-91506809D01*
X104904095Y-91411571D01*
X104856476Y-91363952D01*
X104761238Y-91316333D01*
X104570761Y-91316333D01*
X104475523Y-91363952D01*
X104427904Y-91411571D01*
X104380285Y-91506809D01*
%TO.C,J5*%
X87942666Y-111815380D02*
X87942666Y-112529666D01*
X87895047Y-112672523D01*
X87799809Y-112767761D01*
X87656952Y-112815380D01*
X87561714Y-112815380D01*
X88895047Y-111815380D02*
X88418857Y-111815380D01*
X88371238Y-112291571D01*
X88418857Y-112243952D01*
X88514095Y-112196333D01*
X88752190Y-112196333D01*
X88847428Y-112243952D01*
X88895047Y-112291571D01*
X88942666Y-112386809D01*
X88942666Y-112624904D01*
X88895047Y-112720142D01*
X88847428Y-112767761D01*
X88752190Y-112815380D01*
X88514095Y-112815380D01*
X88418857Y-112767761D01*
X88371238Y-112720142D01*
%TO.C,Q8*%
X42065761Y-94675619D02*
X41970523Y-94628000D01*
X41875285Y-94532761D01*
X41732428Y-94389904D01*
X41637190Y-94342285D01*
X41541952Y-94342285D01*
X41589571Y-94580380D02*
X41494333Y-94532761D01*
X41399095Y-94437523D01*
X41351476Y-94247047D01*
X41351476Y-93913714D01*
X41399095Y-93723238D01*
X41494333Y-93628000D01*
X41589571Y-93580380D01*
X41780047Y-93580380D01*
X41875285Y-93628000D01*
X41970523Y-93723238D01*
X42018142Y-93913714D01*
X42018142Y-94247047D01*
X41970523Y-94437523D01*
X41875285Y-94532761D01*
X41780047Y-94580380D01*
X41589571Y-94580380D01*
X42589571Y-94008952D02*
X42494333Y-93961333D01*
X42446714Y-93913714D01*
X42399095Y-93818476D01*
X42399095Y-93770857D01*
X42446714Y-93675619D01*
X42494333Y-93628000D01*
X42589571Y-93580380D01*
X42780047Y-93580380D01*
X42875285Y-93628000D01*
X42922904Y-93675619D01*
X42970523Y-93770857D01*
X42970523Y-93818476D01*
X42922904Y-93913714D01*
X42875285Y-93961333D01*
X42780047Y-94008952D01*
X42589571Y-94008952D01*
X42494333Y-94056571D01*
X42446714Y-94104190D01*
X42399095Y-94199428D01*
X42399095Y-94389904D01*
X42446714Y-94485142D01*
X42494333Y-94532761D01*
X42589571Y-94580380D01*
X42780047Y-94580380D01*
X42875285Y-94532761D01*
X42922904Y-94485142D01*
X42970523Y-94389904D01*
X42970523Y-94199428D01*
X42922904Y-94104190D01*
X42875285Y-94056571D01*
X42780047Y-94008952D01*
%TO.C,D7*%
X55322904Y-95980380D02*
X55322904Y-94980380D01*
X55561000Y-94980380D01*
X55703857Y-95028000D01*
X55799095Y-95123238D01*
X55846714Y-95218476D01*
X55894333Y-95408952D01*
X55894333Y-95551809D01*
X55846714Y-95742285D01*
X55799095Y-95837523D01*
X55703857Y-95932761D01*
X55561000Y-95980380D01*
X55322904Y-95980380D01*
X56227666Y-94980380D02*
X56894333Y-94980380D01*
X56465761Y-95980380D01*
%TO.C,K7*%
X47513380Y-110716095D02*
X46513380Y-110716095D01*
X47513380Y-110144666D02*
X46941952Y-110573238D01*
X46513380Y-110144666D02*
X47084809Y-110716095D01*
X46513380Y-109811333D02*
X46513380Y-109144666D01*
X47513380Y-109573238D01*
%TO.C,D6*%
X103227904Y-97215380D02*
X103227904Y-96215380D01*
X103466000Y-96215380D01*
X103608857Y-96263000D01*
X103704095Y-96358238D01*
X103751714Y-96453476D01*
X103799333Y-96643952D01*
X103799333Y-96786809D01*
X103751714Y-96977285D01*
X103704095Y-97072523D01*
X103608857Y-97167761D01*
X103466000Y-97215380D01*
X103227904Y-97215380D01*
X104656476Y-96215380D02*
X104466000Y-96215380D01*
X104370761Y-96263000D01*
X104323142Y-96310619D01*
X104227904Y-96453476D01*
X104180285Y-96643952D01*
X104180285Y-97024904D01*
X104227904Y-97120142D01*
X104275523Y-97167761D01*
X104370761Y-97215380D01*
X104561238Y-97215380D01*
X104656476Y-97167761D01*
X104704095Y-97120142D01*
X104751714Y-97024904D01*
X104751714Y-96786809D01*
X104704095Y-96691571D01*
X104656476Y-96643952D01*
X104561238Y-96596333D01*
X104370761Y-96596333D01*
X104275523Y-96643952D01*
X104227904Y-96691571D01*
X104180285Y-96786809D01*
%TO.C,K5*%
X112918380Y-111351095D02*
X111918380Y-111351095D01*
X112918380Y-110779666D02*
X112346952Y-111208238D01*
X111918380Y-110779666D02*
X112489809Y-111351095D01*
X111918380Y-109874904D02*
X111918380Y-110351095D01*
X112394571Y-110398714D01*
X112346952Y-110351095D01*
X112299333Y-110255857D01*
X112299333Y-110017761D01*
X112346952Y-109922523D01*
X112394571Y-109874904D01*
X112489809Y-109827285D01*
X112727904Y-109827285D01*
X112823142Y-109874904D01*
X112870761Y-109922523D01*
X112918380Y-110017761D01*
X112918380Y-110255857D01*
X112870761Y-110351095D01*
X112823142Y-110398714D01*
D11*
%TO.C,D3*%
X106922000Y-49546000D02*
X108772000Y-49546000D01*
X106922000Y-50746000D02*
X108772000Y-50746000D01*
X108772000Y-50746000D02*
X108772000Y-49546000D01*
%TO.C,U1*%
X68939000Y-77595000D02*
X68939000Y-79095000D01*
X75839000Y-77595000D02*
X75839000Y-79095000D01*
X68939000Y-79095000D02*
X69209000Y-79095000D01*
X69209000Y-79095000D02*
X69209000Y-81925000D01*
X75839000Y-79095000D02*
X75569000Y-79095000D01*
X75569000Y-79095000D02*
X75569000Y-80195000D01*
%TO.C,R7*%
X54833936Y-93888000D02*
X57888064Y-93888000D01*
X54833936Y-91168000D02*
X57888064Y-91168000D01*
%TO.C,J1*%
X72252000Y-31826000D02*
G75*
G03*
X72252000Y-31826000I-1680000J0D01*
G01*
X74888000Y-33361000D02*
G75*
G03*
X76255042Y-33361427I684001J1534993D01*
G01*
X77107000Y-32510000D02*
G75*
G03*
X77107427Y-31142958I-1534993J684001D01*
G01*
X75572000Y-30146000D02*
G75*
G03*
X74888682Y-30291244I0J-1680000D01*
G01*
X74036999Y-31142000D02*
G75*
G03*
X74036573Y-32509042I1535001J-684000D01*
G01*
X76256000Y-30291000D02*
G75*
G03*
X75543195Y-30145747I-683999J-1535001D01*
G01*
X71606000Y-30587000D02*
X71641000Y-30552000D01*
X69297000Y-32895000D02*
X69344000Y-32849000D01*
X78132000Y-37087000D02*
X68012000Y-37087000D01*
X78132000Y-29226000D02*
X68012000Y-29226000D01*
X68012000Y-37087000D02*
X68012000Y-27166000D01*
X78132000Y-27166000D02*
X68012000Y-27166000D01*
X78132000Y-37087000D02*
X78132000Y-27166000D01*
X78372000Y-27666000D02*
X78372000Y-26926000D01*
X71799000Y-30803000D02*
X71846000Y-30757000D01*
X78132000Y-27726000D02*
X68012000Y-27726000D01*
X78132000Y-34127000D02*
X68012000Y-34127000D01*
X78372000Y-26926000D02*
X77872000Y-26926000D01*
X69502000Y-33101000D02*
X69537000Y-33065000D01*
%TO.C,R3*%
X108949064Y-53286000D02*
X105894936Y-53286000D01*
X108949064Y-56006000D02*
X105894936Y-56006000D01*
%TO.C,C3*%
X78429000Y-80336252D02*
X78429000Y-78913748D01*
X81149000Y-80336252D02*
X81149000Y-78913748D01*
%TO.C,J7*%
X31184000Y-70615000D02*
X31138000Y-70568000D01*
X28107000Y-64282000D02*
X28107000Y-74402000D01*
X33276000Y-73117000D02*
X33230000Y-73070000D01*
X37468000Y-64282000D02*
X37468000Y-74402000D01*
X37468000Y-74402000D02*
X27547000Y-74402000D01*
X27547000Y-64282000D02*
X27547000Y-74402000D01*
X28047000Y-64042000D02*
X27307000Y-64042000D01*
X33482000Y-72912000D02*
X33446000Y-72877000D01*
X29607000Y-64282000D02*
X29607000Y-74402000D01*
X30968000Y-70808000D02*
X30933000Y-70773000D01*
X37468000Y-64282000D02*
X27547000Y-64282000D01*
X27307000Y-64042000D02*
X27307000Y-64542000D01*
X34508000Y-64282000D02*
X34508000Y-74402000D01*
X33742000Y-67526000D02*
G75*
G03*
X33742427Y-66158958I-1534993J684001D01*
G01*
X31523000Y-68377001D02*
G75*
G03*
X32890042Y-68377427I684000J1535001D01*
G01*
X30672000Y-66158000D02*
G75*
G03*
X30526747Y-66870805I1535001J-683999D01*
G01*
X30527000Y-66842000D02*
G75*
G03*
X30672244Y-67525318I1680000J0D01*
G01*
X32891000Y-65307000D02*
G75*
G03*
X31523958Y-65306573I-684001J-1534993D01*
G01*
X33887000Y-71842000D02*
G75*
G03*
X33887000Y-71842000I-1680000J0D01*
G01*
%TO.C,Q3*%
X101722000Y-52506000D02*
X103397000Y-52506000D01*
X101722000Y-49386000D02*
X102372000Y-49386000D01*
X101722000Y-52506000D02*
X101072000Y-52506000D01*
X101722000Y-49386000D02*
X101072000Y-49386000D01*
%TO.C,Q7*%
X62261000Y-94968000D02*
X62911000Y-94968000D01*
X62261000Y-98088000D02*
X62911000Y-98088000D01*
X62261000Y-98088000D02*
X61611000Y-98088000D01*
X62261000Y-94968000D02*
X60586000Y-94968000D01*
%TO.C,Q1*%
X30242000Y-52306000D02*
X29592000Y-52306000D01*
X30242000Y-49186000D02*
X29592000Y-49186000D01*
X30242000Y-52306000D02*
X31917000Y-52306000D01*
X30242000Y-49186000D02*
X30892000Y-49186000D01*
%TO.C,C4*%
X88064000Y-64844437D02*
X86999563Y-63780000D01*
X89554000Y-71500000D02*
X88304000Y-71500000D01*
X88929000Y-72125000D02*
X88929000Y-70875000D01*
X77544000Y-74300000D02*
X77544000Y-70250000D01*
X88064000Y-73235563D02*
X86999563Y-74300000D01*
X86999563Y-63780000D02*
X77544000Y-63780000D01*
X86999563Y-74300000D02*
X77544000Y-74300000D01*
X88064000Y-73235563D02*
X88064000Y-70250000D01*
X88064000Y-64844437D02*
X88064000Y-67830000D01*
X77544000Y-63780000D02*
X77544000Y-67830000D01*
%TO.C,R5*%
X120438936Y-95323000D02*
X123493064Y-95323000D01*
X120438936Y-92603000D02*
X123493064Y-92603000D01*
%TO.C,K6*%
X111666000Y-100863000D02*
X105166000Y-100863000D01*
X108266000Y-116563000D02*
X105966000Y-116563000D01*
X96266000Y-120063000D02*
X96266000Y-100863000D01*
X109966000Y-108363000D02*
X105466000Y-108363000D01*
X103966000Y-111863000D02*
X103966000Y-113363000D01*
X103966000Y-104963000D02*
X103966000Y-104063000D01*
X109966000Y-108363000D02*
X109966000Y-106063000D01*
X111666000Y-120063000D02*
X96266000Y-120063000D01*
X105466000Y-110863000D02*
X102466000Y-110863000D01*
X100266000Y-111863000D02*
X100266000Y-104963000D01*
X102466000Y-110863000D02*
X102466000Y-105863000D01*
X103966000Y-111863000D02*
X100266000Y-111863000D01*
X97966000Y-106063000D02*
X97966000Y-108363000D01*
X102466000Y-110863000D02*
X105466000Y-105863000D01*
X111666000Y-100863000D02*
X111666000Y-120063000D01*
X105466000Y-105863000D02*
X105466000Y-110863000D01*
X99666000Y-116563000D02*
X101966000Y-116563000D01*
X103966000Y-104963000D02*
X100266000Y-104963000D01*
X103966000Y-113363000D02*
X106666000Y-117863000D01*
X102466000Y-108363000D02*
X97966000Y-108363000D01*
X102766000Y-100863000D02*
X96266000Y-100863000D01*
X102466000Y-105863000D02*
X105466000Y-105863000D01*
%TO.C,Q4*%
X122497000Y-52506000D02*
X124172000Y-52506000D01*
X122497000Y-49386000D02*
X123147000Y-49386000D01*
X122497000Y-49386000D02*
X121847000Y-49386000D01*
X122497000Y-52506000D02*
X121847000Y-52506000D01*
%TO.C,D5*%
X122366000Y-97563000D02*
X120516000Y-97563000D01*
X120516000Y-97563000D02*
X120516000Y-98763000D01*
X122366000Y-98763000D02*
X120516000Y-98763000D01*
%TO.C,D2*%
X57592000Y-50746000D02*
X57592000Y-49546000D01*
X55742000Y-49546000D02*
X57592000Y-49546000D01*
X55742000Y-50746000D02*
X57592000Y-50746000D01*
%TO.C,Q2*%
X50742000Y-49286000D02*
X51392000Y-49286000D01*
X50742000Y-52406000D02*
X50092000Y-52406000D01*
X50742000Y-52406000D02*
X52417000Y-52406000D01*
X50742000Y-49286000D02*
X50092000Y-49286000D01*
D12*
%TO.C,A1*%
X145034000Y-65024000D02*
X145034000Y-85344000D01*
X142494000Y-87884000D02*
X99314000Y-87884000D01*
X99314000Y-62484000D02*
X142494000Y-62484000D01*
X96774000Y-85344000D02*
X96774000Y-65024000D01*
X96774000Y-85344000D02*
G75*
G03*
X99314000Y-87884000I2540001J1D01*
G01*
X145034000Y-65024000D02*
G75*
G03*
X142494000Y-62484000I-2540000J0D01*
G01*
X99314000Y-62484000D02*
G75*
G03*
X96774000Y-65024000I0J-2540000D01*
G01*
X142494000Y-87884000D02*
G75*
G03*
X145034000Y-85344000I-1J2540001D01*
G01*
D13*
X103224000Y-88994000D02*
G75*
G03*
X103224000Y-88994000I-100000J0D01*
G01*
X103224000Y-61374000D02*
G75*
G03*
X103224000Y-61374000I-100000J0D01*
G01*
D11*
%TO.C,D1*%
X35142000Y-50546000D02*
X36992000Y-50546000D01*
X36992000Y-50546000D02*
X36992000Y-49346000D01*
X35142000Y-49346000D02*
X36992000Y-49346000D01*
%TO.C,J2*%
X90292000Y-31826000D02*
G75*
G03*
X90292000Y-31826000I-1680000J0D01*
G01*
X92076999Y-31142000D02*
G75*
G03*
X92076573Y-32509042I1535001J-684000D01*
G01*
X95147000Y-32510000D02*
G75*
G03*
X95147427Y-31142958I-1534993J684001D01*
G01*
X94296000Y-30291000D02*
G75*
G03*
X93583195Y-30145747I-683999J-1535001D01*
G01*
X92928000Y-33361000D02*
G75*
G03*
X94295042Y-33361427I684001J1534993D01*
G01*
X93612000Y-30146000D02*
G75*
G03*
X92928682Y-30291244I0J-1680000D01*
G01*
X89839000Y-30803000D02*
X89886000Y-30757000D01*
X96172000Y-37087000D02*
X96172000Y-27166000D01*
X87337000Y-32895000D02*
X87384000Y-32849000D01*
X96172000Y-27726000D02*
X86052000Y-27726000D01*
X87542000Y-33101000D02*
X87577000Y-33065000D01*
X96172000Y-37087000D02*
X86052000Y-37087000D01*
X96412000Y-27666000D02*
X96412000Y-26926000D01*
X96172000Y-34127000D02*
X86052000Y-34127000D01*
X89646000Y-30587000D02*
X89681000Y-30552000D01*
X96172000Y-29226000D02*
X86052000Y-29226000D01*
X86052000Y-37087000D02*
X86052000Y-27166000D01*
X96412000Y-26926000D02*
X95912000Y-26926000D01*
X96172000Y-27166000D02*
X86052000Y-27166000D01*
%TO.C,Q5*%
X127666000Y-99223000D02*
X128316000Y-99223000D01*
X127666000Y-96103000D02*
X125991000Y-96103000D01*
X127666000Y-99223000D02*
X127016000Y-99223000D01*
X127666000Y-96103000D02*
X128316000Y-96103000D01*
%TO.C,Q6*%
X109866000Y-95803000D02*
X108191000Y-95803000D01*
X109866000Y-98923000D02*
X110516000Y-98923000D01*
X109866000Y-98923000D02*
X109216000Y-98923000D01*
X109866000Y-95803000D02*
X110516000Y-95803000D01*
%TO.C,K3*%
X106122000Y-42396000D02*
X106122000Y-37396000D01*
X115322000Y-28196000D02*
X115322000Y-47396000D01*
X109122000Y-42396000D02*
X106122000Y-42396000D01*
X107622000Y-34896000D02*
X104922000Y-30396000D01*
X109122000Y-37396000D02*
X106122000Y-42396000D01*
X99922000Y-47396000D02*
X106422000Y-47396000D01*
X108822000Y-47396000D02*
X115322000Y-47396000D01*
X107622000Y-43296000D02*
X107622000Y-44196000D01*
X99922000Y-28196000D02*
X115322000Y-28196000D01*
X101622000Y-39896000D02*
X101622000Y-42196000D01*
X106122000Y-37396000D02*
X109122000Y-37396000D01*
X107622000Y-36396000D02*
X111322000Y-36396000D01*
X111322000Y-36396000D02*
X111322000Y-43296000D01*
X103322000Y-31696000D02*
X105622000Y-31696000D01*
X107622000Y-43296000D02*
X111322000Y-43296000D01*
X107622000Y-36396000D02*
X107622000Y-34896000D01*
X109122000Y-39896000D02*
X113622000Y-39896000D01*
X101622000Y-39896000D02*
X106122000Y-39896000D01*
X109122000Y-37396000D02*
X109122000Y-42396000D01*
X111922000Y-31696000D02*
X109622000Y-31696000D01*
X99922000Y-47396000D02*
X99922000Y-28196000D01*
X113622000Y-42196000D02*
X113622000Y-39896000D01*
%TO.C,J4*%
X138954000Y-109756000D02*
X138954000Y-107696000D01*
X137954000Y-109756000D02*
X136894000Y-109756000D01*
X138954000Y-109756000D02*
X143014000Y-109756000D01*
X138954000Y-107696000D02*
X136894000Y-107696000D01*
X143014000Y-109756000D02*
X143014000Y-105636000D01*
X136894000Y-105636000D02*
X143014000Y-105636000D01*
X136894000Y-109756000D02*
X136894000Y-108696000D01*
X136894000Y-107696000D02*
X136894000Y-105636000D01*
%TO.C,R4*%
X126569936Y-56006000D02*
X129624064Y-56006000D01*
X126569936Y-53286000D02*
X129624064Y-53286000D01*
%TO.C,R8*%
X34933936Y-94188000D02*
X37988064Y-94188000D01*
X34933936Y-91468000D02*
X37988064Y-91468000D01*
%TO.C,J6*%
X75808000Y-118415000D02*
G75*
G03*
X75808000Y-118415000I-1680000J0D01*
G01*
X69128000Y-120095000D02*
G75*
G03*
X69811318Y-119949756I0J1680000D01*
G01*
X68444000Y-119950000D02*
G75*
G03*
X69156805Y-120095253I683999J1535001D01*
G01*
X69812000Y-116880000D02*
G75*
G03*
X68444958Y-116879573I-684001J-1534993D01*
G01*
X70663001Y-119099000D02*
G75*
G03*
X70663427Y-117731958I-1535001J684000D01*
G01*
X67593000Y-117731000D02*
G75*
G03*
X67592573Y-119098042I1534993J-684001D01*
G01*
X66328000Y-122575000D02*
X66328000Y-123315000D01*
X76688000Y-113154000D02*
X76688000Y-123075000D01*
X73094000Y-119654000D02*
X73059000Y-119689000D01*
X66568000Y-113154000D02*
X66568000Y-123075000D01*
X66568000Y-123075000D02*
X76688000Y-123075000D01*
X66568000Y-113154000D02*
X76688000Y-113154000D01*
X66328000Y-123315000D02*
X66828000Y-123315000D01*
X66568000Y-116114000D02*
X76688000Y-116114000D01*
X66568000Y-122515000D02*
X76688000Y-122515000D01*
X66568000Y-121015000D02*
X76688000Y-121015000D01*
X75198000Y-117140000D02*
X75163000Y-117176000D01*
X72901000Y-119438000D02*
X72854000Y-119484000D01*
X75403000Y-117346000D02*
X75356000Y-117392000D01*
%TO.C,K1*%
X30242000Y-39896000D02*
X30242000Y-42196000D01*
X37742000Y-37396000D02*
X34742000Y-42396000D01*
X42242000Y-42196000D02*
X42242000Y-39896000D01*
X36242000Y-36396000D02*
X36242000Y-34896000D01*
X37742000Y-39896000D02*
X42242000Y-39896000D01*
X43942000Y-28196000D02*
X43942000Y-47396000D01*
X31942000Y-31696000D02*
X34242000Y-31696000D01*
X34742000Y-37396000D02*
X37742000Y-37396000D01*
X36242000Y-34896000D02*
X33542000Y-30396000D01*
X28542000Y-28196000D02*
X43942000Y-28196000D01*
X37742000Y-42396000D02*
X34742000Y-42396000D01*
X34742000Y-42396000D02*
X34742000Y-37396000D01*
X36242000Y-43296000D02*
X36242000Y-44196000D01*
X36242000Y-43296000D02*
X39942000Y-43296000D01*
X28542000Y-47396000D02*
X35042000Y-47396000D01*
X30242000Y-39896000D02*
X34742000Y-39896000D01*
X37442000Y-47396000D02*
X43942000Y-47396000D01*
X28542000Y-47396000D02*
X28542000Y-28196000D01*
X36242000Y-36396000D02*
X39942000Y-36396000D01*
X37742000Y-37396000D02*
X37742000Y-42396000D01*
X39942000Y-36396000D02*
X39942000Y-43296000D01*
X40542000Y-31696000D02*
X38242000Y-31696000D01*
%TO.C,D8*%
X34711000Y-96428000D02*
X34711000Y-97628000D01*
X36561000Y-97628000D02*
X34711000Y-97628000D01*
X36561000Y-96428000D02*
X34711000Y-96428000D01*
%TO.C,K4*%
X129897000Y-37396000D02*
X126897000Y-42396000D01*
X128397000Y-43296000D02*
X128397000Y-44196000D01*
X128397000Y-34896000D02*
X125697000Y-30396000D01*
X120697000Y-28196000D02*
X136097000Y-28196000D01*
X134397000Y-42196000D02*
X134397000Y-39896000D01*
X120697000Y-47396000D02*
X120697000Y-28196000D01*
X128397000Y-36396000D02*
X132097000Y-36396000D01*
X122397000Y-39896000D02*
X122397000Y-42196000D01*
X126897000Y-37396000D02*
X129897000Y-37396000D01*
X129897000Y-39896000D02*
X134397000Y-39896000D01*
X128397000Y-43296000D02*
X132097000Y-43296000D01*
X129897000Y-37396000D02*
X129897000Y-42396000D01*
X122397000Y-39896000D02*
X126897000Y-39896000D01*
X124097000Y-31696000D02*
X126397000Y-31696000D01*
X132697000Y-31696000D02*
X130397000Y-31696000D01*
X132097000Y-36396000D02*
X132097000Y-43296000D01*
X120697000Y-47396000D02*
X127197000Y-47396000D01*
X129897000Y-42396000D02*
X126897000Y-42396000D01*
X126897000Y-42396000D02*
X126897000Y-37396000D01*
X128397000Y-36396000D02*
X128397000Y-34896000D01*
X136097000Y-28196000D02*
X136097000Y-47396000D01*
X129597000Y-47396000D02*
X136097000Y-47396000D01*
%TO.C,K8*%
X34761000Y-110178000D02*
X34761000Y-105178000D01*
X34761000Y-105178000D02*
X37761000Y-105178000D01*
X35061000Y-100178000D02*
X28561000Y-100178000D01*
X36261000Y-104278000D02*
X32561000Y-104278000D01*
X37761000Y-110178000D02*
X34761000Y-110178000D01*
X43961000Y-100178000D02*
X37461000Y-100178000D01*
X34761000Y-110178000D02*
X37761000Y-105178000D01*
X36261000Y-104278000D02*
X36261000Y-103378000D01*
X31961000Y-115878000D02*
X34261000Y-115878000D01*
X36261000Y-112678000D02*
X38961000Y-117178000D01*
X36261000Y-111178000D02*
X36261000Y-112678000D01*
X32561000Y-111178000D02*
X32561000Y-104278000D01*
X40561000Y-115878000D02*
X38261000Y-115878000D01*
X34761000Y-107678000D02*
X30261000Y-107678000D01*
X30261000Y-105378000D02*
X30261000Y-107678000D01*
X43961000Y-119378000D02*
X28561000Y-119378000D01*
X28561000Y-119378000D02*
X28561000Y-100178000D01*
X37761000Y-105178000D02*
X37761000Y-110178000D01*
X36261000Y-111178000D02*
X32561000Y-111178000D01*
X42261000Y-107678000D02*
X37761000Y-107678000D01*
X43961000Y-100178000D02*
X43961000Y-119378000D01*
X42261000Y-107678000D02*
X42261000Y-105378000D01*
%TO.C,D4*%
X127897000Y-50646000D02*
X129747000Y-50646000D01*
X127897000Y-49446000D02*
X129747000Y-49446000D01*
X129747000Y-50646000D02*
X129747000Y-49446000D01*
%TO.C,R1*%
X37269064Y-52986000D02*
X34214936Y-52986000D01*
X37269064Y-55706000D02*
X34214936Y-55706000D01*
%TO.C,R2*%
X57869064Y-53086000D02*
X54814936Y-53086000D01*
X57869064Y-55806000D02*
X54814936Y-55806000D01*
%TO.C,C2*%
X66449000Y-80336252D02*
X66449000Y-78913748D01*
X63729000Y-80336252D02*
X63729000Y-78913748D01*
%TO.C,C1*%
X56716000Y-73743563D02*
X56716000Y-70758000D01*
X67236000Y-64288000D02*
X67236000Y-68338000D01*
X55226000Y-67088000D02*
X56476000Y-67088000D01*
X57780437Y-64288000D02*
X67236000Y-64288000D01*
X57780437Y-74808000D02*
X67236000Y-74808000D01*
X56716000Y-73743563D02*
X57780437Y-74808000D01*
X56716000Y-65352437D02*
X57780437Y-64288000D01*
X67236000Y-74808000D02*
X67236000Y-70758000D01*
X56716000Y-65352437D02*
X56716000Y-68338000D01*
X55851000Y-66463000D02*
X55851000Y-67713000D01*
%TO.C,K2*%
X55142000Y-37396000D02*
X58142000Y-37396000D01*
X56642000Y-43296000D02*
X60342000Y-43296000D01*
X48942000Y-47396000D02*
X55442000Y-47396000D01*
X64342000Y-28196000D02*
X64342000Y-47396000D01*
X56642000Y-34896000D02*
X53942000Y-30396000D01*
X56642000Y-43296000D02*
X56642000Y-44196000D01*
X60342000Y-36396000D02*
X60342000Y-43296000D01*
X58142000Y-42396000D02*
X55142000Y-42396000D01*
X55142000Y-42396000D02*
X55142000Y-37396000D01*
X50642000Y-39896000D02*
X55142000Y-39896000D01*
X62642000Y-42196000D02*
X62642000Y-39896000D01*
X60942000Y-31696000D02*
X58642000Y-31696000D01*
X57842000Y-47396000D02*
X64342000Y-47396000D01*
X58142000Y-37396000D02*
X55142000Y-42396000D01*
X58142000Y-39896000D02*
X62642000Y-39896000D01*
X48942000Y-47396000D02*
X48942000Y-28196000D01*
X52342000Y-31696000D02*
X54642000Y-31696000D01*
X48942000Y-28196000D02*
X64342000Y-28196000D01*
X56642000Y-36396000D02*
X60342000Y-36396000D01*
X56642000Y-36396000D02*
X56642000Y-34896000D01*
X50642000Y-39896000D02*
X50642000Y-42196000D01*
X58142000Y-37396000D02*
X58142000Y-42396000D01*
%TO.C,R6*%
X102638936Y-92403000D02*
X105693064Y-92403000D01*
X102638936Y-95123000D02*
X105693064Y-95123000D01*
%TO.C,J5*%
X92456000Y-118623000D02*
G75*
G03*
X92456000Y-118623000I-1680000J0D01*
G01*
X85776000Y-120303000D02*
G75*
G03*
X86459318Y-120157756I0J1680000D01*
G01*
X84241000Y-117939000D02*
G75*
G03*
X84240573Y-119306042I1534993J-684001D01*
G01*
X86460000Y-117088000D02*
G75*
G03*
X85092958Y-117087573I-684001J-1534993D01*
G01*
X85092000Y-120158000D02*
G75*
G03*
X85804805Y-120303253I683999J1535001D01*
G01*
X87311001Y-119307000D02*
G75*
G03*
X87311427Y-117939958I-1535001J684000D01*
G01*
X91846000Y-117348000D02*
X91811000Y-117384000D01*
X83216000Y-116322000D02*
X93336000Y-116322000D01*
X83216000Y-123283000D02*
X93336000Y-123283000D01*
X89742000Y-119862000D02*
X89707000Y-119897000D01*
X83216000Y-121223000D02*
X93336000Y-121223000D01*
X82976000Y-123523000D02*
X83476000Y-123523000D01*
X89549000Y-119646000D02*
X89502000Y-119692000D01*
X83216000Y-122723000D02*
X93336000Y-122723000D01*
X92051000Y-117554000D02*
X92004000Y-117600000D01*
X93336000Y-113362000D02*
X93336000Y-123283000D01*
X82976000Y-122783000D02*
X82976000Y-123523000D01*
X83216000Y-113362000D02*
X93336000Y-113362000D01*
X83216000Y-113362000D02*
X83216000Y-123283000D01*
%TO.C,Q8*%
X42161000Y-98088000D02*
X41511000Y-98088000D01*
X42161000Y-98088000D02*
X42811000Y-98088000D01*
X42161000Y-94968000D02*
X42811000Y-94968000D01*
X42161000Y-94968000D02*
X40486000Y-94968000D01*
%TO.C,D7*%
X56761000Y-97428000D02*
X54911000Y-97428000D01*
X56761000Y-96228000D02*
X54911000Y-96228000D01*
X54911000Y-96228000D02*
X54911000Y-97428000D01*
%TO.C,K7*%
X54761000Y-110378000D02*
X57761000Y-105378000D01*
X54761000Y-110378000D02*
X54761000Y-105378000D01*
X56261000Y-104478000D02*
X56261000Y-103578000D01*
X57761000Y-105378000D02*
X57761000Y-110378000D01*
X56261000Y-112878000D02*
X58961000Y-117378000D01*
X55061000Y-100378000D02*
X48561000Y-100378000D01*
X48561000Y-119578000D02*
X48561000Y-100378000D01*
X54761000Y-105378000D02*
X57761000Y-105378000D01*
X60561000Y-116078000D02*
X58261000Y-116078000D01*
X54761000Y-107878000D02*
X50261000Y-107878000D01*
X57761000Y-110378000D02*
X54761000Y-110378000D01*
X62261000Y-107878000D02*
X62261000Y-105578000D01*
X52561000Y-111378000D02*
X52561000Y-104478000D01*
X63961000Y-119578000D02*
X48561000Y-119578000D01*
X50261000Y-105578000D02*
X50261000Y-107878000D01*
X62261000Y-107878000D02*
X57761000Y-107878000D01*
X63961000Y-100378000D02*
X63961000Y-119578000D01*
X56261000Y-111378000D02*
X52561000Y-111378000D01*
X56261000Y-111378000D02*
X56261000Y-112878000D01*
X51961000Y-116078000D02*
X54261000Y-116078000D01*
X63961000Y-100378000D02*
X57461000Y-100378000D01*
X56261000Y-104478000D02*
X52561000Y-104478000D01*
%TO.C,D6*%
X104666000Y-98663000D02*
X102816000Y-98663000D01*
X102816000Y-97463000D02*
X102816000Y-98663000D01*
X104666000Y-97463000D02*
X102816000Y-97463000D01*
%TO.C,K5*%
X115666000Y-106213000D02*
X115666000Y-108513000D01*
X117966000Y-112013000D02*
X117966000Y-105113000D01*
X121666000Y-105113000D02*
X117966000Y-105113000D01*
X120166000Y-108513000D02*
X115666000Y-108513000D01*
X120466000Y-101013000D02*
X113966000Y-101013000D01*
X121666000Y-112013000D02*
X121666000Y-113513000D01*
X121666000Y-112013000D02*
X117966000Y-112013000D01*
X121666000Y-113513000D02*
X124366000Y-118013000D01*
X123166000Y-106013000D02*
X123166000Y-111013000D01*
X129366000Y-101013000D02*
X122866000Y-101013000D01*
X121666000Y-105113000D02*
X121666000Y-104213000D01*
X120166000Y-111013000D02*
X120166000Y-106013000D01*
X129366000Y-101013000D02*
X129366000Y-120213000D01*
X127666000Y-108513000D02*
X127666000Y-106213000D01*
X113966000Y-120213000D02*
X113966000Y-101013000D01*
X117366000Y-116713000D02*
X119666000Y-116713000D01*
X129366000Y-120213000D02*
X113966000Y-120213000D01*
X125966000Y-116713000D02*
X123666000Y-116713000D01*
X127666000Y-108513000D02*
X123166000Y-108513000D01*
X120166000Y-111013000D02*
X123166000Y-106013000D01*
X120166000Y-106013000D02*
X123166000Y-106013000D01*
X123166000Y-111013000D02*
X120166000Y-111013000D01*
%TD*%
M02*
