%TF.GenerationSoftware,KiCad,Pcbnew,(6.0.7)*%
%TF.CreationDate,2023-07-14T15:56:38+03:30*%
%TF.ProjectId,Linak-controller,4c696e61-6b2d-4636-9f6e-74726f6c6c65,rev?*%
%TF.SameCoordinates,Original*%
%TF.FileFunction,Copper,L1,Top*%
%TF.FilePolarity,Positive*%
%FSLAX46Y46*%
G04 Gerber Fmt 4.6, Leading zero omitted, Abs format (unit mm)*
G04 Created by KiCad (PCBNEW (6.0.7)) date 2023-07-14 15:56:38*
%MOMM*%
%LPD*%
G01*
G04 APERTURE LIST*
G04 Aperture macros list*
%AMRoundRect*
0 Rectangle with rounded corners*
0 $1 Rounding radius*
0 $2 $3 $4 $5 $6 $7 $8 $9 X,Y pos of 4 corners*
0 Add a 4 corners polygon primitive as box body*
4,1,4,$2,$3,$4,$5,$6,$7,$8,$9,$2,$3,0*
0 Add four circle primitives for the rounded corners*
1,1,$1+$1,$2,$3*
1,1,$1+$1,$4,$5*
1,1,$1+$1,$6,$7*
1,1,$1+$1,$8,$9*
0 Add four rect primitives between the rounded corners*
20,1,$1+$1,$2,$3,$4,$5,0*
20,1,$1+$1,$4,$5,$6,$7,0*
20,1,$1+$1,$6,$7,$8,$9,0*
20,1,$1+$1,$8,$9,$2,$3,0*%
G04 Aperture macros list end*
%TA.AperFunction,SMDPad,CuDef*%
%ADD10R,0.600000X0.700000*%
%TD*%
%TA.AperFunction,SMDPad,CuDef*%
%ADD11R,1.200000X2.200000*%
%TD*%
%TA.AperFunction,SMDPad,CuDef*%
%ADD12R,5.800000X6.400000*%
%TD*%
%TA.AperFunction,SMDPad,CuDef*%
%ADD13RoundRect,0.249999X-0.450001X-1.075001X0.450001X-1.075001X0.450001X1.075001X-0.450001X1.075001X0*%
%TD*%
%TA.AperFunction,ComponentPad*%
%ADD14C,2.600000*%
%TD*%
%TA.AperFunction,ComponentPad*%
%ADD15R,2.600000X2.600000*%
%TD*%
%TA.AperFunction,SMDPad,CuDef*%
%ADD16RoundRect,0.249999X0.450001X1.075001X-0.450001X1.075001X-0.450001X-1.075001X0.450001X-1.075001X0*%
%TD*%
%TA.AperFunction,SMDPad,CuDef*%
%ADD17RoundRect,0.250000X1.100000X-0.412500X1.100000X0.412500X-1.100000X0.412500X-1.100000X-0.412500X0*%
%TD*%
%TA.AperFunction,SMDPad,CuDef*%
%ADD18RoundRect,0.150000X0.587500X0.150000X-0.587500X0.150000X-0.587500X-0.150000X0.587500X-0.150000X0*%
%TD*%
%TA.AperFunction,SMDPad,CuDef*%
%ADD19RoundRect,0.150000X-0.587500X-0.150000X0.587500X-0.150000X0.587500X0.150000X-0.587500X0.150000X0*%
%TD*%
%TA.AperFunction,SMDPad,CuDef*%
%ADD20RoundRect,0.250000X1.950000X0.700000X-1.950000X0.700000X-1.950000X-0.700000X1.950000X-0.700000X0*%
%TD*%
%TA.AperFunction,ComponentPad*%
%ADD21C,3.000000*%
%TD*%
%TA.AperFunction,ComponentPad*%
%ADD22R,1.930000X1.930000*%
%TD*%
%TA.AperFunction,ComponentPad*%
%ADD23C,1.930000*%
%TD*%
%TA.AperFunction,ComponentPad*%
%ADD24R,1.350000X1.350000*%
%TD*%
%TA.AperFunction,ComponentPad*%
%ADD25O,1.350000X1.350000*%
%TD*%
%TA.AperFunction,SMDPad,CuDef*%
%ADD26RoundRect,0.250000X-1.950000X-0.700000X1.950000X-0.700000X1.950000X0.700000X-1.950000X0.700000X0*%
%TD*%
%TA.AperFunction,ViaPad*%
%ADD27C,0.800000*%
%TD*%
%TA.AperFunction,Conductor*%
%ADD28C,0.500000*%
%TD*%
%TA.AperFunction,Conductor*%
%ADD29C,1.020000*%
%TD*%
%TA.AperFunction,Conductor*%
%ADD30C,3.600000*%
%TD*%
%TA.AperFunction,Conductor*%
%ADD31C,0.250000*%
%TD*%
G04 APERTURE END LIST*
D10*
%TO.P,D3,2,A*%
%TO.N,Net-(D3-Pad2)*%
X106922000Y-50146000D03*
%TO.P,D3,1,K*%
%TO.N,+5V*%
X108322000Y-50146000D03*
%TD*%
D11*
%TO.P,U1,1,IN*%
%TO.N,supply_Vin*%
X70109000Y-80825000D03*
D12*
%TO.P,U1,2,GND*%
%TO.N,GND*%
X72389000Y-74525000D03*
D11*
%TO.P,U1,3,OUT*%
%TO.N,+5V*%
X74669000Y-80825000D03*
%TD*%
D13*
%TO.P,R7,2*%
%TO.N,Net-(Q7-Pad1)*%
X58761000Y-92528000D03*
%TO.P,R7,1*%
%TO.N,Relay_4_Polar_1*%
X53961000Y-92528000D03*
%TD*%
D14*
%TO.P,J1,2,Pin_2*%
%TO.N,Motor_1_Polar_1*%
X70572000Y-31826000D03*
D15*
%TO.P,J1,1,Pin_1*%
%TO.N,Motor_1_Polar_2*%
X75572000Y-31826000D03*
%TD*%
D16*
%TO.P,R3,2*%
%TO.N,Net-(Q3-Pad1)*%
X105022000Y-54646000D03*
%TO.P,R3,1*%
%TO.N,Relay_2_Polar_1*%
X109822000Y-54646000D03*
%TD*%
D17*
%TO.P,C3,1*%
%TO.N,+5V*%
X79789000Y-81187500D03*
%TO.P,C3,2*%
%TO.N,GND*%
X79789000Y-78062500D03*
%TD*%
D15*
%TO.P,J7,1,Pin_1*%
%TO.N,GND*%
X32207000Y-66842000D03*
D14*
%TO.P,J7,2,Pin_2*%
%TO.N,supply_Vin*%
X32207000Y-71842000D03*
%TD*%
D18*
%TO.P,Q3,3,E*%
%TO.N,GND*%
X100784500Y-50946000D03*
%TO.P,Q3,2,C*%
%TO.N,Net-(D3-Pad2)*%
X102659500Y-49996000D03*
%TO.P,Q3,1,B*%
%TO.N,Net-(Q3-Pad1)*%
X102659500Y-51896000D03*
%TD*%
D19*
%TO.P,Q7,3,E*%
%TO.N,GND*%
X63198500Y-96528000D03*
%TO.P,Q7,2,C*%
%TO.N,Net-(D7-Pad2)*%
X61323500Y-97478000D03*
%TO.P,Q7,1,B*%
%TO.N,Net-(Q7-Pad1)*%
X61323500Y-95578000D03*
%TD*%
D18*
%TO.P,Q1,3,E*%
%TO.N,GND*%
X29304500Y-50746000D03*
%TO.P,Q1,2,C*%
%TO.N,Net-(D1-Pad2)*%
X31179500Y-49796000D03*
%TO.P,Q1,1,B*%
%TO.N,Net-(Q1-Pad1)*%
X31179500Y-51696000D03*
%TD*%
D20*
%TO.P,C4,1*%
%TO.N,+5V*%
X87154000Y-69040000D03*
%TO.P,C4,2*%
%TO.N,GND*%
X78454000Y-69040000D03*
%TD*%
D13*
%TO.P,R5,2*%
%TO.N,Net-(Q5-Pad1)*%
X124366000Y-93963000D03*
%TO.P,R5,1*%
%TO.N,Relay_3_Polar_1*%
X119566000Y-93963000D03*
%TD*%
D21*
%TO.P,K6,11*%
%TO.N,Motor_3_Polar_2*%
X103966000Y-102363000D03*
%TO.P,K6,12*%
%TO.N,GND*%
X109966000Y-116563000D03*
%TO.P,K6,14*%
%TO.N,supply_Vin*%
X97966000Y-116563000D03*
%TO.P,K6,A1*%
%TO.N,+5V*%
X97966000Y-104363000D03*
%TO.P,K6,A2*%
%TO.N,Net-(D6-Pad2)*%
X109966000Y-104363000D03*
%TD*%
D18*
%TO.P,Q4,3,E*%
%TO.N,GND*%
X121559500Y-50946000D03*
%TO.P,Q4,2,C*%
%TO.N,Net-(D4-Pad2)*%
X123434500Y-49996000D03*
%TO.P,Q4,1,B*%
%TO.N,Net-(Q4-Pad1)*%
X123434500Y-51896000D03*
%TD*%
D10*
%TO.P,D5,2,A*%
%TO.N,Net-(D5-Pad2)*%
X122366000Y-98163000D03*
%TO.P,D5,1,K*%
%TO.N,+5V*%
X120966000Y-98163000D03*
%TD*%
%TO.P,D2,2,A*%
%TO.N,Net-(D2-Pad2)*%
X55742000Y-50146000D03*
%TO.P,D2,1,K*%
%TO.N,+5V*%
X57142000Y-50146000D03*
%TD*%
D18*
%TO.P,Q2,3,E*%
%TO.N,GND*%
X49804500Y-50846000D03*
%TO.P,Q2,2,C*%
%TO.N,Net-(D2-Pad2)*%
X51679500Y-49896000D03*
%TO.P,Q2,1,B*%
%TO.N,Net-(Q2-Pad1)*%
X51679500Y-51796000D03*
%TD*%
D22*
%TO.P,A1,J1_1,A0*%
%TO.N,A0*%
X103124000Y-86614000D03*
D23*
%TO.P,A1,J1_2,RSV1*%
%TO.N,unconnected-(A1-PadJ1_2)*%
X105664000Y-86614000D03*
%TO.P,A1,J1_3,RSV2*%
%TO.N,unconnected-(A1-PadJ1_3)*%
X108204000Y-86614000D03*
%TO.P,A1,J1_4,SD3*%
%TO.N,Relay_4_Polar_1*%
X110744000Y-86614000D03*
%TO.P,A1,J1_5,SD2*%
%TO.N,Relay_4_Polar_2*%
X113284000Y-86614000D03*
%TO.P,A1,J1_6,SD1*%
%TO.N,SPI_MOSI*%
X115824000Y-86614000D03*
%TO.P,A1,J1_7,CMD*%
%TO.N,SPI_CLK*%
X118364000Y-86614000D03*
%TO.P,A1,J1_8,SD0*%
%TO.N,SPI_MISO*%
X120904000Y-86614000D03*
%TO.P,A1,J1_9,CLK*%
%TO.N,SPI_CS*%
X123444000Y-86614000D03*
%TO.P,A1,J1_10,GND*%
%TO.N,GND*%
X125984000Y-86614000D03*
%TO.P,A1,J1_11,3V3*%
%TO.N,+3.3V*%
X128524000Y-86614000D03*
%TO.P,A1,J1_12,EN*%
%TO.N,unconnected-(A1-PadJ1_12)*%
X131064000Y-86614000D03*
%TO.P,A1,J1_13,RST*%
%TO.N,unconnected-(A1-PadJ1_13)*%
X133604000Y-86614000D03*
%TO.P,A1,J1_14,GND*%
%TO.N,GND*%
X136144000Y-86614000D03*
%TO.P,A1,J1_15,VIN*%
%TO.N,+5V*%
X138684000Y-86614000D03*
D22*
%TO.P,A1,J2_1,D0*%
%TO.N,D0*%
X103124000Y-63754000D03*
D23*
%TO.P,A1,J2_2,D1*%
%TO.N,D1*%
X105664000Y-63754000D03*
%TO.P,A1,J2_3,D2*%
%TO.N,D2*%
X108204000Y-63754000D03*
%TO.P,A1,J2_4,D3*%
%TO.N,D3*%
X110744000Y-63754000D03*
%TO.P,A1,J2_5,D4*%
%TO.N,D4*%
X113284000Y-63754000D03*
%TO.P,A1,J2_6,3V3*%
%TO.N,unconnected-(A1-PadJ2_6)*%
X115824000Y-63754000D03*
%TO.P,A1,J2_7,GND*%
%TO.N,GND*%
X118364000Y-63754000D03*
%TO.P,A1,J2_8,D5*%
%TO.N,Relay_1_Polar_1*%
X120904000Y-63754000D03*
%TO.P,A1,J2_9,D6*%
%TO.N,Relay_1_Polar_2*%
X123444000Y-63754000D03*
%TO.P,A1,J2_10,D7*%
%TO.N,Relay_2_Polar_1*%
X125984000Y-63754000D03*
%TO.P,A1,J2_11,D8*%
%TO.N,Relay_2_Polar_2*%
X128524000Y-63754000D03*
%TO.P,A1,J2_12,D9*%
%TO.N,Relay_3_Polar_2*%
X131064000Y-63754000D03*
%TO.P,A1,J2_13,D10*%
%TO.N,Relay_3_Polar_1*%
X133604000Y-63754000D03*
%TO.P,A1,J2_14,GND*%
%TO.N,GND*%
X136144000Y-63754000D03*
%TO.P,A1,J2_15,3V3*%
%TO.N,unconnected-(A1-PadJ2_15)*%
X138684000Y-63754000D03*
%TD*%
D10*
%TO.P,D1,2,A*%
%TO.N,Net-(D1-Pad2)*%
X35142000Y-49946000D03*
%TO.P,D1,1,K*%
%TO.N,+5V*%
X36542000Y-49946000D03*
%TD*%
D14*
%TO.P,J2,2,Pin_2*%
%TO.N,Motor_2_Polar_1*%
X88612000Y-31826000D03*
D15*
%TO.P,J2,1,Pin_1*%
%TO.N,Motor_2_Polar_2*%
X93612000Y-31826000D03*
%TD*%
D19*
%TO.P,Q5,3,E*%
%TO.N,GND*%
X128603500Y-97663000D03*
%TO.P,Q5,2,C*%
%TO.N,Net-(D5-Pad2)*%
X126728500Y-98613000D03*
%TO.P,Q5,1,B*%
%TO.N,Net-(Q5-Pad1)*%
X126728500Y-96713000D03*
%TD*%
%TO.P,Q6,3,E*%
%TO.N,GND*%
X110803500Y-97363000D03*
%TO.P,Q6,2,C*%
%TO.N,Net-(D6-Pad2)*%
X108928500Y-98313000D03*
%TO.P,Q6,1,B*%
%TO.N,Net-(Q6-Pad1)*%
X108928500Y-96413000D03*
%TD*%
D21*
%TO.P,K3,A2*%
%TO.N,Net-(D3-Pad2)*%
X101622000Y-43896000D03*
%TO.P,K3,A1*%
%TO.N,+5V*%
X113622000Y-43896000D03*
%TO.P,K3,14*%
%TO.N,supply_Vin*%
X113622000Y-31696000D03*
%TO.P,K3,12*%
%TO.N,GND*%
X101622000Y-31696000D03*
%TO.P,K3,11*%
%TO.N,Motor_2_Polar_1*%
X107622000Y-45896000D03*
%TD*%
D24*
%TO.P,J4,1,Pin_1*%
%TO.N,GND*%
X137954000Y-108696000D03*
D25*
%TO.P,J4,2,Pin_2*%
%TO.N,+5V*%
X137954000Y-106696000D03*
%TO.P,J4,3,Pin_3*%
%TO.N,SPI_CS*%
X139954000Y-108696000D03*
%TO.P,J4,4,Pin_4*%
%TO.N,SPI_MOSI*%
X139954000Y-106696000D03*
%TO.P,J4,5,Pin_5*%
%TO.N,SPI_MISO*%
X141954000Y-108696000D03*
%TO.P,J4,6,Pin_6*%
%TO.N,SPI_CLK*%
X141954000Y-106696000D03*
%TD*%
D13*
%TO.P,R4,2*%
%TO.N,Net-(Q4-Pad1)*%
X130497000Y-54646000D03*
%TO.P,R4,1*%
%TO.N,Relay_2_Polar_2*%
X125697000Y-54646000D03*
%TD*%
%TO.P,R8,2*%
%TO.N,Net-(Q8-Pad1)*%
X38861000Y-92828000D03*
%TO.P,R8,1*%
%TO.N,Relay_4_Polar_2*%
X34061000Y-92828000D03*
%TD*%
D14*
%TO.P,J6,2,Pin_2*%
%TO.N,Motor_4_Polar_1*%
X74128000Y-118415000D03*
D15*
%TO.P,J6,1,Pin_1*%
%TO.N,Motor_4_Polar_2*%
X69128000Y-118415000D03*
%TD*%
D21*
%TO.P,K1,A2*%
%TO.N,Net-(D1-Pad2)*%
X30242000Y-43896000D03*
%TO.P,K1,A1*%
%TO.N,+5V*%
X42242000Y-43896000D03*
%TO.P,K1,14*%
%TO.N,supply_Vin*%
X42242000Y-31696000D03*
%TO.P,K1,12*%
%TO.N,GND*%
X30242000Y-31696000D03*
%TO.P,K1,11*%
%TO.N,Motor_1_Polar_1*%
X36242000Y-45896000D03*
%TD*%
D10*
%TO.P,D8,2,A*%
%TO.N,Net-(D8-Pad2)*%
X36561000Y-97028000D03*
%TO.P,D8,1,K*%
%TO.N,+5V*%
X35161000Y-97028000D03*
%TD*%
D21*
%TO.P,K4,A2*%
%TO.N,Net-(D4-Pad2)*%
X122397000Y-43896000D03*
%TO.P,K4,A1*%
%TO.N,+5V*%
X134397000Y-43896000D03*
%TO.P,K4,14*%
%TO.N,supply_Vin*%
X134397000Y-31696000D03*
%TO.P,K4,12*%
%TO.N,GND*%
X122397000Y-31696000D03*
%TO.P,K4,11*%
%TO.N,Motor_2_Polar_2*%
X128397000Y-45896000D03*
%TD*%
%TO.P,K8,A2*%
%TO.N,Net-(D8-Pad2)*%
X42261000Y-103678000D03*
%TO.P,K8,A1*%
%TO.N,+5V*%
X30261000Y-103678000D03*
%TO.P,K8,14*%
%TO.N,supply_Vin*%
X30261000Y-115878000D03*
%TO.P,K8,12*%
%TO.N,GND*%
X42261000Y-115878000D03*
%TO.P,K8,11*%
%TO.N,Motor_4_Polar_2*%
X36261000Y-101678000D03*
%TD*%
D10*
%TO.P,D4,2,A*%
%TO.N,Net-(D4-Pad2)*%
X127897000Y-50046000D03*
%TO.P,D4,1,K*%
%TO.N,+5V*%
X129297000Y-50046000D03*
%TD*%
D16*
%TO.P,R1,2*%
%TO.N,Net-(Q1-Pad1)*%
X33342000Y-54346000D03*
%TO.P,R1,1*%
%TO.N,Relay_1_Polar_1*%
X38142000Y-54346000D03*
%TD*%
%TO.P,R2,2*%
%TO.N,Net-(Q2-Pad1)*%
X53942000Y-54446000D03*
%TO.P,R2,1*%
%TO.N,Relay_1_Polar_2*%
X58742000Y-54446000D03*
%TD*%
D17*
%TO.P,C2,1*%
%TO.N,supply_Vin*%
X65089000Y-81187500D03*
%TO.P,C2,2*%
%TO.N,GND*%
X65089000Y-78062500D03*
%TD*%
D26*
%TO.P,C1,1*%
%TO.N,supply_Vin*%
X57626000Y-69548000D03*
%TO.P,C1,2*%
%TO.N,GND*%
X66326000Y-69548000D03*
%TD*%
D21*
%TO.P,K2,A2*%
%TO.N,Net-(D2-Pad2)*%
X50642000Y-43896000D03*
%TO.P,K2,A1*%
%TO.N,+5V*%
X62642000Y-43896000D03*
%TO.P,K2,14*%
%TO.N,supply_Vin*%
X62642000Y-31696000D03*
%TO.P,K2,12*%
%TO.N,GND*%
X50642000Y-31696000D03*
%TO.P,K2,11*%
%TO.N,Motor_1_Polar_2*%
X56642000Y-45896000D03*
%TD*%
D13*
%TO.P,R6,2*%
%TO.N,Net-(Q6-Pad1)*%
X106566000Y-93763000D03*
%TO.P,R6,1*%
%TO.N,Relay_3_Polar_2*%
X101766000Y-93763000D03*
%TD*%
D14*
%TO.P,J5,2,Pin_2*%
%TO.N,Motor_3_Polar_1*%
X90776000Y-118623000D03*
D15*
%TO.P,J5,1,Pin_1*%
%TO.N,Motor_3_Polar_2*%
X85776000Y-118623000D03*
%TD*%
D19*
%TO.P,Q8,3,E*%
%TO.N,GND*%
X43098500Y-96528000D03*
%TO.P,Q8,2,C*%
%TO.N,Net-(D8-Pad2)*%
X41223500Y-97478000D03*
%TO.P,Q8,1,B*%
%TO.N,Net-(Q8-Pad1)*%
X41223500Y-95578000D03*
%TD*%
D10*
%TO.P,D7,2,A*%
%TO.N,Net-(D7-Pad2)*%
X56761000Y-96828000D03*
%TO.P,D7,1,K*%
%TO.N,+5V*%
X55361000Y-96828000D03*
%TD*%
D21*
%TO.P,K7,A2*%
%TO.N,Net-(D7-Pad2)*%
X62261000Y-103878000D03*
%TO.P,K7,A1*%
%TO.N,+5V*%
X50261000Y-103878000D03*
%TO.P,K7,14*%
%TO.N,supply_Vin*%
X50261000Y-116078000D03*
%TO.P,K7,12*%
%TO.N,GND*%
X62261000Y-116078000D03*
%TO.P,K7,11*%
%TO.N,Motor_4_Polar_1*%
X56261000Y-101878000D03*
%TD*%
D10*
%TO.P,D6,2,A*%
%TO.N,Net-(D6-Pad2)*%
X104666000Y-98063000D03*
%TO.P,D6,1,K*%
%TO.N,+5V*%
X103266000Y-98063000D03*
%TD*%
D21*
%TO.P,K5,A2*%
%TO.N,Net-(D5-Pad2)*%
X127666000Y-104513000D03*
%TO.P,K5,A1*%
%TO.N,+5V*%
X115666000Y-104513000D03*
%TO.P,K5,14*%
%TO.N,supply_Vin*%
X115666000Y-116713000D03*
%TO.P,K5,12*%
%TO.N,GND*%
X127666000Y-116713000D03*
%TO.P,K5,11*%
%TO.N,Motor_3_Polar_1*%
X121666000Y-102513000D03*
%TD*%
D27*
%TO.N,GND*%
X119380000Y-67056000D03*
X136652000Y-66802000D03*
X127000000Y-83820000D03*
X135636000Y-83566000D03*
X134620000Y-109728000D03*
%TO.N,Relay_3_Polar_2*%
X101092000Y-91186000D03*
%TO.N,Relay_3_Polar_1*%
X116586000Y-93980000D03*
%TO.N,GND*%
X132080000Y-97790000D03*
X113538000Y-97282000D03*
X66294000Y-96520000D03*
X46228000Y-96520000D03*
X46990000Y-50800000D03*
X98044000Y-50292000D03*
X118618000Y-51308000D03*
X80772000Y-67056000D03*
X62230000Y-66802000D03*
X79502000Y-75438000D03*
X79248000Y-73406000D03*
X64770000Y-75438000D03*
X64770000Y-73914000D03*
X73914000Y-68580000D03*
X72136000Y-68580000D03*
X70612000Y-68580000D03*
X28956000Y-53594000D03*
%TD*%
D28*
%TO.N,GND*%
X118364000Y-66040000D02*
X119380000Y-67056000D01*
X118364000Y-63754000D02*
X118364000Y-66040000D01*
X135890000Y-66040000D02*
X136652000Y-66802000D01*
X135890000Y-64008000D02*
X136144000Y-63754000D01*
X135890000Y-66040000D02*
X135890000Y-64008000D01*
X125984000Y-84836000D02*
X127000000Y-83820000D01*
X125984000Y-86614000D02*
X125984000Y-84836000D01*
X136144000Y-84074000D02*
X135636000Y-83566000D01*
X136144000Y-86614000D02*
X136144000Y-84074000D01*
D29*
X28956000Y-51094500D02*
X29304500Y-50746000D01*
X28956000Y-53594000D02*
X28956000Y-51094500D01*
D28*
X135890000Y-109728000D02*
X134620000Y-109728000D01*
X136922000Y-108696000D02*
X135890000Y-109728000D01*
X137954000Y-108696000D02*
X136922000Y-108696000D01*
%TO.N,+5V*%
X130302000Y-109728000D02*
X128778000Y-109728000D01*
X137954000Y-106696000D02*
X133334000Y-106696000D01*
X133334000Y-106696000D02*
X130302000Y-109728000D01*
%TO.N,Relay_3_Polar_2*%
X101766000Y-91860000D02*
X101092000Y-91186000D01*
X101766000Y-93763000D02*
X101766000Y-91860000D01*
%TO.N,Relay_3_Polar_1*%
X116603000Y-93963000D02*
X116586000Y-93980000D01*
X119566000Y-93963000D02*
X116603000Y-93963000D01*
D29*
%TO.N,+5V*%
X123190000Y-99822000D02*
X120904000Y-99822000D01*
X124460000Y-101092000D02*
X123190000Y-99822000D01*
X124460000Y-107442000D02*
X124460000Y-101092000D01*
X133096000Y-114046000D02*
X128778000Y-109728000D01*
X145542000Y-113030000D02*
X144526000Y-114046000D01*
X144526000Y-114046000D02*
X133096000Y-114046000D01*
X126746000Y-109728000D02*
X124460000Y-107442000D01*
X145542000Y-100330000D02*
X145542000Y-113030000D01*
X128778000Y-109728000D02*
X126746000Y-109728000D01*
X138684000Y-93472000D02*
X145542000Y-100330000D01*
X138684000Y-86614000D02*
X138684000Y-93472000D01*
D28*
%TO.N,SPI_CS*%
X123444000Y-88138000D02*
X123444000Y-86614000D01*
X123952000Y-88646000D02*
X123444000Y-88138000D01*
X131064000Y-88646000D02*
X123952000Y-88646000D01*
X144526000Y-102108000D02*
X131064000Y-88646000D01*
X144526000Y-108458000D02*
X144526000Y-102108000D01*
X143002000Y-109982000D02*
X144526000Y-108458000D01*
X141240000Y-109982000D02*
X143002000Y-109982000D01*
X139954000Y-108696000D02*
X141240000Y-109982000D01*
%TO.N,SPI_MISO*%
X121666000Y-89408000D02*
X120904000Y-88646000D01*
X143510000Y-102616000D02*
X130302000Y-89408000D01*
X142510000Y-108696000D02*
X143510000Y-107696000D01*
X143510000Y-107696000D02*
X143510000Y-102616000D01*
X130302000Y-89408000D02*
X121666000Y-89408000D01*
X141954000Y-108696000D02*
X142510000Y-108696000D01*
X120904000Y-88646000D02*
X120904000Y-86614000D01*
%TO.N,SPI_CLK*%
X118364000Y-89408000D02*
X118364000Y-86614000D01*
X119634000Y-90678000D02*
X118364000Y-89408000D01*
X141954000Y-103346000D02*
X129286000Y-90678000D01*
X129286000Y-90678000D02*
X119634000Y-90678000D01*
X141954000Y-106696000D02*
X141954000Y-103346000D01*
%TO.N,SPI_MOSI*%
X115824000Y-89408000D02*
X115824000Y-86614000D01*
X118110000Y-91694000D02*
X115824000Y-89408000D01*
X128270000Y-91694000D02*
X118110000Y-91694000D01*
X139954000Y-103378000D02*
X128270000Y-91694000D01*
X139954000Y-106696000D02*
X139954000Y-103378000D01*
D29*
%TO.N,+5V*%
X97966000Y-101932000D02*
X97966000Y-104363000D01*
X101204000Y-98694000D02*
X97966000Y-101932000D01*
X103266000Y-98694000D02*
X101204000Y-98694000D01*
X103266000Y-98694000D02*
X103266000Y-98063000D01*
X104140000Y-99568000D02*
X103266000Y-98694000D01*
X105918000Y-99568000D02*
X104140000Y-99568000D01*
X106680000Y-100330000D02*
X105918000Y-99568000D01*
X106680000Y-106680000D02*
X106680000Y-100330000D01*
X108458000Y-108458000D02*
X106680000Y-106680000D01*
X114300000Y-108458000D02*
X108458000Y-108458000D01*
X115666000Y-107092000D02*
X114300000Y-108458000D01*
X115666000Y-104513000D02*
X115666000Y-107092000D01*
X120357000Y-99822000D02*
X115666000Y-104513000D01*
X120904000Y-99822000D02*
X120357000Y-99822000D01*
D28*
%TO.N,Net-(D5-Pad2)*%
X126728500Y-99804500D02*
X126728500Y-98613000D01*
X127666000Y-100742000D02*
X126728500Y-99804500D01*
X127666000Y-104513000D02*
X127666000Y-100742000D01*
X124714000Y-98044000D02*
X122485000Y-98044000D01*
X125283000Y-98613000D02*
X124714000Y-98044000D01*
X126728500Y-98613000D02*
X125283000Y-98613000D01*
X122485000Y-98044000D02*
X122366000Y-98163000D01*
%TO.N,Net-(Q5-Pad1)*%
X127000000Y-96441500D02*
X126728500Y-96713000D01*
X127000000Y-95250000D02*
X127000000Y-96441500D01*
X125713000Y-93963000D02*
X127000000Y-95250000D01*
X124366000Y-93963000D02*
X125713000Y-93963000D01*
%TO.N,Net-(Q6-Pad1)*%
X108966000Y-96375500D02*
X108928500Y-96413000D01*
X108966000Y-95250000D02*
X108966000Y-96375500D01*
X107479000Y-93763000D02*
X108966000Y-95250000D01*
X106566000Y-93763000D02*
X107479000Y-93763000D01*
%TO.N,Net-(Q7-Pad1)*%
X58761000Y-92528000D02*
X60524000Y-92528000D01*
X60524000Y-92528000D02*
X61323500Y-93327500D01*
X61323500Y-93327500D02*
X61323500Y-95578000D01*
%TO.N,Net-(D7-Pad2)*%
X62261000Y-100107000D02*
X62261000Y-103878000D01*
X61323500Y-97478000D02*
X61323500Y-99169500D01*
X61323500Y-99169500D02*
X62261000Y-100107000D01*
X57712000Y-96828000D02*
X56761000Y-96828000D01*
X61323500Y-97478000D02*
X58362000Y-97478000D01*
X58362000Y-97478000D02*
X57712000Y-96828000D01*
%TO.N,Net-(D6-Pad2)*%
X109966000Y-102092000D02*
X109966000Y-104363000D01*
X108928500Y-98313000D02*
X108928500Y-101054500D01*
X108928500Y-101054500D02*
X109966000Y-102092000D01*
X104916000Y-98313000D02*
X104666000Y-98063000D01*
X108928500Y-98313000D02*
X104916000Y-98313000D01*
D29*
%TO.N,+5V*%
X120904000Y-98225000D02*
X120966000Y-98163000D01*
X120904000Y-99822000D02*
X120904000Y-98225000D01*
X55053000Y-96520000D02*
X55361000Y-96828000D01*
X51308000Y-96520000D02*
X55053000Y-96520000D01*
X50261000Y-97567000D02*
X51308000Y-96520000D01*
X50261000Y-103878000D02*
X50261000Y-97567000D01*
X50261000Y-105949000D02*
X50261000Y-103878000D01*
X49022000Y-107188000D02*
X50261000Y-105949000D01*
X39878000Y-107188000D02*
X49022000Y-107188000D01*
X39370000Y-106680000D02*
X39878000Y-107188000D01*
X39370000Y-100330000D02*
X39370000Y-106680000D01*
X35814000Y-99060000D02*
X38100000Y-99060000D01*
X35161000Y-98407000D02*
X35814000Y-99060000D01*
X38100000Y-99060000D02*
X39370000Y-100330000D01*
X35161000Y-97028000D02*
X35161000Y-98407000D01*
D28*
%TO.N,Net-(D8-Pad2)*%
X41223500Y-98373500D02*
X41223500Y-97478000D01*
X42261000Y-99411000D02*
X41223500Y-98373500D01*
X42261000Y-103678000D02*
X42261000Y-99411000D01*
%TO.N,Net-(Q8-Pad1)*%
X41402000Y-95399500D02*
X41223500Y-95578000D01*
X40250000Y-92828000D02*
X41402000Y-93980000D01*
X41402000Y-93980000D02*
X41402000Y-95399500D01*
X38861000Y-92828000D02*
X40250000Y-92828000D01*
%TO.N,Relay_4_Polar_1*%
X108966000Y-81280000D02*
X110744000Y-83058000D01*
X88646000Y-88392000D02*
X95758000Y-81280000D01*
X95758000Y-81280000D02*
X108966000Y-81280000D01*
X110744000Y-83058000D02*
X110744000Y-86614000D01*
X55626000Y-88392000D02*
X88646000Y-88392000D01*
X53961000Y-92528000D02*
X53961000Y-90057000D01*
X53961000Y-90057000D02*
X55626000Y-88392000D01*
%TO.N,Relay_4_Polar_2*%
X113284000Y-82042000D02*
X113284000Y-86614000D01*
X111506000Y-80264000D02*
X113284000Y-82042000D01*
X33274000Y-88900000D02*
X34544000Y-87630000D01*
X33274000Y-92456000D02*
X33274000Y-88900000D01*
X94742000Y-80264000D02*
X111506000Y-80264000D01*
X33646000Y-92828000D02*
X33274000Y-92456000D01*
X34061000Y-92828000D02*
X33646000Y-92828000D01*
X34544000Y-87630000D02*
X87376000Y-87630000D01*
X87376000Y-87630000D02*
X94742000Y-80264000D01*
%TO.N,Net-(D8-Pad2)*%
X41165500Y-97536000D02*
X41223500Y-97478000D01*
X39370000Y-97536000D02*
X41165500Y-97536000D01*
X38862000Y-97028000D02*
X39370000Y-97536000D01*
X36561000Y-97028000D02*
X38862000Y-97028000D01*
D29*
%TO.N,GND*%
X128730500Y-97790000D02*
X128603500Y-97663000D01*
X132080000Y-97790000D02*
X128730500Y-97790000D01*
X110884500Y-97282000D02*
X110803500Y-97363000D01*
X113538000Y-97282000D02*
X110884500Y-97282000D01*
X63206500Y-96520000D02*
X63198500Y-96528000D01*
X66294000Y-96520000D02*
X63206500Y-96520000D01*
X46220000Y-96528000D02*
X43098500Y-96528000D01*
X46228000Y-96520000D02*
X46220000Y-96528000D01*
X46990000Y-50800000D02*
X49758500Y-50800000D01*
X49758500Y-50800000D02*
X49804500Y-50846000D01*
X99460000Y-50946000D02*
X100784500Y-50946000D01*
X98806000Y-50292000D02*
X99460000Y-50946000D01*
X98044000Y-50292000D02*
X98806000Y-50292000D01*
%TO.N,Relay_1_Polar_2*%
X120142000Y-60198000D02*
X123444000Y-63500000D01*
X123444000Y-63500000D02*
X123444000Y-63754000D01*
X104902000Y-60198000D02*
X120142000Y-60198000D01*
X67818000Y-49276000D02*
X93980000Y-49276000D01*
X62648000Y-54446000D02*
X67818000Y-49276000D01*
X93980000Y-49276000D02*
X104902000Y-60198000D01*
X58742000Y-54446000D02*
X62648000Y-54446000D01*
%TO.N,Relay_1_Polar_1*%
X120904000Y-63500000D02*
X120904000Y-63754000D01*
X103378000Y-61722000D02*
X119126000Y-61722000D01*
X119126000Y-61722000D02*
X120904000Y-63500000D01*
X68072000Y-51562000D02*
X93218000Y-51562000D01*
X93218000Y-51562000D02*
X103378000Y-61722000D01*
X40692000Y-56896000D02*
X62738000Y-56896000D01*
X62738000Y-56896000D02*
X68072000Y-51562000D01*
X38142000Y-54346000D02*
X40692000Y-56896000D01*
%TO.N,+5V*%
X57142000Y-48760000D02*
X57142000Y-50146000D01*
X56896000Y-48514000D02*
X57142000Y-48760000D01*
X54356000Y-48514000D02*
X56896000Y-48514000D01*
X53848000Y-48006000D02*
X54356000Y-48514000D01*
X53848000Y-41910000D02*
X53848000Y-48006000D01*
X42242000Y-41832000D02*
X43434000Y-40640000D01*
X43434000Y-40640000D02*
X52578000Y-40640000D01*
X42242000Y-43896000D02*
X42242000Y-41832000D01*
X52578000Y-40640000D02*
X53848000Y-41910000D01*
X42242000Y-48436000D02*
X42242000Y-43896000D01*
X40732000Y-49946000D02*
X42242000Y-48436000D01*
X36542000Y-49946000D02*
X40732000Y-49946000D01*
X36542000Y-48988000D02*
X36542000Y-49946000D01*
X36068000Y-48514000D02*
X36542000Y-48988000D01*
X33528000Y-48514000D02*
X36068000Y-48514000D01*
X33020000Y-48006000D02*
X33528000Y-48514000D01*
X31750000Y-40894000D02*
X33020000Y-42164000D01*
X33020000Y-42164000D02*
X33020000Y-48006000D01*
X26670000Y-40894000D02*
X31750000Y-40894000D01*
X26416000Y-41148000D02*
X26670000Y-40894000D01*
X26416000Y-56388000D02*
X26416000Y-41148000D01*
X28956000Y-58928000D02*
X26416000Y-56388000D01*
X85598000Y-58928000D02*
X28956000Y-58928000D01*
X87154000Y-60484000D02*
X85598000Y-58928000D01*
X87154000Y-69040000D02*
X87154000Y-60484000D01*
D30*
%TO.N,Motor_2_Polar_1*%
X94234000Y-38862000D02*
X88392000Y-33020000D01*
X95250000Y-40132000D02*
X94234000Y-39116000D01*
X105410000Y-40132000D02*
X95250000Y-40132000D01*
X94234000Y-39116000D02*
X94234000Y-38862000D01*
X107622000Y-42344000D02*
X105410000Y-40132000D01*
X88392000Y-33020000D02*
X88392000Y-32046000D01*
X107622000Y-45896000D02*
X107622000Y-42344000D01*
X88392000Y-32046000D02*
X88612000Y-31826000D01*
%TO.N,Motor_1_Polar_2*%
X75572000Y-33140000D02*
X75572000Y-31826000D01*
X68580000Y-40132000D02*
X75572000Y-33140000D01*
X58420000Y-40132000D02*
X68580000Y-40132000D01*
X56642000Y-41910000D02*
X58420000Y-40132000D01*
X56642000Y-45896000D02*
X56642000Y-41910000D01*
%TO.N,Motor_3_Polar_2*%
X85776000Y-115646000D02*
X85776000Y-118623000D01*
X101346000Y-108204000D02*
X93218000Y-108204000D01*
X103966000Y-105584000D02*
X101346000Y-108204000D01*
X103966000Y-102363000D02*
X103966000Y-105584000D01*
X93218000Y-108204000D02*
X85776000Y-115646000D01*
%TO.N,Motor_4_Polar_1*%
X74128000Y-112990000D02*
X74128000Y-118415000D01*
X68834000Y-107696000D02*
X74128000Y-112990000D01*
X57404000Y-107696000D02*
X68834000Y-107696000D01*
X56261000Y-106553000D02*
X57404000Y-107696000D01*
X56261000Y-101878000D02*
X56261000Y-106553000D01*
D29*
%TO.N,GND*%
X118980000Y-50946000D02*
X118618000Y-51308000D01*
X121559500Y-50946000D02*
X118980000Y-50946000D01*
%TO.N,+5V*%
X114808000Y-40640000D02*
X113622000Y-41826000D01*
X124460000Y-40640000D02*
X114808000Y-40640000D01*
X125222000Y-41402000D02*
X124460000Y-40640000D01*
X125222000Y-48260000D02*
X125222000Y-41402000D01*
X125476000Y-48514000D02*
X125222000Y-48260000D01*
X128778000Y-48514000D02*
X125476000Y-48514000D01*
X129297000Y-49033000D02*
X128778000Y-48514000D01*
X113622000Y-41826000D02*
X113622000Y-43896000D01*
X129297000Y-50046000D02*
X129297000Y-49033000D01*
%TO.N,Net-(D4-Pad2)*%
X123434500Y-48504500D02*
X122397000Y-47467000D01*
X123434500Y-49996000D02*
X123434500Y-48504500D01*
X122397000Y-47467000D02*
X122397000Y-43896000D01*
X123484500Y-50046000D02*
X123434500Y-49996000D01*
X127897000Y-50046000D02*
X123484500Y-50046000D01*
%TO.N,+5V*%
X130548000Y-50046000D02*
X129297000Y-50046000D01*
X134397000Y-46197000D02*
X130548000Y-50046000D01*
X134397000Y-43896000D02*
X134397000Y-46197000D01*
X142448000Y-43896000D02*
X134397000Y-43896000D01*
X145034000Y-46482000D02*
X142448000Y-43896000D01*
X145034000Y-71882000D02*
X145034000Y-46482000D01*
X138938000Y-77978000D02*
X145034000Y-71882000D01*
X137922000Y-76962000D02*
X138938000Y-77978000D01*
X136144000Y-75184000D02*
X137922000Y-76962000D01*
%TO.N,Relay_2_Polar_1*%
X123190000Y-58420000D02*
X125984000Y-61214000D01*
X125984000Y-61214000D02*
X125984000Y-63754000D01*
X113596000Y-58420000D02*
X123190000Y-58420000D01*
X109822000Y-54646000D02*
X113596000Y-58420000D01*
%TO.N,Relay_2_Polar_2*%
X125697000Y-57117000D02*
X128524000Y-59944000D01*
X128524000Y-59944000D02*
X128524000Y-63754000D01*
X125697000Y-54646000D02*
X125697000Y-57117000D01*
%TO.N,Net-(Q4-Pad1)*%
X129112000Y-51896000D02*
X123434500Y-51896000D01*
X130497000Y-53281000D02*
X129112000Y-51896000D01*
X130497000Y-54646000D02*
X130497000Y-53281000D01*
%TO.N,+5V*%
X33782000Y-95504000D02*
X35052000Y-96774000D01*
X29210000Y-95504000D02*
X33782000Y-95504000D01*
X28194000Y-94488000D02*
X29210000Y-95504000D01*
X28194000Y-94488000D02*
X28194000Y-101611000D01*
X28194000Y-90170000D02*
X28194000Y-94488000D01*
X32258000Y-86106000D02*
X28194000Y-90170000D01*
X33782000Y-86106000D02*
X32258000Y-86106000D01*
X34036000Y-86360000D02*
X33782000Y-86106000D01*
X28194000Y-101611000D02*
X30261000Y-103678000D01*
X74168000Y-86360000D02*
X34036000Y-86360000D01*
X75438000Y-85090000D02*
X74168000Y-86360000D01*
X75438000Y-81594000D02*
X75438000Y-85090000D01*
X74669000Y-80825000D02*
X75438000Y-81594000D01*
X138938000Y-86360000D02*
X138684000Y-86614000D01*
X93298000Y-75184000D02*
X136144000Y-75184000D01*
X87154000Y-69040000D02*
X93298000Y-75184000D01*
X138938000Y-77978000D02*
X138938000Y-86360000D01*
X87154000Y-76930000D02*
X87154000Y-69040000D01*
X82896500Y-81187500D02*
X87154000Y-76930000D01*
X79789000Y-81187500D02*
X82896500Y-81187500D01*
X79426500Y-80825000D02*
X79789000Y-81187500D01*
X74669000Y-80825000D02*
X79426500Y-80825000D01*
D30*
%TO.N,Motor_3_Polar_1*%
X90776000Y-117758000D02*
X90776000Y-118623000D01*
X96520000Y-112014000D02*
X90776000Y-117758000D01*
X120650000Y-112014000D02*
X96520000Y-112014000D01*
X121666000Y-110998000D02*
X120650000Y-112014000D01*
%TO.N,Motor_4_Polar_2*%
X69128000Y-115102000D02*
X69128000Y-118415000D01*
X65786000Y-111760000D02*
X69128000Y-115102000D01*
X38862000Y-111760000D02*
X65786000Y-111760000D01*
X36261000Y-109159000D02*
X38862000Y-111760000D01*
X36261000Y-101678000D02*
X36261000Y-109159000D01*
%TO.N,Motor_3_Polar_1*%
X121666000Y-102513000D02*
X121666000Y-110998000D01*
%TO.N,Motor_2_Polar_2*%
X125730000Y-35814000D02*
X97600000Y-35814000D01*
X128397000Y-38481000D02*
X125730000Y-35814000D01*
X128397000Y-45896000D02*
X128397000Y-38481000D01*
X97600000Y-35814000D02*
X93612000Y-31826000D01*
%TO.N,Motor_1_Polar_1*%
X66584000Y-35814000D02*
X70572000Y-31826000D01*
X36242000Y-40974000D02*
X41402000Y-35814000D01*
X41402000Y-35814000D02*
X66584000Y-35814000D01*
X36242000Y-45896000D02*
X36242000Y-40974000D01*
%TO.N,supply_Vin*%
X32207000Y-71842000D02*
X55332000Y-71842000D01*
X55332000Y-71842000D02*
X57626000Y-69548000D01*
D31*
%TO.N,+5V*%
X113665000Y-48641000D02*
X113665000Y-43939000D01*
X63373000Y-44627000D02*
X62642000Y-43896000D01*
X113665000Y-43939000D02*
X113622000Y-43896000D01*
X108322000Y-50146000D02*
X112160000Y-50146000D01*
X112160000Y-50146000D02*
X113665000Y-48641000D01*
X63373000Y-47879000D02*
X63373000Y-44627000D01*
X61106000Y-50146000D02*
X63373000Y-47879000D01*
X57142000Y-50146000D02*
X61106000Y-50146000D01*
%TO.N,Net-(D1-Pad2)*%
X30242000Y-48858500D02*
X31179500Y-49796000D01*
X31179500Y-49796000D02*
X34992000Y-49796000D01*
X34992000Y-49796000D02*
X35142000Y-49946000D01*
X30242000Y-43896000D02*
X30242000Y-48858500D01*
%TO.N,Net-(D2-Pad2)*%
X50642000Y-47340000D02*
X51689000Y-48387000D01*
X51679500Y-49896000D02*
X55492000Y-49896000D01*
X51689000Y-49886500D02*
X51679500Y-49896000D01*
X51689000Y-48387000D02*
X51689000Y-49886500D01*
X50642000Y-43896000D02*
X50642000Y-47340000D01*
X55492000Y-49896000D02*
X55742000Y-50146000D01*
%TO.N,Net-(Q1-Pad1)*%
X32756000Y-54346000D02*
X33342000Y-54346000D01*
X31179500Y-51696000D02*
X31877000Y-52393500D01*
X31877000Y-52393500D02*
X31877000Y-53467000D01*
X31877000Y-53467000D02*
X32756000Y-54346000D01*
%TO.N,Net-(Q2-Pad1)*%
X52922000Y-54446000D02*
X53942000Y-54446000D01*
X51679500Y-51796000D02*
X52705000Y-52821500D01*
X52705000Y-52821500D02*
X52705000Y-54229000D01*
X52705000Y-54229000D02*
X52922000Y-54446000D01*
%TO.N,Net-(Q3-Pad1)*%
X105022000Y-54258500D02*
X105022000Y-54646000D01*
X102659500Y-51896000D02*
X105022000Y-54258500D01*
%TO.N,Net-(D3-Pad2)*%
X102809500Y-50146000D02*
X102659500Y-49996000D01*
X102659500Y-49996000D02*
X102659500Y-44933500D01*
X106922000Y-50146000D02*
X102809500Y-50146000D01*
X102659500Y-44933500D02*
X101622000Y-43896000D01*
%TD*%
%TA.AperFunction,Conductor*%
%TO.N,supply_Vin*%
G36*
X54910527Y-69287503D02*
G01*
X54915049Y-69290411D01*
X54931548Y-69294000D01*
X57754000Y-69294000D01*
X57822121Y-69314002D01*
X57868614Y-69367658D01*
X57880000Y-69420000D01*
X57880000Y-70987884D01*
X57884475Y-71003123D01*
X57885865Y-71004328D01*
X57893548Y-71005999D01*
X59310000Y-71005999D01*
X59378121Y-71026001D01*
X59424614Y-71079657D01*
X59436000Y-71131999D01*
X59436000Y-73914000D01*
X63246000Y-79625000D01*
X64219752Y-79658481D01*
X67054852Y-79755961D01*
X67054878Y-79755961D01*
X67056000Y-79756000D01*
X67057136Y-79755998D01*
X67057153Y-79755998D01*
X67703107Y-79754703D01*
X68094902Y-79753918D01*
X68875095Y-79754499D01*
X68943200Y-79774552D01*
X68989653Y-79828242D01*
X69001000Y-79880499D01*
X69001000Y-80552885D01*
X69005475Y-80568124D01*
X69006865Y-80569329D01*
X69014548Y-80571000D01*
X71198884Y-80571000D01*
X71214123Y-80566525D01*
X71215328Y-80565135D01*
X71216999Y-80557452D01*
X71216999Y-80398270D01*
X71237001Y-80330149D01*
X71290657Y-80283656D01*
X71360931Y-80273552D01*
X71425511Y-80303046D01*
X71432899Y-80309988D01*
X71843281Y-80727905D01*
X72085304Y-80974373D01*
X72118761Y-81036992D01*
X72116962Y-81095806D01*
X71752273Y-82432999D01*
X71399322Y-83727153D01*
X71362101Y-83787610D01*
X71298103Y-83818347D01*
X71277762Y-83820000D01*
X61030000Y-83820000D01*
X60961879Y-83799998D01*
X60923019Y-83760566D01*
X59607970Y-81647095D01*
X63231001Y-81647095D01*
X63231338Y-81653614D01*
X63241257Y-81749206D01*
X63244149Y-81762600D01*
X63295588Y-81916784D01*
X63301761Y-81929962D01*
X63387063Y-82067807D01*
X63396099Y-82079208D01*
X63510829Y-82193739D01*
X63522240Y-82202751D01*
X63660243Y-82287816D01*
X63673424Y-82293963D01*
X63827710Y-82345138D01*
X63841086Y-82348005D01*
X63935438Y-82357672D01*
X63941854Y-82358000D01*
X64816885Y-82358000D01*
X64832124Y-82353525D01*
X64833329Y-82352135D01*
X64835000Y-82344452D01*
X64835000Y-82339884D01*
X65343000Y-82339884D01*
X65347475Y-82355123D01*
X65348865Y-82356328D01*
X65356548Y-82357999D01*
X66236095Y-82357999D01*
X66242614Y-82357662D01*
X66338206Y-82347743D01*
X66351600Y-82344851D01*
X66505784Y-82293412D01*
X66518962Y-82287239D01*
X66656807Y-82201937D01*
X66668208Y-82192901D01*
X66782739Y-82078171D01*
X66791751Y-82066760D01*
X66851598Y-81969669D01*
X69001001Y-81969669D01*
X69001371Y-81976490D01*
X69006895Y-82027352D01*
X69010521Y-82042604D01*
X69055676Y-82163054D01*
X69064214Y-82178649D01*
X69140715Y-82280724D01*
X69153276Y-82293285D01*
X69255351Y-82369786D01*
X69270946Y-82378324D01*
X69391394Y-82423478D01*
X69406649Y-82427105D01*
X69457514Y-82432631D01*
X69464328Y-82433000D01*
X69836885Y-82433000D01*
X69852124Y-82428525D01*
X69853329Y-82427135D01*
X69855000Y-82419452D01*
X69855000Y-82414884D01*
X70363000Y-82414884D01*
X70367475Y-82430123D01*
X70368865Y-82431328D01*
X70376548Y-82432999D01*
X70753669Y-82432999D01*
X70760490Y-82432629D01*
X70811352Y-82427105D01*
X70826604Y-82423479D01*
X70947054Y-82378324D01*
X70962649Y-82369786D01*
X71064724Y-82293285D01*
X71077285Y-82280724D01*
X71153786Y-82178649D01*
X71162324Y-82163054D01*
X71207478Y-82042606D01*
X71211105Y-82027351D01*
X71216631Y-81976486D01*
X71217000Y-81969672D01*
X71217000Y-81097115D01*
X71212525Y-81081876D01*
X71211135Y-81080671D01*
X71203452Y-81079000D01*
X70381115Y-81079000D01*
X70365876Y-81083475D01*
X70364671Y-81084865D01*
X70363000Y-81092548D01*
X70363000Y-82414884D01*
X69855000Y-82414884D01*
X69855000Y-81097115D01*
X69850525Y-81081876D01*
X69849135Y-81080671D01*
X69841452Y-81079000D01*
X69019116Y-81079000D01*
X69003877Y-81083475D01*
X69002672Y-81084865D01*
X69001001Y-81092548D01*
X69001001Y-81969669D01*
X66851598Y-81969669D01*
X66876816Y-81928757D01*
X66882963Y-81915576D01*
X66934138Y-81761290D01*
X66937005Y-81747914D01*
X66946672Y-81653562D01*
X66947000Y-81647146D01*
X66947000Y-81459615D01*
X66942525Y-81444376D01*
X66941135Y-81443171D01*
X66933452Y-81441500D01*
X65361115Y-81441500D01*
X65345876Y-81445975D01*
X65344671Y-81447365D01*
X65343000Y-81455048D01*
X65343000Y-82339884D01*
X64835000Y-82339884D01*
X64835000Y-81459615D01*
X64830525Y-81444376D01*
X64829135Y-81443171D01*
X64821452Y-81441500D01*
X63249116Y-81441500D01*
X63233877Y-81445975D01*
X63232672Y-81447365D01*
X63231001Y-81455048D01*
X63231001Y-81647095D01*
X59607970Y-81647095D01*
X59152684Y-80915385D01*
X63231000Y-80915385D01*
X63235475Y-80930624D01*
X63236865Y-80931829D01*
X63244548Y-80933500D01*
X64816885Y-80933500D01*
X64832124Y-80929025D01*
X64833329Y-80927635D01*
X64835000Y-80919952D01*
X64835000Y-80915385D01*
X65343000Y-80915385D01*
X65347475Y-80930624D01*
X65348865Y-80931829D01*
X65356548Y-80933500D01*
X66928884Y-80933500D01*
X66944123Y-80929025D01*
X66945328Y-80927635D01*
X66946999Y-80919952D01*
X66946999Y-80727905D01*
X66946662Y-80721386D01*
X66936743Y-80625794D01*
X66933851Y-80612400D01*
X66882412Y-80458216D01*
X66876239Y-80445038D01*
X66790937Y-80307193D01*
X66781901Y-80295792D01*
X66667171Y-80181261D01*
X66655760Y-80172249D01*
X66517757Y-80087184D01*
X66504576Y-80081037D01*
X66350290Y-80029862D01*
X66336914Y-80026995D01*
X66242562Y-80017328D01*
X66236145Y-80017000D01*
X65361115Y-80017000D01*
X65345876Y-80021475D01*
X65344671Y-80022865D01*
X65343000Y-80030548D01*
X65343000Y-80915385D01*
X64835000Y-80915385D01*
X64835000Y-80035116D01*
X64830525Y-80019877D01*
X64829135Y-80018672D01*
X64821452Y-80017001D01*
X63941905Y-80017001D01*
X63935386Y-80017338D01*
X63839794Y-80027257D01*
X63826400Y-80030149D01*
X63672216Y-80081588D01*
X63659038Y-80087761D01*
X63521193Y-80173063D01*
X63509792Y-80182099D01*
X63395261Y-80296829D01*
X63386249Y-80308240D01*
X63301184Y-80446243D01*
X63295037Y-80459424D01*
X63243862Y-80613710D01*
X63240995Y-80627086D01*
X63231328Y-80721438D01*
X63231000Y-80727855D01*
X63231000Y-80915385D01*
X59152684Y-80915385D01*
X58593893Y-80017328D01*
X53877832Y-72437944D01*
X53858826Y-72369540D01*
X53863932Y-72335830D01*
X54464148Y-70295095D01*
X54918001Y-70295095D01*
X54918338Y-70301614D01*
X54928257Y-70397206D01*
X54931149Y-70410600D01*
X54982588Y-70564784D01*
X54988761Y-70577962D01*
X55074063Y-70715807D01*
X55083099Y-70727208D01*
X55197829Y-70841739D01*
X55209240Y-70850751D01*
X55347243Y-70935816D01*
X55360424Y-70941963D01*
X55514710Y-70993138D01*
X55528086Y-70996005D01*
X55622438Y-71005672D01*
X55628854Y-71006000D01*
X57353885Y-71006000D01*
X57369124Y-71001525D01*
X57370329Y-71000135D01*
X57372000Y-70992452D01*
X57372000Y-69820115D01*
X57367525Y-69804876D01*
X57366135Y-69803671D01*
X57358452Y-69802000D01*
X54936116Y-69802000D01*
X54920877Y-69806475D01*
X54919672Y-69807865D01*
X54918001Y-69815548D01*
X54918001Y-70295095D01*
X54464148Y-70295095D01*
X54737253Y-69366540D01*
X54775664Y-69306831D01*
X54840258Y-69277367D01*
X54910527Y-69287503D01*
G37*
%TD.AperFunction*%
%TD*%
%TA.AperFunction,Conductor*%
%TO.N,GND*%
G36*
X81409596Y-66292425D02*
G01*
X81477457Y-66313288D01*
X81523267Y-66367528D01*
X81534000Y-66418415D01*
X81534000Y-76931436D01*
X81513998Y-76999557D01*
X81460342Y-77046050D01*
X81390068Y-77056154D01*
X81341884Y-77038696D01*
X81217757Y-76962184D01*
X81204576Y-76956037D01*
X81050290Y-76904862D01*
X81036914Y-76901995D01*
X80942562Y-76892328D01*
X80936145Y-76892000D01*
X80061115Y-76892000D01*
X80045876Y-76896475D01*
X80044671Y-76897865D01*
X80043000Y-76905548D01*
X80043000Y-78190500D01*
X80022998Y-78258621D01*
X79969342Y-78305114D01*
X79917000Y-78316500D01*
X77949116Y-78316500D01*
X77933877Y-78320975D01*
X77932672Y-78322365D01*
X77931001Y-78330048D01*
X77931001Y-78522095D01*
X77931338Y-78528614D01*
X77941257Y-78624206D01*
X77944149Y-78637600D01*
X77995588Y-78791784D01*
X78001761Y-78804962D01*
X78087063Y-78942807D01*
X78096101Y-78954211D01*
X78098219Y-78956325D01*
X78099204Y-78958126D01*
X78100646Y-78959945D01*
X78100335Y-78960192D01*
X78132295Y-79018609D01*
X78127289Y-79089429D01*
X78084789Y-79146300D01*
X78018289Y-79171166D01*
X78004932Y-79171422D01*
X74170726Y-79041449D01*
X67050064Y-78800070D01*
X66982660Y-78777771D01*
X66938012Y-78722571D01*
X66930295Y-78651995D01*
X66933371Y-78639867D01*
X66937005Y-78622920D01*
X66946672Y-78528562D01*
X66947000Y-78522146D01*
X66947000Y-78334615D01*
X66942525Y-78319376D01*
X66941135Y-78318171D01*
X66933452Y-78316500D01*
X64961000Y-78316500D01*
X64892879Y-78296498D01*
X64846386Y-78242842D01*
X64835000Y-78190500D01*
X64835000Y-77790385D01*
X65343000Y-77790385D01*
X65347475Y-77805624D01*
X65348865Y-77806829D01*
X65356548Y-77808500D01*
X66928884Y-77808500D01*
X66944123Y-77804025D01*
X66945328Y-77802635D01*
X66946999Y-77794952D01*
X66946999Y-77769669D01*
X68981001Y-77769669D01*
X68981371Y-77776490D01*
X68986895Y-77827352D01*
X68990521Y-77842604D01*
X69035676Y-77963054D01*
X69044214Y-77978649D01*
X69120715Y-78080724D01*
X69133276Y-78093285D01*
X69235351Y-78169786D01*
X69250946Y-78178324D01*
X69371394Y-78223478D01*
X69386649Y-78227105D01*
X69437514Y-78232631D01*
X69444328Y-78233000D01*
X72116885Y-78233000D01*
X72132124Y-78228525D01*
X72133329Y-78227135D01*
X72135000Y-78219452D01*
X72135000Y-78214884D01*
X72643000Y-78214884D01*
X72647475Y-78230123D01*
X72648865Y-78231328D01*
X72656548Y-78232999D01*
X75333669Y-78232999D01*
X75340490Y-78232629D01*
X75391352Y-78227105D01*
X75406604Y-78223479D01*
X75527054Y-78178324D01*
X75542649Y-78169786D01*
X75644724Y-78093285D01*
X75657285Y-78080724D01*
X75733786Y-77978649D01*
X75742324Y-77963054D01*
X75787478Y-77842606D01*
X75791105Y-77827351D01*
X75795121Y-77790385D01*
X77931000Y-77790385D01*
X77935475Y-77805624D01*
X77936865Y-77806829D01*
X77944548Y-77808500D01*
X79516885Y-77808500D01*
X79532124Y-77804025D01*
X79533329Y-77802635D01*
X79535000Y-77794952D01*
X79535000Y-76910116D01*
X79530525Y-76894877D01*
X79529135Y-76893672D01*
X79521452Y-76892001D01*
X78641905Y-76892001D01*
X78635386Y-76892338D01*
X78539794Y-76902257D01*
X78526400Y-76905149D01*
X78372216Y-76956588D01*
X78359038Y-76962761D01*
X78221193Y-77048063D01*
X78209792Y-77057099D01*
X78095261Y-77171829D01*
X78086249Y-77183240D01*
X78001184Y-77321243D01*
X77995037Y-77334424D01*
X77943862Y-77488710D01*
X77940995Y-77502086D01*
X77931328Y-77596438D01*
X77931000Y-77602855D01*
X77931000Y-77790385D01*
X75795121Y-77790385D01*
X75796631Y-77776486D01*
X75797000Y-77769672D01*
X75797000Y-74797115D01*
X75792525Y-74781876D01*
X75791135Y-74780671D01*
X75783452Y-74779000D01*
X72661115Y-74779000D01*
X72645876Y-74783475D01*
X72644671Y-74784865D01*
X72643000Y-74792548D01*
X72643000Y-78214884D01*
X72135000Y-78214884D01*
X72135000Y-74797115D01*
X72130525Y-74781876D01*
X72129135Y-74780671D01*
X72121452Y-74779000D01*
X68999116Y-74779000D01*
X68983877Y-74783475D01*
X68982672Y-74784865D01*
X68981001Y-74792548D01*
X68981001Y-77769669D01*
X66946999Y-77769669D01*
X66946999Y-77602905D01*
X66946662Y-77596386D01*
X66936743Y-77500794D01*
X66933851Y-77487400D01*
X66882412Y-77333216D01*
X66876239Y-77320038D01*
X66790937Y-77182193D01*
X66781901Y-77170792D01*
X66667171Y-77056261D01*
X66655760Y-77047249D01*
X66517757Y-76962184D01*
X66504576Y-76956037D01*
X66350290Y-76904862D01*
X66336914Y-76901995D01*
X66242562Y-76892328D01*
X66236145Y-76892000D01*
X65361115Y-76892000D01*
X65345876Y-76896475D01*
X65344671Y-76897865D01*
X65343000Y-76905548D01*
X65343000Y-77790385D01*
X64835000Y-77790385D01*
X64835000Y-76910116D01*
X64830525Y-76894877D01*
X64829135Y-76893672D01*
X64821452Y-76892001D01*
X63941905Y-76892001D01*
X63935386Y-76892338D01*
X63839794Y-76902257D01*
X63826400Y-76905149D01*
X63672216Y-76956588D01*
X63659038Y-76962761D01*
X63521193Y-77048063D01*
X63509792Y-77057099D01*
X63395261Y-77171829D01*
X63386249Y-77183240D01*
X63301184Y-77321243D01*
X63295037Y-77334424D01*
X63243861Y-77488713D01*
X63242536Y-77494894D01*
X63208697Y-77557307D01*
X63146487Y-77591518D01*
X63075656Y-77586665D01*
X63016115Y-77540735D01*
X61743736Y-75723051D01*
X61721003Y-75654110D01*
X61684129Y-74252885D01*
X68981000Y-74252885D01*
X68985475Y-74268124D01*
X68986865Y-74269329D01*
X68994548Y-74271000D01*
X72116885Y-74271000D01*
X72132124Y-74266525D01*
X72133329Y-74265135D01*
X72135000Y-74257452D01*
X72135000Y-74252885D01*
X72643000Y-74252885D01*
X72647475Y-74268124D01*
X72648865Y-74269329D01*
X72656548Y-74271000D01*
X75778884Y-74271000D01*
X75794123Y-74266525D01*
X75795328Y-74265135D01*
X75796999Y-74257452D01*
X75796999Y-71280331D01*
X75796629Y-71273510D01*
X75791105Y-71222648D01*
X75787479Y-71207396D01*
X75742324Y-71086946D01*
X75733786Y-71071351D01*
X75657285Y-70969276D01*
X75644724Y-70956715D01*
X75542649Y-70880214D01*
X75527054Y-70871676D01*
X75406606Y-70826522D01*
X75391351Y-70822895D01*
X75340486Y-70817369D01*
X75333672Y-70817000D01*
X72661115Y-70817000D01*
X72645876Y-70821475D01*
X72644671Y-70822865D01*
X72643000Y-70830548D01*
X72643000Y-74252885D01*
X72135000Y-74252885D01*
X72135000Y-70835116D01*
X72130525Y-70819877D01*
X72129135Y-70818672D01*
X72121452Y-70817001D01*
X69444331Y-70817001D01*
X69437510Y-70817371D01*
X69386648Y-70822895D01*
X69371396Y-70826521D01*
X69250946Y-70871676D01*
X69235351Y-70880214D01*
X69133276Y-70956715D01*
X69120715Y-70969276D01*
X69044214Y-71071351D01*
X69035676Y-71086946D01*
X68990522Y-71207394D01*
X68986895Y-71222649D01*
X68981369Y-71273514D01*
X68981000Y-71280328D01*
X68981000Y-74252885D01*
X61684129Y-74252885D01*
X61598684Y-71005999D01*
X61579976Y-70295095D01*
X63618001Y-70295095D01*
X63618338Y-70301614D01*
X63628257Y-70397206D01*
X63631149Y-70410600D01*
X63682588Y-70564784D01*
X63688761Y-70577962D01*
X63774063Y-70715807D01*
X63783099Y-70727208D01*
X63897829Y-70841739D01*
X63909240Y-70850751D01*
X64047243Y-70935816D01*
X64060424Y-70941963D01*
X64214710Y-70993138D01*
X64228086Y-70996005D01*
X64322438Y-71005672D01*
X64328854Y-71006000D01*
X66053885Y-71006000D01*
X66069124Y-71001525D01*
X66070329Y-71000135D01*
X66072000Y-70992452D01*
X66072000Y-70987884D01*
X66580000Y-70987884D01*
X66584475Y-71003123D01*
X66585865Y-71004328D01*
X66593548Y-71005999D01*
X68323095Y-71005999D01*
X68329614Y-71005662D01*
X68425206Y-70995743D01*
X68438600Y-70992851D01*
X68592784Y-70941412D01*
X68605962Y-70935239D01*
X68743807Y-70849937D01*
X68755208Y-70840901D01*
X68869739Y-70726171D01*
X68878751Y-70714760D01*
X68963816Y-70576757D01*
X68969963Y-70563576D01*
X69021138Y-70409290D01*
X69024005Y-70395914D01*
X69033672Y-70301562D01*
X69034000Y-70295146D01*
X69034000Y-69820115D01*
X69029525Y-69804876D01*
X69028135Y-69803671D01*
X69020452Y-69802000D01*
X66598115Y-69802000D01*
X66582876Y-69806475D01*
X66581671Y-69807865D01*
X66580000Y-69815548D01*
X66580000Y-70987884D01*
X66072000Y-70987884D01*
X66072000Y-69820115D01*
X66067525Y-69804876D01*
X66066135Y-69803671D01*
X66058452Y-69802000D01*
X63636116Y-69802000D01*
X63620877Y-69806475D01*
X63619672Y-69807865D01*
X63618001Y-69815548D01*
X63618001Y-70295095D01*
X61579976Y-70295095D01*
X61566608Y-69787095D01*
X75746001Y-69787095D01*
X75746338Y-69793614D01*
X75756257Y-69889206D01*
X75759149Y-69902600D01*
X75810588Y-70056784D01*
X75816761Y-70069962D01*
X75902063Y-70207807D01*
X75911099Y-70219208D01*
X76025829Y-70333739D01*
X76037240Y-70342751D01*
X76175243Y-70427816D01*
X76188424Y-70433963D01*
X76342710Y-70485138D01*
X76356086Y-70488005D01*
X76450438Y-70497672D01*
X76456854Y-70498000D01*
X78181885Y-70498000D01*
X78197124Y-70493525D01*
X78198329Y-70492135D01*
X78200000Y-70484452D01*
X78200000Y-70479884D01*
X78708000Y-70479884D01*
X78712475Y-70495123D01*
X78713865Y-70496328D01*
X78721548Y-70497999D01*
X80451095Y-70497999D01*
X80457614Y-70497662D01*
X80553206Y-70487743D01*
X80566600Y-70484851D01*
X80720784Y-70433412D01*
X80733962Y-70427239D01*
X80871807Y-70341937D01*
X80883208Y-70332901D01*
X80997739Y-70218171D01*
X81006751Y-70206760D01*
X81091816Y-70068757D01*
X81097963Y-70055576D01*
X81149138Y-69901290D01*
X81152005Y-69887914D01*
X81161672Y-69793562D01*
X81162000Y-69787146D01*
X81162000Y-69312115D01*
X81157525Y-69296876D01*
X81156135Y-69295671D01*
X81148452Y-69294000D01*
X78726115Y-69294000D01*
X78710876Y-69298475D01*
X78709671Y-69299865D01*
X78708000Y-69307548D01*
X78708000Y-70479884D01*
X78200000Y-70479884D01*
X78200000Y-69312115D01*
X78195525Y-69296876D01*
X78194135Y-69295671D01*
X78186452Y-69294000D01*
X75764116Y-69294000D01*
X75748877Y-69298475D01*
X75747672Y-69299865D01*
X75746001Y-69307548D01*
X75746001Y-69787095D01*
X61566608Y-69787095D01*
X61553155Y-69275885D01*
X63618000Y-69275885D01*
X63622475Y-69291124D01*
X63623865Y-69292329D01*
X63631548Y-69294000D01*
X66053885Y-69294000D01*
X66069124Y-69289525D01*
X66070329Y-69288135D01*
X66072000Y-69280452D01*
X66072000Y-69275885D01*
X66580000Y-69275885D01*
X66584475Y-69291124D01*
X66585865Y-69292329D01*
X66593548Y-69294000D01*
X69015884Y-69294000D01*
X69031123Y-69289525D01*
X69032328Y-69288135D01*
X69033999Y-69280452D01*
X69033999Y-68800905D01*
X69033662Y-68794386D01*
X69030912Y-68767885D01*
X75746000Y-68767885D01*
X75750475Y-68783124D01*
X75751865Y-68784329D01*
X75759548Y-68786000D01*
X78181885Y-68786000D01*
X78197124Y-68781525D01*
X78198329Y-68780135D01*
X78200000Y-68772452D01*
X78200000Y-68767885D01*
X78708000Y-68767885D01*
X78712475Y-68783124D01*
X78713865Y-68784329D01*
X78721548Y-68786000D01*
X81143884Y-68786000D01*
X81159123Y-68781525D01*
X81160328Y-68780135D01*
X81161999Y-68772452D01*
X81161999Y-68292905D01*
X81161662Y-68286386D01*
X81151743Y-68190794D01*
X81148851Y-68177400D01*
X81097412Y-68023216D01*
X81091239Y-68010038D01*
X81005937Y-67872193D01*
X80996901Y-67860792D01*
X80882171Y-67746261D01*
X80870760Y-67737249D01*
X80732757Y-67652184D01*
X80719576Y-67646037D01*
X80565290Y-67594862D01*
X80551914Y-67591995D01*
X80457562Y-67582328D01*
X80451145Y-67582000D01*
X78726115Y-67582000D01*
X78710876Y-67586475D01*
X78709671Y-67587865D01*
X78708000Y-67595548D01*
X78708000Y-68767885D01*
X78200000Y-68767885D01*
X78200000Y-67600116D01*
X78195525Y-67584877D01*
X78194135Y-67583672D01*
X78186452Y-67582001D01*
X76456905Y-67582001D01*
X76450386Y-67582338D01*
X76354794Y-67592257D01*
X76341400Y-67595149D01*
X76187216Y-67646588D01*
X76174038Y-67652761D01*
X76036193Y-67738063D01*
X76024792Y-67747099D01*
X75910261Y-67861829D01*
X75901249Y-67873240D01*
X75816184Y-68011243D01*
X75810037Y-68024424D01*
X75758862Y-68178710D01*
X75755995Y-68192086D01*
X75746328Y-68286438D01*
X75746000Y-68292855D01*
X75746000Y-68767885D01*
X69030912Y-68767885D01*
X69023743Y-68698794D01*
X69020851Y-68685400D01*
X68969412Y-68531216D01*
X68963239Y-68518038D01*
X68877937Y-68380193D01*
X68868901Y-68368792D01*
X68754171Y-68254261D01*
X68742760Y-68245249D01*
X68604757Y-68160184D01*
X68591576Y-68154037D01*
X68437290Y-68102862D01*
X68423914Y-68099995D01*
X68329562Y-68090328D01*
X68323145Y-68090000D01*
X66598115Y-68090000D01*
X66582876Y-68094475D01*
X66581671Y-68095865D01*
X66580000Y-68103548D01*
X66580000Y-69275885D01*
X66072000Y-69275885D01*
X66072000Y-68108116D01*
X66067525Y-68092877D01*
X66066135Y-68091672D01*
X66058452Y-68090001D01*
X64328905Y-68090001D01*
X64322386Y-68090338D01*
X64226794Y-68100257D01*
X64213400Y-68103149D01*
X64059216Y-68154588D01*
X64046038Y-68160761D01*
X63908193Y-68246063D01*
X63896792Y-68255099D01*
X63782261Y-68369829D01*
X63773249Y-68381240D01*
X63688184Y-68519243D01*
X63682037Y-68532424D01*
X63630862Y-68686710D01*
X63627995Y-68700086D01*
X63618328Y-68794438D01*
X63618000Y-68800855D01*
X63618000Y-69275885D01*
X61553155Y-69275885D01*
X61471446Y-66170962D01*
X61489649Y-66102339D01*
X61542063Y-66054451D01*
X61598996Y-66041658D01*
X81409596Y-66292425D01*
G37*
%TD.AperFunction*%
%TD*%
M02*
